{
classes = (
{
automatic = 1;
code = "A Aacute Abreve Acircumflex Adieresis Agrave Amacron Aogonek Aring Atilde AE B C Cacute Ccaron Ccedilla Ccircumflex Cdotaccent D Eth Dcaron Dcroat E Eacute Ebreve Ecaron Ecircumflex Edieresis Edotaccent Egrave Emacron Eogonek F G Gbreve Gcircumflex Gcommaaccent Gdotaccent H Hbar Hcircumflex I IJ Iacute Ibreve Icircumflex Idieresis Idotaccent Igrave Imacron Iogonek Itilde J Jcircumflex K Kcommaaccent L Lacute Lcaron Lcommaaccent Ldot Lslash M N Nacute Ncaron Ncommaaccent Eng Ntilde O Oacute Obreve Ocircumflex Odieresis Ograve Ohungarumlaut Omacron Oslash Otilde OE P Thorn Q R Racute Rcaron Rcommaaccent S Sacute Scaron Scedilla Scircumflex Scommaaccent T Tbar Tcaron Tcedilla Tcommaaccent U Uacute Ubreve Ucircumflex Udieresis Ugrave Uhungarumlaut Umacron Uogonek Uring Utilde V W Wacute Wcircumflex Wdieresis Wgrave X Y Yacute Ycircumflex Ydieresis Ygrave Z Zacute Zcaron Zdotaccent Delta Omega";
name = Uppercase;
}
);
copyright = "Copyright (c) 2015 Quote-Unquote Apps.";
customParameters = (
{
name = openTypeNameLicenseURL;
value = "http://scripts.sil.org/OFL";
},
{
name = openTypeNameLicense;

glyphs = (
{
glyphname = A;
lastChange = "2015-01-12 05:49:59 +0000";
layers = (
{
layerId = UUID0;
name = "Regular Italic";
paths = (
{
closed = 1;
nodes = (
"692 1209 OFFCURVE",
"657 1191 OFFCURVE",
"631 1144 CURVE SMOOTH",
"54 91 LINE SMOOTH",
"30 47 OFFCURVE",
"38 23 OFFCURVE",
"87 0 CURVE SMOOTH",
"135 -23 OFFCURVE",
"168 -16 OFFCURVE",
"192 28 CURVE SMOOTH",
"393 398 LINE",
"401 414 LINE",
"729 1043 LINE",
"733 1043 LINE",
"843 420 LINE",
"847 401 LINE",
"916 41 LINE SMOOTH",
"924 -3 OFFCURVE",
"944 -15 OFFCURVE",
"1004 -8 CURVE SMOOTH",
"1064 -1 OFFCURVE",
"1075 19 OFFCURVE",
"1066 63 CURVE SMOOTH",
"855 1144 LINE SMOOTH",
"846 1191 OFFCURVE",
"818 1209 OFFCURVE",
"755 1209 CURVE SMOOTH"
);
},
{
closed = 1;
nodes = (
"368 474 LINE",
"318 330 LINE",
"882 330 LINE",
"869 474 LINE"
);
}
);
width = 1228;
}
);
unicode = 0041;
},
{
glyphname = Aacute;
lastChange = "2015-01-14 05:27:16 +0000";
layers = (
{
layerId = UUID0;
name = "Regular Italic";
paths = (
{
closed = 1;
nodes = (
"692 1209 OFFCURVE",
"657 1191 OFFCURVE",
"631 1144 CURVE SMOOTH",
"54 91 LINE SMOOTH",
"30 47 OFFCURVE",
"38 23 OFFCURVE",
"87 0 CURVE SMOOTH",
"135 -23 OFFCURVE",
"168 -16 OFFCURVE",
"192 28 CURVE SMOOTH",
"393 398 LINE",
"401 414 LINE",
"729 1043 LINE",
"733 1043 LINE",
"843 420 LINE",
"847 401 LINE",
"916 41 LINE SMOOTH",
"924 -3 OFFCURVE",
"944 -15 OFFCURVE",
"1004 -8 CURVE SMOOTH",
"1064 -1 OFFCURVE",
"1075 19 OFFCURVE",
"1066 63 CURVE SMOOTH",
"855 1144 LINE SMOOTH",
"846 1191 OFFCURVE",
"818 1209 OFFCURVE",
"755 1209 CURVE SMOOTH"
);
},
{
closed = 1;
nodes = (
"368 474 LINE",
"318 330 LINE",
"882 330 LINE",
"869 474 LINE"
);
},
{
closed = 1;
nodes = (
"620 1403 LINE SMOOTH",
"597 1390 OFFCURVE",
"592 1364 OFFCURVE",
"601 1341 CURVE SMOOTH",
"610 1318 OFFCURVE",
"631 1301 OFFCURVE",
"656 1309 CURVE SMOOTH",
"1137 1472 LINE SMOOTH",
"1164 1481 OFFCURVE",
"1176 1508 OFFCURVE",
"1137 1579 CURVE SMOOTH",
"1095 1654 OFFCURVE",
"1070 1652 OFFCURVE",
"1036 1633 CURVE SMOOTH"
);
}
);
width = 1228;
}
);
unicode = 00C1;
},
{
glyphname = Abreve;
lastChange = "2015-01-14 05:27:16 +0000";
layers = (
{
layerId = UUID0;
name = "Regular Italic";
paths = (
{
closed = 1;
nodes = (
"692 1209 OFFCURVE",
"657 1191 OFFCURVE",
"631 1144 CURVE SMOOTH",
"54 91 LINE SMOOTH",
"30 47 OFFCURVE",
"38 23 OFFCURVE",
"87 0 CURVE SMOOTH",
"135 -23 OFFCURVE",
"168 -16 OFFCURVE",
"192 28 CURVE SMOOTH",
"393 398 LINE",
"401 414 LINE",
"729 1043 LINE",
"733 1043 LINE",
"843 420 LINE",
"847 401 LINE",
"916 41 LINE SMOOTH",
"924 -3 OFFCURVE",
"944 -15 OFFCURVE",
"1004 -8 CURVE SMOOTH",
"1064 -1 OFFCURVE",
"1075 19 OFFCURVE",
"1066 63 CURVE SMOOTH",
"855 1144 LINE SMOOTH",
"846 1191 OFFCURVE",
"818 1209 OFFCURVE",
"755 1209 CURVE SMOOTH"
);
},
{
closed = 1;
nodes = (
"368 474 LINE",
"318 330 LINE",
"882 330 LINE",
"869 474 LINE"
);
},
{
closed = 1;
nodes = (
"1119 1633 OFFCURVE",
"1084 1631 OFFCURVE",
"1068 1608 CURVE SMOOTH",
"1007 1518 OFFCURVE",
"917 1485 OFFCURVE",
"781 1485 CURVE SMOOTH",
"645 1485 OFFCURVE",
"565 1518 OFFCURVE",
"530 1608 CURVE SMOOTH",
"522 1629 OFFCURVE",
"493 1632 OFFCURVE",
"468 1622 CURVE SMOOTH",
"444 1613 OFFCURVE",
"423 1593 OFFCURVE",
"425 1568 CURVE SMOOTH",
"439 1430 OFFCURVE",
"563 1341 OFFCURVE",
"770 1341 CURVE SMOOTH",
"977 1341 OFFCURVE",
"1122 1430 OFFCURVE",
"1179 1568 CURVE SMOOTH",
"1189 1592 OFFCURVE",
"1171 1612 OFFCURVE",
"1146 1622 CURVE SMOOTH"
);
}
);
width = 1228;
}
);
unicode = 0102;
},
{
glyphname = Acircumflex;
lastChange = "2015-01-14 05:27:16 +0000";
layers = (
{
layerId = UUID0;
name = "Regular Italic";
paths = (
{
closed = 1;
nodes = (
"692 1209 OFFCURVE",
"657 1191 OFFCURVE",
"631 1144 CURVE SMOOTH",
"54 91 LINE SMOOTH",
"30 47 OFFCURVE",
"38 23 OFFCURVE",
"87 0 CURVE SMOOTH",
"135 -23 OFFCURVE",
"168 -16 OFFCURVE",
"192 28 CURVE SMOOTH",
"393 398 LINE",
"401 414 LINE",
"729 1043 LINE",
"733 1043 LINE",
"843 420 LINE",
"847 401 LINE",
"916 41 LINE SMOOTH",
"924 -3 OFFCURVE",
"944 -15 OFFCURVE",
"1004 -8 CURVE SMOOTH",
"1064 -1 OFFCURVE",
"1075 19 OFFCURVE",
"1066 63 CURVE SMOOTH",
"855 1144 LINE SMOOTH",
"846 1191 OFFCURVE",
"818 1209 OFFCURVE",
"755 1209 CURVE SMOOTH"
);
},
{
closed = 1;
nodes = (
"368 474 LINE",
"318 330 LINE",
"882 330 LINE",
"869 474 LINE"
);
},
{
closed = 1;
nodes = (
"786 1468 LINE",
"1038 1309 LINE SMOOTH",
"1059 1295 OFFCURVE",
"1083 1309 OFFCURVE",
"1097 1330 CURVE SMOOTH",
"1110 1351 OFFCURVE",
"1114 1379 OFFCURVE",
"1097 1396 CURVE SMOOTH",
"851 1628 LINE SMOOTH",
"838 1640 OFFCURVE",
"820 1646 OFFCURVE",
"799 1646 CURVE SMOOTH",
"778 1646 OFFCURVE",
"758 1640 OFFCURVE",
"741 1628 CURVE SMOOTH",
"433 1396 LINE SMOOTH",
"410 1379 OFFCURVE",
"408 1352 OFFCURVE",
"419 1331 CURVE SMOOTH",
"430 1310 OFFCURVE",
"454 1296 OFFCURVE",
"480 1309 CURVE SMOOTH"
);
}
);
width = 1228;
}
);
unicode = 00C2;
},
{
glyphname = Adieresis;
lastChange = "2015-01-14 05:27:16 +0000";
layers = (
{
layerId = UUID0;
name = "Regular Italic";
paths = (
{
closed = 1;
nodes = (
"692 1209 OFFCURVE",
"657 1191 OFFCURVE",
"631 1144 CURVE SMOOTH",
"54 91 LINE SMOOTH",
"30 47 OFFCURVE",
"38 23 OFFCURVE",
"87 0 CURVE SMOOTH",
"135 -23 OFFCURVE",
"168 -16 OFFCURVE",
"192 28 CURVE SMOOTH",
"393 398 LINE",
"401 414 LINE",
"729 1043 LINE",
"733 1043 LINE",
"843 420 LINE",
"847 401 LINE",
"916 41 LINE SMOOTH",
"924 -3 OFFCURVE",
"944 -15 OFFCURVE",
"1004 -8 CURVE SMOOTH",
"1064 -1 OFFCURVE",
"1075 19 OFFCURVE",
"1066 63 CURVE SMOOTH",
"855 1144 LINE SMOOTH",
"846 1191 OFFCURVE",
"818 1209 OFFCURVE",
"755 1209 CURVE SMOOTH"
);
},
{
closed = 1;
nodes = (
"368 474 LINE",
"318 330 LINE",
"882 330 LINE",
"869 474 LINE"
);
},
{
closed = 1;
nodes = (
"618 1340 OFFCURVE",
"688 1403 OFFCURVE",
"688 1483 CURVE SMOOTH",
"688 1542 OFFCURVE",
"644 1590 OFFCURVE",
"581 1590 CURVE SMOOTH",
"507 1590 OFFCURVE",
"436 1525 OFFCURVE",
"436 1448 CURVE SMOOTH",
"436 1388 OFFCURVE",
"480 1340 OFFCURVE",
"544 1340 CURVE SMOOTH"
);
},
{
closed = 1;
nodes = (
"1058 1340 OFFCURVE",
"1128 1403 OFFCURVE",
"1128 1483 CURVE SMOOTH",
"1128 1542 OFFCURVE",
"1084 1590 OFFCURVE",
"1021 1590 CURVE SMOOTH",
"947 1590 OFFCURVE",
"876 1525 OFFCURVE",
"876 1448 CURVE SMOOTH",
"876 1388 OFFCURVE",
"920 1340 OFFCURVE",
"984 1340 CURVE SMOOTH"
);
}
);
width = 1228;
}
);
unicode = 00C4;
},
{
glyphname = Agrave;
lastChange = "2015-01-14 05:27:15 +0000";
layers = (
{
layerId = UUID0;
name = "Regular Italic";
paths = (
{
closed = 1;
nodes = (
"692 1209 OFFCURVE",
"657 1191 OFFCURVE",
"631 1144 CURVE SMOOTH",
"54 91 LINE SMOOTH",
"30 47 OFFCURVE",
"38 23 OFFCURVE",
"87 0 CURVE SMOOTH",
"135 -23 OFFCURVE",
"168 -16 OFFCURVE",
"192 28 CURVE SMOOTH",
"393 398 LINE",
"401 414 LINE",
"729 1043 LINE",
"733 1043 LINE",
"843 420 LINE",
"847 401 LINE",
"916 41 LINE SMOOTH",
"924 -3 OFFCURVE",
"944 -15 OFFCURVE",
"1004 -8 CURVE SMOOTH",
"1064 -1 OFFCURVE",
"1075 19 OFFCURVE",
"1066 63 CURVE SMOOTH",
"855 1144 LINE SMOOTH",
"846 1191 OFFCURVE",
"818 1209 OFFCURVE",
"755 1209 CURVE SMOOTH"
);
},
{
closed = 1;
nodes = (
"368 474 LINE",
"318 330 LINE",
"882 330 LINE",
"869 474 LINE"
);
},
{
closed = 1;
nodes = (
"516 1633 LINE SMOOTH",
"482 1652 OFFCURVE",
"457 1654 OFFCURVE",
"415 1579 CURVE SMOOTH",
"376 1508 OFFCURVE",
"388 1481 OFFCURVE",
"415 1472 CURVE SMOOTH",
"896 1309 LINE SMOOTH",
"921 1301 OFFCURVE",
"942 1318 OFFCURVE",
"951 1341 CURVE SMOOTH",
"960 1364 OFFCURVE",
"955 1390 OFFCURVE",
"932 1403 CURVE SMOOTH"
);
}
);
width = 1228;
}
);
unicode = 00C0;
},
{
glyphname = Amacron;
lastChange = "2015-01-14 05:27:16 +0000";
layers = (
{
layerId = UUID0;
name = "Regular Italic";
paths = (
{
closed = 1;
nodes = (
"692 1209 OFFCURVE",
"657 1191 OFFCURVE",
"631 1144 CURVE SMOOTH",
"54 91 LINE SMOOTH",
"30 47 OFFCURVE",
"38 23 OFFCURVE",
"87 0 CURVE SMOOTH",
"135 -23 OFFCURVE",
"168 -16 OFFCURVE",
"192 28 CURVE SMOOTH",
"393 398 LINE",
"401 414 LINE",
"729 1043 LINE",
"733 1043 LINE",
"843 420 LINE",
"847 401 LINE",
"916 41 LINE SMOOTH",
"924 -3 OFFCURVE",
"944 -15 OFFCURVE",
"1004 -8 CURVE SMOOTH",
"1064 -1 OFFCURVE",
"1075 19 OFFCURVE",
"1066 63 CURVE SMOOTH",
"855 1144 LINE SMOOTH",
"846 1191 OFFCURVE",
"818 1209 OFFCURVE",
"755 1209 CURVE SMOOTH"
);
},
{
closed = 1;
nodes = (
"368 474 LINE",
"318 330 LINE",
"882 330 LINE",
"869 474 LINE"
);
},
{
closed = 1;
nodes = (
"509 1520 LINE SMOOTH",
"464 1520 OFFCURVE",
"442 1500 OFFCURVE",
"433 1448 CURVE SMOOTH",
"424 1396 OFFCURVE",
"439 1376 OFFCURVE",
"484 1376 CURVE SMOOTH",
"1046 1376 LINE SMOOTH",
"1091 1376 OFFCURVE",
"1112 1396 OFFCURVE",
"1121 1448 CURVE SMOOTH",
"1130 1500 OFFCURVE",
"1116 1520 OFFCURVE",
"1071 1520 CURVE SMOOTH"
);
}
);
width = 1228;
}
);
unicode = 0100;
},
{
color = 3;
glyphname = Aogonek;
lastChange = "2015-01-12 05:49:59 +0000";
layers = (
{
background = {
paths = (
{
closed = 1;
nodes = (
"869 474 LINE",
"368 474 LINE",
"326 417 LINE",
"318 330 LINE",
"882 330 LINE",
"897 386 LINE"
);
},
{
closed = 1;
nodes = (
"393 398 LINE",
"731 1043 LINE",
"843 420 LINE",
"921 15 LINE",
"1055 8 LINE",
"1070 20 OFFCURVE",
"1071 37 OFFCURVE",
"1066 63 CURVE SMOOTH",
"855 1144 LINE SMOOTH",
"846 1191 OFFCURVE",
"818 1209 OFFCURVE",
"755 1209 CURVE SMOOTH",
"692 1209 OFFCURVE",
"657 1191 OFFCURVE",
"631 1144 CURVE SMOOTH",
"54 91 LINE SMOOTH",
"30 47 OFFCURVE",
"38 23 OFFCURVE",
"87 0 CURVE SMOOTH",
"135 -23 OFFCURVE",
"168 -16 OFFCURVE",
"192 28 CURVE SMOOTH"
);
},
{
closed = 1;
nodes = (
"854 -336 OFFCURVE",
"829 -316 OFFCURVE",
"829 -277 CURVE SMOOTH",
"829 -204 OFFCURVE",
"900 -114 OFFCURVE",
"1055 8 CURVE",
"1040 33 LINE",
"926 39 LINE",
"766 -74 OFFCURVE",
"673 -186 OFFCURVE",
"673 -310 CURVE SMOOTH",
"673 -406 OFFCURVE",
"731 -472 OFFCURVE",
"838 -472 CURVE SMOOTH",
"902 -472 OFFCURVE",
"967 -460 OFFCURVE",
"1016 -443 CURVE SMOOTH",
"1047 -432 OFFCURVE",
"1057 -411 OFFCURVE",
"1052 -374 CURVE SMOOTH",
"1047 -337 OFFCURVE",
"1032 -322 OFFCURVE",
"1005 -326 CURVE SMOOTH",
"969 -332 OFFCURVE",
"933 -336 OFFCURVE",
"894 -336 CURVE SMOOTH"
);
}
);
};
layerId = UUID0;
name = "Regular Italic";
paths = (
{
closed = 1;
nodes = (
"692 1209 OFFCURVE",
"657 1191 OFFCURVE",
"631 1144 CURVE SMOOTH",
"54 91 LINE SMOOTH",
"30 47 OFFCURVE",
"38 23 OFFCURVE",
"87 0 CURVE SMOOTH",
"135 -23 OFFCURVE",
"168 -16 OFFCURVE",
"192 28 CURVE SMOOTH",
"356.059 330 LINE",
"860.333 330 LINE",
"917.537 32.979 LINE",
"762.725 -77.983 OFFCURVE",
"673 -188.203 OFFCURVE",
"673 -310 CURVE SMOOTH",
"673 -406 OFFCURVE",
"731 -472 OFFCURVE",
"838 -472 CURVE SMOOTH",
"902 -472 OFFCURVE",
"967 -460 OFFCURVE",
"1016 -443 CURVE SMOOTH",
"1047 -432 OFFCURVE",
"1057 -411 OFFCURVE",
"1052 -374 CURVE SMOOTH",
"1047 -337 OFFCURVE",
"1032 -322 OFFCURVE",
"1005 -326 CURVE SMOOTH",
"969 -332 OFFCURVE",
"933 -336 OFFCURVE",
"894 -336 CURVE SMOOTH",
"854 -336 OFFCURVE",
"829 -316 OFFCURVE",
"829 -277 CURVE SMOOTH",
"829 -204 OFFCURVE",
"900 -114 OFFCURVE",
"1055 8 CURVE SMOOTH",
"1070 20 OFFCURVE",
"1071 37 OFFCURVE",
"1066 63 CURVE SMOOTH",
"855 1144 LINE SMOOTH",
"846 1191 OFFCURVE",
"818 1209 OFFCURVE",
"755 1209 CURVE SMOOTH"
);
},
{
closed = 1;
nodes = (
"833.292 474 LINE",
"432.826 474 LINE",
"731 1043 LINE"
);
}
);
width = 1228;
}
);
unicode = 0104;
},
{
glyphname = Aring;
lastChange = "2015-01-14 05:27:16 +0000";
layers = (
{
layerId = UUID0;
name = "Regular Italic";
paths = (
{
closed = 1;
nodes = (
"692 1209 OFFCURVE",
"657 1191 OFFCURVE",
"631 1144 CURVE SMOOTH",
"54 91 LINE SMOOTH",
"30 47 OFFCURVE",
"38 23 OFFCURVE",
"87 0 CURVE SMOOTH",
"135 -23 OFFCURVE",
"168 -16 OFFCURVE",
"192 28 CURVE SMOOTH",
"393 398 LINE",
"401 414 LINE",
"729 1043 LINE",
"733 1043 LINE",
"843 420 LINE",
"847 401 LINE",
"916 41 LINE SMOOTH",
"924 -3 OFFCURVE",
"944 -15 OFFCURVE",
"1004 -8 CURVE SMOOTH",
"1064 -1 OFFCURVE",
"1075 19 OFFCURVE",
"1066 63 CURVE SMOOTH",
"855 1144 LINE SMOOTH",
"846 1191 OFFCURVE",
"818 1209 OFFCURVE",
"755 1209 CURVE SMOOTH"
);
},
{
closed = 1;
nodes = (
"368 474 LINE",
"318 330 LINE",
"882 330 LINE",
"869 474 LINE"
);
},
{
closed = 1;
nodes = (
"934 1305 OFFCURVE",
"1047 1446 OFFCURVE",
"1047 1582 CURVE SMOOTH",
"1047 1700 OFFCURVE",
"955 1797 OFFCURVE",
"833 1797 CURVE SMOOTH",
"665 1797 OFFCURVE",
"552 1653 OFFCURVE",
"552 1520 CURVE SMOOTH",
"552 1402 OFFCURVE",
"644 1305 OFFCURVE",
"766 1305 CURVE SMOOTH"
);
},
{
closed = 1;
nodes = (
"715 1425 OFFCURVE",
"672 1469 OFFCURVE",
"672 1528 CURVE SMOOTH",
"672 1608 OFFCURVE",
"744 1677 OFFCURVE",
"822 1677 CURVE SMOOTH",
"884 1677 OFFCURVE",
"928 1632 OFFCURVE",
"928 1573 CURVE SMOOTH",
"928 1493 OFFCURVE",
"853 1425 OFFCURVE",
"777 1425 CURVE SMOOTH"
);
}
);
width = 1228;
}
);
unicode = 00C5;
},
{
glyphname = Atilde;
lastChange = "2015-01-14 05:27:16 +0000";
layers = (
{
layerId = UUID0;
name = "Regular Italic";
paths = (
{
closed = 1;
nodes = (
"692 1209 OFFCURVE",
"657 1191 OFFCURVE",
"631 1144 CURVE SMOOTH",
"54 91 LINE SMOOTH",
"30 47 OFFCURVE",
"38 23 OFFCURVE",
"87 0 CURVE SMOOTH",
"135 -23 OFFCURVE",
"168 -16 OFFCURVE",
"192 28 CURVE SMOOTH",
"393 398 LINE",
"401 414 LINE",
"729 1043 LINE",
"733 1043 LINE",
"843 420 LINE",
"847 401 LINE",
"916 41 LINE SMOOTH",
"924 -3 OFFCURVE",
"944 -15 OFFCURVE",
"1004 -8 CURVE SMOOTH",
"1064 -1 OFFCURVE",
"1075 19 OFFCURVE",
"1066 63 CURVE SMOOTH",
"855 1144 LINE SMOOTH",
"846 1191 OFFCURVE",
"818 1209 OFFCURVE",
"755 1209 CURVE SMOOTH"
);
},
{
closed = 1;
nodes = (
"368 474 LINE",
"318 330 LINE",
"882 330 LINE",
"869 474 LINE"
);
},
{
closed = 1;
nodes = (
"582 1557 OFFCURVE",
"518 1532 OFFCURVE",
"439 1466 CURVE SMOOTH",
"418 1449 OFFCURVE",
"416 1421 OFFCURVE",
"433 1392 CURVE SMOOTH",
"450 1363 OFFCURVE",
"473 1354 OFFCURVE",
"495 1367 CURVE SMOOTH",
"542 1395 OFFCURVE",
"590 1409 OFFCURVE",
"630 1409 CURVE SMOOTH",
"720 1409 OFFCURVE",
"800 1346 OFFCURVE",
"899 1346 CURVE SMOOTH",
"956 1346 OFFCURVE",
"1020 1371 OFFCURVE",
"1099 1437 CURVE SMOOTH",
"1120 1454 OFFCURVE",
"1122 1482 OFFCURVE",
"1105 1511 CURVE SMOOTH",
"1088 1540 OFFCURVE",
"1065 1549 OFFCURVE",
"1043 1536 CURVE SMOOTH",
"996 1508 OFFCURVE",
"948 1494 OFFCURVE",
"908 1494 CURVE SMOOTH",
"818 1494 OFFCURVE",
"738 1557 OFFCURVE",
"639 1557 CURVE SMOOTH"
);
}
);
width = 1228;
}
);
unicode = 00C3;
},
{
glyphname = AE;
lastChange = "2015-01-12 05:49:59 +0000";
layers = (
{
background = {
paths = (
{
closed = 1;
nodes = (
"1037 0 LINE SMOOTH",
"1082 0 OFFCURVE",
"1103 20 OFFCURVE",
"1112 72 CURVE SMOOTH",
"1121 124 OFFCURVE",
"1107 144 OFFCURVE",
"1062 144 CURVE SMOOTH",
"680 144 LINE",
"750 540 LINE",
"1067 540 LINE SMOOTH",
"1112 540 OFFCURVE",
"1133 560 OFFCURVE",
"1142 612 CURVE SMOOTH",
"1152 664 OFFCURVE",
"1137 684 OFFCURVE",
"1092 684 CURVE SMOOTH",
"775 684 LINE",
"838 1043 LINE",
"1200 1043 LINE SMOOTH",
"1245 1043 OFFCURVE",
"1267 1063 OFFCURVE",
"1276 1115 CURVE SMOOTH",
"1285 1167 OFFCURVE",
"1271 1187 OFFCURVE",
"1226 1187 CURVE SMOOTH",
"775 1187 LINE",
"702 1119 LINE",
"516 68 LINE SMOOTH",
"507 18 OFFCURVE",
"525 0 OFFCURVE",
"570 0 CURVE SMOOTH"
);
},
{
closed = 1;
nodes = (
"649 514 LINE",
"298 514 LINE",
"256 457 LINE",
"248 370 LINE",
"612 370 LINE"
);
},
{
closed = 1;
nodes = (
"658 1187 LINE SMOOTH",
"613 1187 OFFCURVE",
"585 1169 OFFCURVE",
"557 1119 CURVE",
"-26 91 LINE SMOOTH",
"-51 47 OFFCURVE",
"-43 22 OFFCURVE",
"4 0 CURVE SMOOTH",
"52 -23 OFFCURVE",
"85 -16 OFFCURVE",
"110 28 CURVE SMOOTH",
"319 398 LINE",
"669 1043 LINE",
"744 1043 LINE",
"805 1187 LINE"
);
}
);
};
layerId = UUID0;
name = "Regular Italic";
paths = (
{
closed = 1;
nodes = (
"658 1187 LINE SMOOTH",
"613 1187 OFFCURVE",
"585 1169 OFFCURVE",
"557 1119 CURVE SMOOTH",
"-26 91 LINE SMOOTH",
"-51 47 OFFCURVE",
"-43 22 OFFCURVE",
"4 0 CURVE SMOOTH",
"52 -23 OFFCURVE",
"85 -16 OFFCURVE",
"110 28 CURVE SMOOTH",
"319 398 LINE",
"346 448 LINE",
"669 1043 LINE",
"688.55 1043 LINE",
"516 68 LINE SMOOTH",
"507 18 OFFCURVE",
"525 0 OFFCURVE",
"570 0 CURVE SMOOTH",
"1037 0 LINE SMOOTH",
"1082 0 OFFCURVE",
"1103 20 OFFCURVE",
"1112 72 CURVE SMOOTH",
"1121 124 OFFCURVE",
"1107 144 OFFCURVE",
"1062 144 CURVE SMOOTH",
"680 144 LINE",
"750 540 LINE",
"1067 540 LINE SMOOTH",
"1112 540 OFFCURVE",
"1133 560 OFFCURVE",
"1142 612 CURVE SMOOTH",
"1152 664 OFFCURVE",
"1137 684 OFFCURVE",
"1092 684 CURVE SMOOTH",
"775 684 LINE",
"838 1043 LINE",
"1200 1043 LINE SMOOTH",
"1245 1043 OFFCURVE",
"1267 1063 OFFCURVE",
"1276 1115 CURVE SMOOTH",
"1285 1167 OFFCURVE",
"1271 1187 OFFCURVE",
"1226 1187 CURVE SMOOTH"
);
},
{
closed = 1;
nodes = (
"298 514 LINE",
"248 370 LINE",
"612 370 LINE",
"649 514 LINE"
);
}
);
width = 1228;
}
);
unicode = 00C6;
},
{
glyphname = B;
lastChange = "2015-01-14 04:03:31 +0000";
layers = (
{
layerId = UUID0;
name = "Regular Italic";
paths = (
{
closed = 1;
nodes = (
"405 1187 LINE SMOOTH",
"360 1187 OFFCURVE",
"341 1169 OFFCURVE",
"332 1119 CURVE SMOOTH",
"146 68 LINE SMOOTH",
"137 18 OFFCURVE",
"155 0 OFFCURVE",
"200 0 CURVE SMOOTH",
"630 0 LINE SMOOTH",
"928 0 OFFCURVE",
"1066 173 OFFCURVE",
"1066 366 CURVE SMOOTH",
"1066 485 OFFCURVE",
"1010 573 OFFCURVE",
"909 612 CURVE",
"1023 673 OFFCURVE",
"1094 764 OFFCURVE",
"1094 914 CURVE SMOOTH",
"1094 1076 OFFCURVE",
"991 1187 OFFCURVE",
"777 1187 CURVE SMOOTH"
);
},
{
closed = 1;
nodes = (
"840 531 OFFCURVE",
"909 476 OFFCURVE",
"909 368 CURVE SMOOTH",
"909 221 OFFCURVE",
"796 144 OFFCURVE",
"620 144 CURVE SMOOTH",
"310 144 LINE",
"378 531 LINE",
"701 531 LINE SMOOTH"
);
},
{
closed = 1;
nodes = (
"885 1043 OFFCURVE",
"941 994 OFFCURVE",
"941 897 CURVE SMOOTH",
"941 764 OFFCURVE",
"844 675 OFFCURVE",
"672 675 CURVE SMOOTH",
"404 675 LINE",
"468 1043 LINE",
"747 1043 LINE SMOOTH"
);
}
);
width = 1228;
}
);
unicode = 0042;
},
{
glyphname = C;
lastChange = "2015-01-12 05:49:59 +0000";
layers = (
{
layerId = UUID0;
name = "Regular Italic";
paths = (
{
closed = 1;
nodes = (
"415 1209 OFFCURVE",
"170 840 OFFCURVE",
"170 453 CURVE SMOOTH",
"170 166 OFFCURVE",
"333 -22 OFFCURVE",
"603 -22 CURVE SMOOTH",
"742 -22 OFFCURVE",
"875 14 OFFCURVE",
"1001 86 CURVE SMOOTH",
"1041 109 OFFCURVE",
"1046 141 OFFCURVE",
"1023 187 CURVE SMOOTH",
"999 234 OFFCURVE",
"965 242 OFFCURVE",
"934 222 CURVE SMOOTH",
"840 161 OFFCURVE",
"726 126 OFFCURVE",
"614 126 CURVE SMOOTH",
"432 126 OFFCURVE",
"324 251 OFFCURVE",
"324 461 CURVE SMOOTH",
"324 755 OFFCURVE",
"500 1061 OFFCURVE",
"789 1061 CURVE SMOOTH",
"887 1061 OFFCURVE",
"991 1034 OFFCURVE",
"1072 980 CURVE SMOOTH",
"1102 960 OFFCURVE",
"1137 968 OFFCURVE",
"1161 1015 CURVE SMOOTH",
"1184 1061 OFFCURVE",
"1179 1093 OFFCURVE",
"1139 1116 CURVE SMOOTH",
"1031 1179 OFFCURVE",
"918 1209 OFFCURVE",
"800 1209 CURVE SMOOTH"
);
}
);
width = 1228;
}
);
unicode = 0043;
},
{
glyphname = Cacute;
lastChange = "2015-01-14 05:27:16 +0000";
layers = (
{
layerId = UUID0;
name = "Regular Italic";
paths = (
{
closed = 1;
nodes = (
"415 1209 OFFCURVE",
"170 840 OFFCURVE",
"170 453 CURVE SMOOTH",
"170 166 OFFCURVE",
"333 -22 OFFCURVE",
"603 -22 CURVE SMOOTH",
"742 -22 OFFCURVE",
"875 14 OFFCURVE",
"1001 86 CURVE SMOOTH",
"1041 109 OFFCURVE",
"1046 141 OFFCURVE",
"1023 187 CURVE SMOOTH",
"999 234 OFFCURVE",
"965 242 OFFCURVE",
"934 222 CURVE SMOOTH",
"840 161 OFFCURVE",
"726 126 OFFCURVE",
"614 126 CURVE SMOOTH",
"432 126 OFFCURVE",
"324 251 OFFCURVE",
"324 461 CURVE SMOOTH",
"324 755 OFFCURVE",
"500 1061 OFFCURVE",
"789 1061 CURVE SMOOTH",
"887 1061 OFFCURVE",
"991 1034 OFFCURVE",
"1072 980 CURVE SMOOTH",
"1102 960 OFFCURVE",
"1137 968 OFFCURVE",
"1161 1015 CURVE SMOOTH",
"1184 1061 OFFCURVE",
"1179 1093 OFFCURVE",
"1139 1116 CURVE SMOOTH",
"1031 1179 OFFCURVE",
"918 1209 OFFCURVE",
"800 1209 CURVE SMOOTH"
);
},
{
closed = 1;
nodes = (
"614 1403 LINE SMOOTH",
"591 1390 OFFCURVE",
"586 1364 OFFCURVE",
"595 1341 CURVE SMOOTH",
"604 1318 OFFCURVE",
"625 1301 OFFCURVE",
"650 1309 CURVE SMOOTH",
"1131 1472 LINE SMOOTH",
"1158 1481 OFFCURVE",
"1170 1508 OFFCURVE",
"1131 1579 CURVE SMOOTH",
"1089 1654 OFFCURVE",
"1064 1652 OFFCURVE",
"1030 1633 CURVE SMOOTH"
);
}
);
width = 1228;
}
);
unicode = 0106;
},
{
glyphname = Ccaron;
lastChange = "2015-01-14 05:27:15 +0000";
layers = (
{
layerId = UUID0;
name = "Regular Italic";
paths = (
{
closed = 1;
nodes = (
"415 1209 OFFCURVE",
"170 840 OFFCURVE",
"170 453 CURVE SMOOTH",
"170 166 OFFCURVE",
"333 -22 OFFCURVE",
"603 -22 CURVE SMOOTH",
"742 -22 OFFCURVE",
"875 14 OFFCURVE",
"1001 86 CURVE SMOOTH",
"1041 109 OFFCURVE",
"1046 141 OFFCURVE",
"1023 187 CURVE SMOOTH",
"999 234 OFFCURVE",
"965 242 OFFCURVE",
"934 222 CURVE SMOOTH",
"840 161 OFFCURVE",
"726 126 OFFCURVE",
"614 126 CURVE SMOOTH",
"432 126 OFFCURVE",
"324 251 OFFCURVE",
"324 461 CURVE SMOOTH",
"324 755 OFFCURVE",
"500 1061 OFFCURVE",
"789 1061 CURVE SMOOTH",
"887 1061 OFFCURVE",
"991 1034 OFFCURVE",
"1072 980 CURVE SMOOTH",
"1102 960 OFFCURVE",
"1137 968 OFFCURVE",
"1161 1015 CURVE SMOOTH",
"1184 1061 OFFCURVE",
"1179 1093 OFFCURVE",
"1139 1116 CURVE SMOOTH",
"1031 1179 OFFCURVE",
"918 1209 OFFCURVE",
"800 1209 CURVE SMOOTH"
);
},
{
closed = 1;
nodes = (
"819 1485 LINE",
"567 1644 LINE SMOOTH",
"546 1658 OFFCURVE",
"522 1644 OFFCURVE",
"508 1623 CURVE SMOOTH",
"495 1602 OFFCURVE",
"491 1574 OFFCURVE",
"508 1557 CURVE SMOOTH",
"754 1325 LINE SMOOTH",
"767 1313 OFFCURVE",
"785 1307 OFFCURVE",
"806 1307 CURVE SMOOTH",
"827 1307 OFFCURVE",
"847 1313 OFFCURVE",
"864 1325 CURVE SMOOTH",
"1172 1557 LINE SMOOTH",
"1195 1574 OFFCURVE",
"1197 1601 OFFCURVE",
"1186 1622 CURVE SMOOTH",
"1175 1643 OFFCURVE",
"1151 1657 OFFCURVE",
"1125 1644 CURVE SMOOTH"
);
}
);
width = 1228;
}
);
unicode = 010C;
},
{
color = 6;
glyphname = Ccedilla;
lastChange = "2015-01-14 05:27:16 +0000";
layers = (
{
layerId = UUID0;
name = "Regular Italic";
paths = (
{
closed = 1;
nodes = (
"415 1209 OFFCURVE",
"170 840 OFFCURVE",
"170 453 CURVE SMOOTH",
"170 166 OFFCURVE",
"333 -22 OFFCURVE",
"603 -22 CURVE SMOOTH",
"742 -22 OFFCURVE",
"875 14 OFFCURVE",
"1001 86 CURVE SMOOTH",
"1041 109 OFFCURVE",
"1046 141 OFFCURVE",
"1023 187 CURVE SMOOTH",
"999 234 OFFCURVE",
"965 242 OFFCURVE",
"934 222 CURVE SMOOTH",
"840 161 OFFCURVE",
"726 126 OFFCURVE",
"614 126 CURVE SMOOTH",
"432 126 OFFCURVE",
"324 251 OFFCURVE",
"324 461 CURVE SMOOTH",
"324 755 OFFCURVE",
"500 1061 OFFCURVE",
"789 1061 CURVE SMOOTH",
"887 1061 OFFCURVE",
"991 1034 OFFCURVE",
"1072 980 CURVE SMOOTH",
"1102 960 OFFCURVE",
"1137 968 OFFCURVE",
"1161 1015 CURVE SMOOTH",
"1184 1061 OFFCURVE",
"1179 1093 OFFCURVE",
"1139 1116 CURVE SMOOTH",
"1031 1179 OFFCURVE",
"918 1209 OFFCURVE",
"800 1209 CURVE SMOOTH"
);
},
{
closed = 1;
nodes = (
"513 28 LINE",
"478 -175 LINE SMOOTH",
"471 -213 OFFCURVE",
"491 -218 OFFCURVE",
"510 -217 CURVE SMOOTH",
"595 -212 OFFCURVE",
"644 -226 OFFCURVE",
"644 -271 CURVE SMOOTH",
"644 -317 OFFCURVE",
"608 -352 OFFCURVE",
"528 -352 CURVE SMOOTH",
"461 -352 OFFCURVE",
"390 -338 OFFCURVE",
"341 -318 CURVE SMOOTH",
"319 -309 OFFCURVE",
"295 -329 OFFCURVE",
"282 -354 CURVE SMOOTH",
"268 -380 OFFCURVE",
"266 -412 OFFCURVE",
"289 -424 CURVE SMOOTH",
"352 -456 OFFCURVE",
"438 -472 OFFCURVE",
"527 -472 CURVE SMOOTH",
"631 -472 OFFCURVE",
"703 -445 OFFCURVE",
"747 -398 CURVE SMOOTH",
"784 -359 OFFCURVE",
"801 -299 OFFCURVE",
"801 -258 CURVE SMOOTH",
"801 -178 OFFCURVE",
"746 -111 OFFCURVE",
"623 -114 CURVE",
"648 28 LINE"
);
}
);
width = 1228;
}
);
unicode = 00C7;
},
{
glyphname = Ccircumflex;
lastChange = "2015-01-14 05:27:16 +0000";
layers = (
{
layerId = UUID0;
name = "Regular Italic";
paths = (
{
closed = 1;
nodes = (
"415 1209 OFFCURVE",
"170 840 OFFCURVE",
"170 453 CURVE SMOOTH",
"170 166 OFFCURVE",
"333 -22 OFFCURVE",
"603 -22 CURVE SMOOTH",
"742 -22 OFFCURVE",
"875 14 OFFCURVE",
"1001 86 CURVE SMOOTH",
"1041 109 OFFCURVE",
"1046 141 OFFCURVE",
"1023 187 CURVE SMOOTH",
"999 234 OFFCURVE",
"965 242 OFFCURVE",
"934 222 CURVE SMOOTH",
"840 161 OFFCURVE",
"726 126 OFFCURVE",
"614 126 CURVE SMOOTH",
"432 126 OFFCURVE",
"324 251 OFFCURVE",
"324 461 CURVE SMOOTH",
"324 755 OFFCURVE",
"500 1061 OFFCURVE",
"789 1061 CURVE SMOOTH",
"887 1061 OFFCURVE",
"991 1034 OFFCURVE",
"1072 980 CURVE SMOOTH",
"1102 960 OFFCURVE",
"1137 968 OFFCURVE",
"1161 1015 CURVE SMOOTH",
"1184 1061 OFFCURVE",
"1179 1093 OFFCURVE",
"1139 1116 CURVE SMOOTH",
"1031 1179 OFFCURVE",
"918 1209 OFFCURVE",
"800 1209 CURVE SMOOTH"
);
},
{
closed = 1;
nodes = (
"853 1468 LINE",
"1105 1309 LINE SMOOTH",
"1126 1295 OFFCURVE",
"1150 1309 OFFCURVE",
"1164 1330 CURVE SMOOTH",
"1177 1351 OFFCURVE",
"1181 1379 OFFCURVE",
"1164 1396 CURVE SMOOTH",
"918 1628 LINE SMOOTH",
"905 1640 OFFCURVE",
"887 1646 OFFCURVE",
"866 1646 CURVE SMOOTH",
"845 1646 OFFCURVE",
"825 1640 OFFCURVE",
"808 1628 CURVE SMOOTH",
"500 1396 LINE SMOOTH",
"477 1379 OFFCURVE",
"475 1352 OFFCURVE",
"486 1331 CURVE SMOOTH",
"497 1310 OFFCURVE",
"521 1296 OFFCURVE",
"547 1309 CURVE SMOOTH"
);
}
);
width = 1228;
}
);
unicode = 0108;
},
{
glyphname = Cdotaccent;
lastChange = "2015-01-14 05:27:16 +0000";
layers = (
{
layerId = UUID0;
name = "Regular Italic";
paths = (
{
closed = 1;
nodes = (
"415 1209 OFFCURVE",
"170 840 OFFCURVE",
"170 453 CURVE SMOOTH",
"170 166 OFFCURVE",
"333 -22 OFFCURVE",
"603 -22 CURVE SMOOTH",
"742 -22 OFFCURVE",
"875 14 OFFCURVE",
"1001 86 CURVE SMOOTH",
"1041 109 OFFCURVE",
"1046 141 OFFCURVE",
"1023 187 CURVE SMOOTH",
"999 234 OFFCURVE",
"965 242 OFFCURVE",
"934 222 CURVE SMOOTH",
"840 161 OFFCURVE",
"726 126 OFFCURVE",
"614 126 CURVE SMOOTH",
"432 126 OFFCURVE",
"324 251 OFFCURVE",
"324 461 CURVE SMOOTH",
"324 755 OFFCURVE",
"500 1061 OFFCURVE",
"789 1061 CURVE SMOOTH",
"887 1061 OFFCURVE",
"991 1034 OFFCURVE",
"1072 980 CURVE SMOOTH",
"1102 960 OFFCURVE",
"1137 968 OFFCURVE",
"1161 1015 CURVE SMOOTH",
"1184 1061 OFFCURVE",
"1179 1093 OFFCURVE",
"1139 1116 CURVE SMOOTH",
"1031 1179 OFFCURVE",
"918 1209 OFFCURVE",
"800 1209 CURVE SMOOTH"
);
},
{
closed = 1;
nodes = (
"892 1349 OFFCURVE",
"971 1421 OFFCURVE",
"971 1511 CURVE SMOOTH",
"971 1576 OFFCURVE",
"921 1631 OFFCURVE",
"850 1631 CURVE SMOOTH",
"766 1631 OFFCURVE",
"685 1559 OFFCURVE",
"685 1470 CURVE SMOOTH",
"685 1403 OFFCURVE",
"736 1349 OFFCURVE",
"807 1349 CURVE SMOOTH"
);
}
);
width = 1228;
}
);
unicode = 010A;
},
{
glyphname = D;
lastChange = "2015-01-12 05:49:59 +0000";
layers = (
{
background = {
paths = (
{
closed = 1;
nodes = (
"375 1187 LINE SMOOTH",
"330 1187 OFFCURVE",
"311 1169 OFFCURVE",
"302 1119 CURVE SMOOTH",
"116 68 LINE SMOOTH",
"107 18 OFFCURVE",
"125 0 OFFCURVE",
"170 0 CURVE SMOOTH",
"522 0 LINE SMOOTH",
"731 0 OFFCURVE",
"878 90 OFFCURVE",
"976 213 CURVE SMOOTH",
"1098 366 OFFCURVE",
"1146 571 OFFCURVE",
"1146 724 CURVE SMOOTH",
"1146 1011 OFFCURVE",
"974 1187 OFFCURVE",
"701 1187 CURVE SMOOTH"
);
},
{
closed = 1;
nodes = (
"869 1043 OFFCURVE",
"993 936 OFFCURVE",
"993 719 CURVE SMOOTH",
"993 592 OFFCURVE",
"956 432 OFFCURVE",
"864 313 CURVE SMOOTH",
"788 214 OFFCURVE",
"673 144 OFFCURVE",
"510 144 CURVE SMOOTH",
"280 144 LINE",
"438 1043 LINE",
"668 1043 LINE SMOOTH"
);
}
);
};
layerId = UUID0;
name = "Regular Italic";
paths = (
{
closed = 1;
nodes = (
"375 1187 LINE SMOOTH",
"330 1187 OFFCURVE",
"311 1169 OFFCURVE",
"302 1119 CURVE SMOOTH",
"116 68 LINE SMOOTH",
"107 18 OFFCURVE",
"125 0 OFFCURVE",
"170 0 CURVE SMOOTH",
"522 0 LINE SMOOTH",
"731 0 OFFCURVE",
"878 90 OFFCURVE",
"976 213 CURVE SMOOTH",
"1098 366 OFFCURVE",
"1146 571 OFFCURVE",
"1146 724 CURVE SMOOTH",
"1146 1011 OFFCURVE",
"974 1187 OFFCURVE",
"701 1187 CURVE SMOOTH"
);
},
{
closed = 1;
nodes = (
"869 1043 OFFCURVE",
"993 936 OFFCURVE",
"993 719 CURVE SMOOTH",
"993 592 OFFCURVE",
"956 432 OFFCURVE",
"864 313 CURVE SMOOTH",
"788 214 OFFCURVE",
"673 144 OFFCURVE",
"510 144 CURVE SMOOTH",
"280 144 LINE",
"438 1043 LINE",
"668 1043 LINE SMOOTH"
);
}
);
width = 1228;
}
);
unicode = 0044;
},
{
color = 6;
glyphname = Eth;
lastChange = "2015-01-12 05:49:59 +0000";
layers = (
{
background = {
paths = (
{
closed = 1;
nodes = (
"425 1187 LINE SMOOTH",
"380 1187 OFFCURVE",
"361 1169 OFFCURVE",
"352 1119 CURVE SMOOTH",
"166 68 LINE SMOOTH",
"157 18 OFFCURVE",
"175 0 OFFCURVE",
"220 0 CURVE SMOOTH",
"542 0 LINE SMOOTH",
"1009 0 OFFCURVE",
"1166 447 OFFCURVE",
"1166 724 CURVE SMOOTH",
"1166 1011 OFFCURVE",
"994 1187 OFFCURVE",
"721 1187 CURVE SMOOTH"
);
},
{
closed = 1;
nodes = (
"889 1043 OFFCURVE",
"1013 936 OFFCURVE",
"1013 719 CURVE SMOOTH",
"1013 487 OFFCURVE",
"890 144 OFFCURVE",
"530 144 CURVE SMOOTH",
"330 144 LINE",
"488 1043 LINE",
"688 1043 LINE SMOOTH"
);
}
);
};
layerId = UUID0;
name = "Regular Italic";
paths = (
{
closed = 1;
nodes = (
"163 684 LINE SMOOTH",
"118 684 OFFCURVE",
"96 664 OFFCURVE",
"87 612 CURVE SMOOTH",
"78 560 OFFCURVE",
"92 540 OFFCURVE",
"137 540 CURVE SMOOTH",
"619 540 LINE SMOOTH",
"664 540 OFFCURVE",
"686 560 OFFCURVE",
"695 612 CURVE SMOOTH",
"704 664 OFFCURVE",
"690 684 OFFCURVE",
"645 684 CURVE SMOOTH"
);
},
{
closed = 1;
nodes = (
"425 1187 LINE SMOOTH",
"380 1187 OFFCURVE",
"361 1169 OFFCURVE",
"352 1119 CURVE SMOOTH",
"166 68 LINE SMOOTH",
"157 18 OFFCURVE",
"175 0 OFFCURVE",
"220 0 CURVE SMOOTH",
"522 0 LINE SMOOTH",
"731 0 OFFCURVE",
"878 90 OFFCURVE",
"976 213 CURVE SMOOTH",
"1098 366 OFFCURVE",
"1146 571 OFFCURVE",
"1146 724 CURVE SMOOTH",
"1146 1011 OFFCURVE",
"974 1187 OFFCURVE",
"701 1187 CURVE SMOOTH"
);
},
{
closed = 1;
nodes = (
"869 1043 OFFCURVE",
"993 936 OFFCURVE",
"993 719 CURVE SMOOTH",
"993 592 OFFCURVE",
"956 432 OFFCURVE",
"864 313 CURVE SMOOTH",
"788 214 OFFCURVE",
"673 144 OFFCURVE",
"510 144 CURVE SMOOTH",
"330 144 LINE",
"488 1043 LINE",
"668 1043 LINE SMOOTH"
);
}
);
width = 1228;
}
);
unicode = 00D0;
},
{
glyphname = Dcaron;
lastChange = "2015-01-14 05:27:16 +0000";
layers = (
{
layerId = UUID0;
name = "Regular Italic";
paths = (
{
closed = 1;
nodes = (
"375 1187 LINE SMOOTH",
"330 1187 OFFCURVE",
"311 1169 OFFCURVE",
"302 1119 CURVE SMOOTH",
"116 68 LINE SMOOTH",
"107 18 OFFCURVE",
"125 0 OFFCURVE",
"170 0 CURVE SMOOTH",
"522 0 LINE SMOOTH",
"731 0 OFFCURVE",
"878 90 OFFCURVE",
"976 213 CURVE SMOOTH",
"1098 366 OFFCURVE",
"1146 571 OFFCURVE",
"1146 724 CURVE SMOOTH",
"1146 1011 OFFCURVE",
"974 1187 OFFCURVE",
"701 1187 CURVE SMOOTH"
);
},
{
closed = 1;
nodes = (
"869 1043 OFFCURVE",
"993 936 OFFCURVE",
"993 719 CURVE SMOOTH",
"993 592 OFFCURVE",
"956 432 OFFCURVE",
"864 313 CURVE SMOOTH",
"788 214 OFFCURVE",
"673 144 OFFCURVE",
"510 144 CURVE SMOOTH",
"280 144 LINE",
"438 1043 LINE",
"668 1043 LINE SMOOTH"
);
},
{
closed = 1;
nodes = (
"729 1475 LINE",
"477 1634 LINE SMOOTH",
"456 1648 OFFCURVE",
"432 1634 OFFCURVE",
"418 1613 CURVE SMOOTH",
"405 1592 OFFCURVE",
"401 1564 OFFCURVE",
"418 1547 CURVE SMOOTH",
"664 1315 LINE SMOOTH",
"677 1303 OFFCURVE",
"695 1297 OFFCURVE",
"716 1297 CURVE SMOOTH",
"737 1297 OFFCURVE",
"757 1303 OFFCURVE",
"774 1315 CURVE SMOOTH",
"1082 1547 LINE SMOOTH",
"1105 1564 OFFCURVE",
"1107 1591 OFFCURVE",
"1096 1612 CURVE SMOOTH",
"1085 1633 OFFCURVE",
"1061 1647 OFFCURVE",
"1035 1634 CURVE SMOOTH"
);
}
);
width = 1228;
}
);
unicode = 010E;
},
{
glyphname = Dcroat;
lastChange = "2015-01-14 05:27:16 +0000";
layers = (
{
layerId = UUID0;
name = "Regular Italic";
paths = (
{
closed = 1;
nodes = (
"375 1187 LINE SMOOTH",
"330 1187 OFFCURVE",
"311 1169 OFFCURVE",
"302 1119 CURVE SMOOTH",
"116 68 LINE SMOOTH",
"107 18 OFFCURVE",
"125 0 OFFCURVE",
"170 0 CURVE SMOOTH",
"522 0 LINE SMOOTH",
"731 0 OFFCURVE",
"878 90 OFFCURVE",
"976 213 CURVE SMOOTH",
"1098 366 OFFCURVE",
"1146 571 OFFCURVE",
"1146 724 CURVE SMOOTH",
"1146 1011 OFFCURVE",
"974 1187 OFFCURVE",
"701 1187 CURVE SMOOTH"
);
},
{
closed = 1;
nodes = (
"869 1043 OFFCURVE",
"993 936 OFFCURVE",
"993 719 CURVE SMOOTH",
"993 592 OFFCURVE",
"956 432 OFFCURVE",
"864 313 CURVE SMOOTH",
"788 214 OFFCURVE",
"673 144 OFFCURVE",
"510 144 CURVE SMOOTH",
"280 144 LINE",
"438 1043 LINE",
"668 1043 LINE SMOOTH"
);
},
{
closed = 1;
nodes = (
"483 1520 LINE SMOOTH",
"438 1520 OFFCURVE",
"416 1500 OFFCURVE",
"407 1448 CURVE SMOOTH",
"398 1396 OFFCURVE",
"413 1376 OFFCURVE",
"458 1376 CURVE SMOOTH",
"1020 1376 LINE SMOOTH",
"1065 1376 OFFCURVE",
"1086 1396 OFFCURVE",
"1095 1448 CURVE SMOOTH",
"1104 1500 OFFCURVE",
"1090 1520 OFFCURVE",
"1045 1520 CURVE SMOOTH"
);
}
);
width = 1228;
}
);
unicode = 0110;
},
{
glyphname = E;
lastChange = "2015-01-12 05:49:59 +0000";
layers = (
{
layerId = UUID0;
name = "Regular Italic";
paths = (
{
closed = 1;
nodes = (
"425 1187 LINE SMOOTH",
"380 1187 OFFCURVE",
"361 1169 OFFCURVE",
"352 1119 CURVE SMOOTH",
"166 68 LINE SMOOTH",
"157 18 OFFCURVE",
"175 0 OFFCURVE",
"220 0 CURVE SMOOTH",
"907 0 LINE SMOOTH",
"952 0 OFFCURVE",
"973 20 OFFCURVE",
"982 72 CURVE SMOOTH",
"991 124 OFFCURVE",
"977 144 OFFCURVE",
"932 144 CURVE SMOOTH",
"330 144 LINE",
"488 1043 LINE",
"1070 1043 LINE SMOOTH",
"1115 1043 OFFCURVE",
"1137 1063 OFFCURVE",
"1146 1115 CURVE SMOOTH",
"1155 1167 OFFCURVE",
"1141 1187 OFFCURVE",
"1096 1187 CURVE SMOOTH"
);
},
{
closed = 1;
nodes = (
"379 684 LINE",
"354 540 LINE",
"857 540 LINE SMOOTH",
"902 540 OFFCURVE",
"923 560 OFFCURVE",
"932 612 CURVE SMOOTH",
"942 664 OFFCURVE",
"927 684 OFFCURVE",
"882 684 CURVE SMOOTH"
);
}
);
width = 1228;
}
);
unicode = 0045;
},
{
glyphname = Eacute;
lastChange = "2015-01-14 05:27:16 +0000";
layers = (
{
layerId = UUID0;
name = "Regular Italic";
paths = (
{
closed = 1;
nodes = (
"425 1187 LINE SMOOTH",
"380 1187 OFFCURVE",
"361 1169 OFFCURVE",
"352 1119 CURVE SMOOTH",
"166 68 LINE SMOOTH",
"157 18 OFFCURVE",
"175 0 OFFCURVE",
"220 0 CURVE SMOOTH",
"907 0 LINE SMOOTH",
"952 0 OFFCURVE",
"973 20 OFFCURVE",
"982 72 CURVE SMOOTH",
"991 124 OFFCURVE",
"977 144 OFFCURVE",
"932 144 CURVE SMOOTH",
"330 144 LINE",
"488 1043 LINE",
"1070 1043 LINE SMOOTH",
"1115 1043 OFFCURVE",
"1137 1063 OFFCURVE",
"1146 1115 CURVE SMOOTH",
"1155 1167 OFFCURVE",
"1141 1187 OFFCURVE",
"1096 1187 CURVE SMOOTH"
);
},
{
closed = 1;
nodes = (
"379 684 LINE",
"354 540 LINE",
"857 540 LINE SMOOTH",
"902 540 OFFCURVE",
"923 560 OFFCURVE",
"932 612 CURVE SMOOTH",
"942 664 OFFCURVE",
"927 684 OFFCURVE",
"882 684 CURVE SMOOTH"
);
},
{
closed = 1;
nodes = (
"560 1403 LINE SMOOTH",
"537 1390 OFFCURVE",
"532 1364 OFFCURVE",
"541 1341 CURVE SMOOTH",
"550 1318 OFFCURVE",
"571 1301 OFFCURVE",
"596 1309 CURVE SMOOTH",
"1077 1472 LINE SMOOTH",
"1104 1481 OFFCURVE",
"1116 1508 OFFCURVE",
"1077 1579 CURVE SMOOTH",
"1035 1654 OFFCURVE",
"1010 1652 OFFCURVE",
"976 1633 CURVE SMOOTH"
);
}
);
width = 1228;
}
);
unicode = 00C9;
},
{
glyphname = Ebreve;
lastChange = "2015-01-14 05:27:16 +0000";
layers = (
{
layerId = UUID0;
name = "Regular Italic";
paths = (
{
closed = 1;
nodes = (
"425 1187 LINE SMOOTH",
"380 1187 OFFCURVE",
"361 1169 OFFCURVE",
"352 1119 CURVE SMOOTH",
"166 68 LINE SMOOTH",
"157 18 OFFCURVE",
"175 0 OFFCURVE",
"220 0 CURVE SMOOTH",
"907 0 LINE SMOOTH",
"952 0 OFFCURVE",
"973 20 OFFCURVE",
"982 72 CURVE SMOOTH",
"991 124 OFFCURVE",
"977 144 OFFCURVE",
"932 144 CURVE SMOOTH",
"330 144 LINE",
"488 1043 LINE",
"1070 1043 LINE SMOOTH",
"1115 1043 OFFCURVE",
"1137 1063 OFFCURVE",
"1146 1115 CURVE SMOOTH",
"1155 1167 OFFCURVE",
"1141 1187 OFFCURVE",
"1096 1187 CURVE SMOOTH"
);
},
{
closed = 1;
nodes = (
"379 684 LINE",
"354 540 LINE",
"857 540 LINE SMOOTH",
"902 540 OFFCURVE",
"923 560 OFFCURVE",
"932 612 CURVE SMOOTH",
"942 664 OFFCURVE",
"927 684 OFFCURVE",
"882 684 CURVE SMOOTH"
);
},
{
closed = 1;
nodes = (
"1124 1633 OFFCURVE",
"1089 1631 OFFCURVE",
"1073 1608 CURVE SMOOTH",
"1012 1518 OFFCURVE",
"922 1485 OFFCURVE",
"786 1485 CURVE SMOOTH",
"650 1485 OFFCURVE",
"570 1518 OFFCURVE",
"535 1608 CURVE SMOOTH",
"527 1629 OFFCURVE",
"498 1632 OFFCURVE",
"473 1622 CURVE SMOOTH",
"449 1613 OFFCURVE",
"428 1593 OFFCURVE",
"430 1568 CURVE SMOOTH",
"444 1430 OFFCURVE",
"568 1341 OFFCURVE",
"775 1341 CURVE SMOOTH",
"982 1341 OFFCURVE",
"1127 1430 OFFCURVE",
"1184 1568 CURVE SMOOTH",
"1194 1592 OFFCURVE",
"1176 1612 OFFCURVE",
"1151 1622 CURVE SMOOTH"
);
}
);
width = 1228;
}
);
unicode = 0114;
},
{
glyphname = Ecaron;
lastChange = "2015-01-14 05:27:15 +0000";
layers = (
{
layerId = UUID0;
name = "Regular Italic";
paths = (
{
closed = 1;
nodes = (
"425 1187 LINE SMOOTH",
"380 1187 OFFCURVE",
"361 1169 OFFCURVE",
"352 1119 CURVE SMOOTH",
"166 68 LINE SMOOTH",
"157 18 OFFCURVE",
"175 0 OFFCURVE",
"220 0 CURVE SMOOTH",
"907 0 LINE SMOOTH",
"952 0 OFFCURVE",
"973 20 OFFCURVE",
"982 72 CURVE SMOOTH",
"991 124 OFFCURVE",
"977 144 OFFCURVE",
"932 144 CURVE SMOOTH",
"330 144 LINE",
"488 1043 LINE",
"1070 1043 LINE SMOOTH",
"1115 1043 OFFCURVE",
"1137 1063 OFFCURVE",
"1146 1115 CURVE SMOOTH",
"1155 1167 OFFCURVE",
"1141 1187 OFFCURVE",
"1096 1187 CURVE SMOOTH"
);
},
{
closed = 1;
nodes = (
"379 684 LINE",
"354 540 LINE",
"857 540 LINE SMOOTH",
"902 540 OFFCURVE",
"923 560 OFFCURVE",
"932 612 CURVE SMOOTH",
"942 664 OFFCURVE",
"927 684 OFFCURVE",
"882 684 CURVE SMOOTH"
);
},
{
closed = 1;
nodes = (
"784 1475 LINE",
"532 1634 LINE SMOOTH",
"511 1648 OFFCURVE",
"487 1634 OFFCURVE",
"473 1613 CURVE SMOOTH",
"460 1592 OFFCURVE",
"456 1564 OFFCURVE",
"473 1547 CURVE SMOOTH",
"719 1315 LINE SMOOTH",
"732 1303 OFFCURVE",
"750 1297 OFFCURVE",
"771 1297 CURVE SMOOTH",
"792 1297 OFFCURVE",
"812 1303 OFFCURVE",
"829 1315 CURVE SMOOTH",
"1137 1547 LINE SMOOTH",
"1160 1564 OFFCURVE",
"1162 1591 OFFCURVE",
"1151 1612 CURVE SMOOTH",
"1140 1633 OFFCURVE",
"1116 1647 OFFCURVE",
"1090 1634 CURVE SMOOTH"
);
}
);
width = 1228;
}
);
unicode = 011A;
},
{
glyphname = Ecircumflex;
lastChange = "2015-01-14 05:27:16 +0000";
layers = (
{
layerId = UUID0;
name = "Regular Italic";
paths = (
{
closed = 1;
nodes = (
"425 1187 LINE SMOOTH",
"380 1187 OFFCURVE",
"361 1169 OFFCURVE",
"352 1119 CURVE SMOOTH",
"166 68 LINE SMOOTH",
"157 18 OFFCURVE",
"175 0 OFFCURVE",
"220 0 CURVE SMOOTH",
"907 0 LINE SMOOTH",
"952 0 OFFCURVE",
"973 20 OFFCURVE",
"982 72 CURVE SMOOTH",
"991 124 OFFCURVE",
"977 144 OFFCURVE",
"932 144 CURVE SMOOTH",
"330 144 LINE",
"488 1043 LINE",
"1070 1043 LINE SMOOTH",
"1115 1043 OFFCURVE",
"1137 1063 OFFCURVE",
"1146 1115 CURVE SMOOTH",
"1155 1167 OFFCURVE",
"1141 1187 OFFCURVE",
"1096 1187 CURVE SMOOTH"
);
},
{
closed = 1;
nodes = (
"379 684 LINE",
"354 540 LINE",
"857 540 LINE SMOOTH",
"902 540 OFFCURVE",
"923 560 OFFCURVE",
"932 612 CURVE SMOOTH",
"942 664 OFFCURVE",
"927 684 OFFCURVE",
"882 684 CURVE SMOOTH"
);
},
{
closed = 1;
nodes = (
"811 1468 LINE",
"1063 1309 LINE SMOOTH",
"1084 1295 OFFCURVE",
"1108 1309 OFFCURVE",
"1122 1330 CURVE SMOOTH",
"1135 1351 OFFCURVE",
"1139 1379 OFFCURVE",
"1122 1396 CURVE SMOOTH",
"876 1628 LINE SMOOTH",
"863 1640 OFFCURVE",
"845 1646 OFFCURVE",
"824 1646 CURVE SMOOTH",
"803 1646 OFFCURVE",
"783 1640 OFFCURVE",
"766 1628 CURVE SMOOTH",
"458 1396 LINE SMOOTH",
"435 1379 OFFCURVE",
"433 1352 OFFCURVE",
"444 1331 CURVE SMOOTH",
"455 1310 OFFCURVE",
"479 1296 OFFCURVE",
"505 1309 CURVE SMOOTH"
);
}
);
width = 1228;
}
);
unicode = 00CA;
},
{
glyphname = Edieresis;
lastChange = "2015-01-14 05:27:16 +0000";
layers = (
{
layerId = UUID0;
name = "Regular Italic";
paths = (
{
closed = 1;
nodes = (
"425 1187 LINE SMOOTH",
"380 1187 OFFCURVE",
"361 1169 OFFCURVE",
"352 1119 CURVE SMOOTH",
"166 68 LINE SMOOTH",
"157 18 OFFCURVE",
"175 0 OFFCURVE",
"220 0 CURVE SMOOTH",
"907 0 LINE SMOOTH",
"952 0 OFFCURVE",
"973 20 OFFCURVE",
"982 72 CURVE SMOOTH",
"991 124 OFFCURVE",
"977 144 OFFCURVE",
"932 144 CURVE SMOOTH",
"330 144 LINE",
"488 1043 LINE",
"1070 1043 LINE SMOOTH",
"1115 1043 OFFCURVE",
"1137 1063 OFFCURVE",
"1146 1115 CURVE SMOOTH",
"1155 1167 OFFCURVE",
"1141 1187 OFFCURVE",
"1096 1187 CURVE SMOOTH"
);
},
{
closed = 1;
nodes = (
"379 684 LINE",
"354 540 LINE",
"857 540 LINE SMOOTH",
"902 540 OFFCURVE",
"923 560 OFFCURVE",
"932 612 CURVE SMOOTH",
"942 664 OFFCURVE",
"927 684 OFFCURVE",
"882 684 CURVE SMOOTH"
);
},
{
closed = 1;
nodes = (
"638 1340 OFFCURVE",
"708 1403 OFFCURVE",
"708 1483 CURVE SMOOTH",
"708 1542 OFFCURVE",
"664 1590 OFFCURVE",
"601 1590 CURVE SMOOTH",
"527 1590 OFFCURVE",
"456 1525 OFFCURVE",
"456 1448 CURVE SMOOTH",
"456 1388 OFFCURVE",
"500 1340 OFFCURVE",
"564 1340 CURVE SMOOTH"
);
},
{
closed = 1;
nodes = (
"1078 1340 OFFCURVE",
"1148 1403 OFFCURVE",
"1148 1483 CURVE SMOOTH",
"1148 1542 OFFCURVE",
"1104 1590 OFFCURVE",
"1041 1590 CURVE SMOOTH",
"967 1590 OFFCURVE",
"896 1525 OFFCURVE",
"896 1448 CURVE SMOOTH",
"896 1388 OFFCURVE",
"940 1340 OFFCURVE",
"1004 1340 CURVE SMOOTH"
);
}
);
width = 1228;
}
);
unicode = 00CB;
},
{
glyphname = Edotaccent;
lastChange = "2015-01-14 05:27:15 +0000";
layers = (
{
layerId = UUID0;
name = "Regular Italic";
paths = (
{
closed = 1;
nodes = (
"425 1187 LINE SMOOTH",
"380 1187 OFFCURVE",
"361 1169 OFFCURVE",
"352 1119 CURVE SMOOTH",
"166 68 LINE SMOOTH",
"157 18 OFFCURVE",
"175 0 OFFCURVE",
"220 0 CURVE SMOOTH",
"907 0 LINE SMOOTH",
"952 0 OFFCURVE",
"973 20 OFFCURVE",
"982 72 CURVE SMOOTH",
"991 124 OFFCURVE",
"977 144 OFFCURVE",
"932 144 CURVE SMOOTH",
"330 144 LINE",
"488 1043 LINE",
"1070 1043 LINE SMOOTH",
"1115 1043 OFFCURVE",
"1137 1063 OFFCURVE",
"1146 1115 CURVE SMOOTH",
"1155 1167 OFFCURVE",
"1141 1187 OFFCURVE",
"1096 1187 CURVE SMOOTH"
);
},
{
closed = 1;
nodes = (
"379 684 LINE",
"354 540 LINE",
"857 540 LINE SMOOTH",
"902 540 OFFCURVE",
"923 560 OFFCURVE",
"932 612 CURVE SMOOTH",
"942 664 OFFCURVE",
"927 684 OFFCURVE",
"882 684 CURVE SMOOTH"
);
},
{
closed = 1;
nodes = (
"862 1349 OFFCURVE",
"941 1421 OFFCURVE",
"941 1511 CURVE SMOOTH",
"941 1576 OFFCURVE",
"891 1631 OFFCURVE",
"820 1631 CURVE SMOOTH",
"736 1631 OFFCURVE",
"655 1559 OFFCURVE",
"655 1470 CURVE SMOOTH",
"655 1403 OFFCURVE",
"706 1349 OFFCURVE",
"777 1349 CURVE SMOOTH"
);
}
);
width = 1228;
}
);
unicode = 0116;
},
{
glyphname = Egrave;
lastChange = "2015-01-14 05:27:16 +0000";
layers = (
{
layerId = UUID0;
name = "Regular Italic";
paths = (
{
closed = 1;
nodes = (
"425 1187 LINE SMOOTH",
"380 1187 OFFCURVE",
"361 1169 OFFCURVE",
"352 1119 CURVE SMOOTH",
"166 68 LINE SMOOTH",
"157 18 OFFCURVE",
"175 0 OFFCURVE",
"220 0 CURVE SMOOTH",
"907 0 LINE SMOOTH",
"952 0 OFFCURVE",
"973 20 OFFCURVE",
"982 72 CURVE SMOOTH",
"991 124 OFFCURVE",
"977 144 OFFCURVE",
"932 144 CURVE SMOOTH",
"330 144 LINE",
"488 1043 LINE",
"1070 1043 LINE SMOOTH",
"1115 1043 OFFCURVE",
"1137 1063 OFFCURVE",
"1146 1115 CURVE SMOOTH",
"1155 1167 OFFCURVE",
"1141 1187 OFFCURVE",
"1096 1187 CURVE SMOOTH"
);
},
{
closed = 1;
nodes = (
"379 684 LINE",
"354 540 LINE",
"857 540 LINE SMOOTH",
"902 540 OFFCURVE",
"923 560 OFFCURVE",
"932 612 CURVE SMOOTH",
"942 664 OFFCURVE",
"927 684 OFFCURVE",
"882 684 CURVE SMOOTH"
);
},
{
closed = 1;
nodes = (
"586 1633 LINE SMOOTH",
"552 1652 OFFCURVE",
"527 1654 OFFCURVE",
"485 1579 CURVE SMOOTH",
"446 1508 OFFCURVE",
"458 1481 OFFCURVE",
"485 1472 CURVE SMOOTH",
"966 1309 LINE SMOOTH",
"991 1301 OFFCURVE",
"1012 1318 OFFCURVE",
"1021 1341 CURVE SMOOTH",
"1030 1364 OFFCURVE",
"1025 1390 OFFCURVE",
"1002 1403 CURVE SMOOTH"
);
}
);
width = 1228;
}
);
unicode = 00C8;
},
{
glyphname = Emacron;
lastChange = "2015-01-14 05:27:16 +0000";
layers = (
{
layerId = UUID0;
name = "Regular Italic";
paths = (
{
closed = 1;
nodes = (
"425 1187 LINE SMOOTH",
"380 1187 OFFCURVE",
"361 1169 OFFCURVE",
"352 1119 CURVE SMOOTH",
"166 68 LINE SMOOTH",
"157 18 OFFCURVE",
"175 0 OFFCURVE",
"220 0 CURVE SMOOTH",
"907 0 LINE SMOOTH",
"952 0 OFFCURVE",
"973 20 OFFCURVE",
"982 72 CURVE SMOOTH",
"991 124 OFFCURVE",
"977 144 OFFCURVE",
"932 144 CURVE SMOOTH",
"330 144 LINE",
"488 1043 LINE",
"1070 1043 LINE SMOOTH",
"1115 1043 OFFCURVE",
"1137 1063 OFFCURVE",
"1146 1115 CURVE SMOOTH",
"1155 1167 OFFCURVE",
"1141 1187 OFFCURVE",
"1096 1187 CURVE SMOOTH"
);
},
{
closed = 1;
nodes = (
"379 684 LINE",
"354 540 LINE",
"857 540 LINE SMOOTH",
"902 540 OFFCURVE",
"923 560 OFFCURVE",
"932 612 CURVE SMOOTH",
"942 664 OFFCURVE",
"927 684 OFFCURVE",
"882 684 CURVE SMOOTH"
);
},
{
closed = 1;
nodes = (
"529 1520 LINE SMOOTH",
"484 1520 OFFCURVE",
"462 1500 OFFCURVE",
"453 1448 CURVE SMOOTH",
"444 1396 OFFCURVE",
"459 1376 OFFCURVE",
"504 1376 CURVE SMOOTH",
"1066 1376 LINE SMOOTH",
"1111 1376 OFFCURVE",
"1132 1396 OFFCURVE",
"1141 1448 CURVE SMOOTH",
"1150 1500 OFFCURVE",
"1136 1520 OFFCURVE",
"1091 1520 CURVE SMOOTH"
);
}
);
width = 1228;
}
);
unicode = 0112;
},
{
color = 6;
glyphname = Eogonek;
lastChange = "2015-01-14 05:27:15 +0000";
layers = (
{
layerId = UUID0;
name = "Regular Italic";
paths = (
{
closed = 1;
nodes = (
"425 1187 LINE SMOOTH",
"380 1187 OFFCURVE",
"361 1169 OFFCURVE",
"352 1119 CURVE SMOOTH",
"166 68 LINE SMOOTH",
"157 18 OFFCURVE",
"175 0 OFFCURVE",
"220 0 CURVE SMOOTH",
"907 0 LINE SMOOTH",
"952 0 OFFCURVE",
"973 20 OFFCURVE",
"982 72 CURVE SMOOTH",
"991 124 OFFCURVE",
"977 144 OFFCURVE",
"932 144 CURVE SMOOTH",
"330 144 LINE",
"488 1043 LINE",
"1070 1043 LINE SMOOTH",
"1115 1043 OFFCURVE",
"1137 1063 OFFCURVE",
"1146 1115 CURVE SMOOTH",
"1155 1167 OFFCURVE",
"1141 1187 OFFCURVE",
"1096 1187 CURVE SMOOTH"
);
},
{
closed = 1;
nodes = (
"379 684 LINE",
"354 540 LINE",
"857 540 LINE SMOOTH",
"902 540 OFFCURVE",
"923 560 OFFCURVE",
"932 612 CURVE SMOOTH",
"942 664 OFFCURVE",
"927 684 OFFCURVE",
"882 684 CURVE SMOOTH"
);
},
{
closed = 1;
nodes = (
"769 28 LINE",
"618 -82 OFFCURVE",
"531 -190 OFFCURVE",
"531 -310 CURVE SMOOTH",
"531 -406 OFFCURVE",
"589 -472 OFFCURVE",
"696 -472 CURVE SMOOTH",
"760 -472 OFFCURVE",
"825 -460 OFFCURVE",
"874 -443 CURVE SMOOTH",
"905 -432 OFFCURVE",
"915 -411 OFFCURVE",
"910 -374 CURVE SMOOTH",
"905 -337 OFFCURVE",
"890 -322 OFFCURVE",
"863 -326 CURVE SMOOTH",
"827 -332 OFFCURVE",
"791 -336 OFFCURVE",
"752 -336 CURVE SMOOTH",
"712 -336 OFFCURVE",
"687 -316 OFFCURVE",
"687 -277 CURVE SMOOTH",
"687 -200 OFFCURVE",
"766 -104 OFFCURVE",
"939 28 CURVE"
);
}
);
width = 1228;
}
);
unicode = 0118;
},
{
glyphname = F;
lastChange = "2015-01-12 05:49:59 +0000";
layers = (
{
layerId = UUID0;
name = "Regular Italic";
paths = (
{
closed = 1;
nodes = (
"445 1187 LINE SMOOTH",
"400 1187 OFFCURVE",
"381 1169 OFFCURVE",
"372 1119 CURVE SMOOTH",
"184 55 LINE SMOOTH",
"176 9 OFFCURVE",
"191 -10 OFFCURVE",
"247 -10 CURVE SMOOTH",
"249 -10 LINE SMOOTH",
"302 -10 OFFCURVE",
"326 9 OFFCURVE",
"334 55 CURVE SMOOTH",
"508 1043 LINE",
"1090 1043 LINE SMOOTH",
"1135 1043 OFFCURVE",
"1157 1063 OFFCURVE",
"1166 1115 CURVE SMOOTH",
"1175 1167 OFFCURVE",
"1161 1187 OFFCURVE",
"1116 1187 CURVE SMOOTH"
);
},
{
closed = 1;
nodes = (
"392 644 LINE",
"367 500 LINE",
"880 500 LINE SMOOTH",
"925 500 OFFCURVE",
"946 520 OFFCURVE",
"955 572 CURVE SMOOTH",
"965 624 OFFCURVE",
"950 644 OFFCURVE",
"905 644 CURVE SMOOTH"
);
}
);
width = 1228;
}
);
unicode = 0046;
},
{
glyphname = G;
lastChange = "2015-01-12 05:49:59 +0000";
layers = (
{
layerId = UUID0;
name = "Regular Italic";
paths = (
{
closed = 1;
nodes = (
"388 1209 OFFCURVE",
"131 845 OFFCURVE",
"131 460 CURVE SMOOTH",
"131 169 OFFCURVE",
"303 -22 OFFCURVE",
"575 -22 CURVE SMOOTH",
"726 -22 OFFCURVE",
"867 6 OFFCURVE",
"988 65 CURVE SMOOTH",
"1013 77 OFFCURVE",
"1030 102 OFFCURVE",
"1036 134 CURVE SMOOTH",
"1105 526 LINE SMOOTH",
"1114 576 OFFCURVE",
"1099 594 OFFCURVE",
"1054 594 CURVE SMOOTH",
"700 594 LINE SMOOTH",
"655 594 OFFCURVE",
"634 574 OFFCURVE",
"625 522 CURVE SMOOTH",
"615 470 OFFCURVE",
"630 450 OFFCURVE",
"675 450 CURVE SMOOTH",
"942 450 LINE",
"895 183 LINE",
"801 143 OFFCURVE",
"699 126 OFFCURVE",
"586 126 CURVE SMOOTH",
"399 126 OFFCURVE",
"288 253 OFFCURVE",
"288 465 CURVE SMOOTH",
"288 744 OFFCURVE",
"456 1061 OFFCURVE",
"761 1061 CURVE SMOOTH",
"865 1061 OFFCURVE",
"976 1034 OFFCURVE",
"1064 981 CURVE SMOOTH",
"1096 962 OFFCURVE",
"1129 969 OFFCURVE",
"1153 1016 CURVE SMOOTH",
"1177 1062 OFFCURVE",
"1171 1094 OFFCURVE",
"1131 1117 CURVE SMOOTH",
"1022 1180 OFFCURVE",
"896 1209 OFFCURVE",
"772 1209 CURVE SMOOTH"
);
}
);
width = 1228;
}
);
unicode = 0047;
},
{
glyphname = Gbreve;
lastChange = "2015-01-14 05:27:16 +0000";
layers = (
{
layerId = UUID0;
name = "Regular Italic";
paths = (
{
closed = 1;
nodes = (
"388 1209 OFFCURVE",
"131 845 OFFCURVE",
"131 460 CURVE SMOOTH",
"131 169 OFFCURVE",
"303 -22 OFFCURVE",
"575 -22 CURVE SMOOTH",
"726 -22 OFFCURVE",
"867 6 OFFCURVE",
"988 65 CURVE SMOOTH",
"1013 77 OFFCURVE",
"1030 102 OFFCURVE",
"1036 134 CURVE SMOOTH",
"1105 526 LINE SMOOTH",
"1114 576 OFFCURVE",
"1099 594 OFFCURVE",
"1054 594 CURVE SMOOTH",
"700 594 LINE SMOOTH",
"655 594 OFFCURVE",
"634 574 OFFCURVE",
"625 522 CURVE SMOOTH",
"615 470 OFFCURVE",
"630 450 OFFCURVE",
"675 450 CURVE SMOOTH",
"942 450 LINE",
"895 183 LINE",
"801 143 OFFCURVE",
"699 126 OFFCURVE",
"586 126 CURVE SMOOTH",
"399 126 OFFCURVE",
"288 253 OFFCURVE",
"288 465 CURVE SMOOTH",
"288 744 OFFCURVE",
"456 1061 OFFCURVE",
"761 1061 CURVE SMOOTH",
"865 1061 OFFCURVE",
"976 1034 OFFCURVE",
"1064 981 CURVE SMOOTH",
"1096 962 OFFCURVE",
"1129 969 OFFCURVE",
"1153 1016 CURVE SMOOTH",
"1177 1062 OFFCURVE",
"1171 1094 OFFCURVE",
"1131 1117 CURVE SMOOTH",
"1022 1180 OFFCURVE",
"896 1209 OFFCURVE",
"772 1209 CURVE SMOOTH"
);
},
{
closed = 1;
nodes = (
"1144 1633 OFFCURVE",
"1109 1631 OFFCURVE",
"1093 1608 CURVE SMOOTH",
"1032 1518 OFFCURVE",
"942 1485 OFFCURVE",
"806 1485 CURVE SMOOTH",
"670 1485 OFFCURVE",
"590 1518 OFFCURVE",
"555 1608 CURVE SMOOTH",
"547 1629 OFFCURVE",
"518 1632 OFFCURVE",
"493 1622 CURVE SMOOTH",
"469 1613 OFFCURVE",
"448 1593 OFFCURVE",
"450 1568 CURVE SMOOTH",
"464 1430 OFFCURVE",
"588 1341 OFFCURVE",
"795 1341 CURVE SMOOTH",
"1002 1341 OFFCURVE",
"1147 1430 OFFCURVE",
"1204 1568 CURVE SMOOTH",
"1214 1592 OFFCURVE",
"1196 1612 OFFCURVE",
"1171 1622 CURVE SMOOTH"
);
}
);
width = 1228;
}
);
unicode = 011E;
},
{
glyphname = Gcircumflex;
lastChange = "2015-01-14 05:27:16 +0000";
layers = (
{
layerId = UUID0;
name = "Regular Italic";
paths = (
{
closed = 1;
nodes = (
"388 1209 OFFCURVE",
"131 845 OFFCURVE",
"131 460 CURVE SMOOTH",
"131 169 OFFCURVE",
"303 -22 OFFCURVE",
"575 -22 CURVE SMOOTH",
"726 -22 OFFCURVE",
"867 6 OFFCURVE",
"988 65 CURVE SMOOTH",
"1013 77 OFFCURVE",
"1030 102 OFFCURVE",
"1036 134 CURVE SMOOTH",
"1105 526 LINE SMOOTH",
"1114 576 OFFCURVE",
"1099 594 OFFCURVE",
"1054 594 CURVE SMOOTH",
"700 594 LINE SMOOTH",
"655 594 OFFCURVE",
"634 574 OFFCURVE",
"625 522 CURVE SMOOTH",
"615 470 OFFCURVE",
"630 450 OFFCURVE",
"675 450 CURVE SMOOTH",
"942 450 LINE",
"895 183 LINE",
"801 143 OFFCURVE",
"699 126 OFFCURVE",
"586 126 CURVE SMOOTH",
"399 126 OFFCURVE",
"288 253 OFFCURVE",
"288 465 CURVE SMOOTH",
"288 744 OFFCURVE",
"456 1061 OFFCURVE",
"761 1061 CURVE SMOOTH",
"865 1061 OFFCURVE",
"976 1034 OFFCURVE",
"1064 981 CURVE SMOOTH",
"1096 962 OFFCURVE",
"1129 969 OFFCURVE",
"1153 1016 CURVE SMOOTH",
"1177 1062 OFFCURVE",
"1171 1094 OFFCURVE",
"1131 1117 CURVE SMOOTH",
"1022 1180 OFFCURVE",
"896 1209 OFFCURVE",
"772 1209 CURVE SMOOTH"
);
},
{
closed = 1;
nodes = (
"823 1468 LINE",
"1075 1309 LINE SMOOTH",
"1096 1295 OFFCURVE",
"1120 1309 OFFCURVE",
"1134 1330 CURVE SMOOTH",
"1147 1351 OFFCURVE",
"1151 1379 OFFCURVE",
"1134 1396 CURVE SMOOTH",
"888 1628 LINE SMOOTH",
"875 1640 OFFCURVE",
"857 1646 OFFCURVE",
"836 1646 CURVE SMOOTH",
"815 1646 OFFCURVE",
"795 1640 OFFCURVE",
"778 1628 CURVE SMOOTH",
"470 1396 LINE SMOOTH",
"447 1379 OFFCURVE",
"445 1352 OFFCURVE",
"456 1331 CURVE SMOOTH",
"467 1310 OFFCURVE",
"491 1296 OFFCURVE",
"517 1309 CURVE SMOOTH"
);
}
);
width = 1228;
}
);
unicode = 011C;
},
{
glyphname = Gcommaaccent;
lastChange = "2015-01-14 05:27:16 +0000";
layers = (
{
layerId = UUID0;
name = "Regular Italic";
paths = (
{
closed = 1;
nodes = (
"388 1209 OFFCURVE",
"131 845 OFFCURVE",
"131 460 CURVE SMOOTH",
"131 169 OFFCURVE",
"303 -22 OFFCURVE",
"575 -22 CURVE SMOOTH",
"726 -22 OFFCURVE",
"867 6 OFFCURVE",
"988 65 CURVE SMOOTH",
"1013 77 OFFCURVE",
"1030 102 OFFCURVE",
"1036 134 CURVE SMOOTH",
"1105 526 LINE SMOOTH",
"1114 576 OFFCURVE",
"1099 594 OFFCURVE",
"1054 594 CURVE SMOOTH",
"700 594 LINE SMOOTH",
"655 594 OFFCURVE",
"634 574 OFFCURVE",
"625 522 CURVE SMOOTH",
"615 470 OFFCURVE",
"630 450 OFFCURVE",
"675 450 CURVE SMOOTH",
"942 450 LINE",
"895 183 LINE",
"801 143 OFFCURVE",
"699 126 OFFCURVE",
"586 126 CURVE SMOOTH",
"399 126 OFFCURVE",
"288 253 OFFCURVE",
"288 465 CURVE SMOOTH",
"288 744 OFFCURVE",
"456 1061 OFFCURVE",
"761 1061 CURVE SMOOTH",
"865 1061 OFFCURVE",
"976 1034 OFFCURVE",
"1064 981 CURVE SMOOTH",
"1096 962 OFFCURVE",
"1129 969 OFFCURVE",
"1153 1016 CURVE SMOOTH",
"1177 1062 OFFCURVE",
"1171 1094 OFFCURVE",
"1131 1117 CURVE SMOOTH",
"1022 1180 OFFCURVE",
"896 1209 OFFCURVE",
"772 1209 CURVE SMOOTH"
);
},
{
closed = 1;
nodes = (
"663 -197 LINE SMOOTH",
"682 -169 OFFCURVE",
"677 -146 OFFCURVE",
"650 -146 CURVE SMOOTH",
"508 -146 LINE SMOOTH",
"486 -146 OFFCURVE",
"468 -157 OFFCURVE",
"460 -178 CURVE SMOOTH",
"350 -469 LINE SMOOTH",
"337 -503 OFFCURVE",
"354 -525 OFFCURVE",
"391 -525 CURVE SMOOTH",
"422 -525 OFFCURVE",
"450 -510 OFFCURVE",
"465 -488 CURVE SMOOTH"
);
}
);
width = 1228;
}
);
unicode = 0122;
},
{
glyphname = Gdotaccent;
lastChange = "2015-01-14 05:27:16 +0000";
layers = (
{
layerId = UUID0;
name = "Regular Italic";
paths = (
{
closed = 1;
nodes = (
"388 1209 OFFCURVE",
"131 845 OFFCURVE",
"131 460 CURVE SMOOTH",
"131 169 OFFCURVE",
"303 -22 OFFCURVE",
"575 -22 CURVE SMOOTH",
"726 -22 OFFCURVE",
"867 6 OFFCURVE",
"988 65 CURVE SMOOTH",
"1013 77 OFFCURVE",
"1030 102 OFFCURVE",
"1036 134 CURVE SMOOTH",
"1105 526 LINE SMOOTH",
"1114 576 OFFCURVE",
"1099 594 OFFCURVE",
"1054 594 CURVE SMOOTH",
"700 594 LINE SMOOTH",
"655 594 OFFCURVE",
"634 574 OFFCURVE",
"625 522 CURVE SMOOTH",
"615 470 OFFCURVE",
"630 450 OFFCURVE",
"675 450 CURVE SMOOTH",
"942 450 LINE",
"895 183 LINE",
"801 143 OFFCURVE",
"699 126 OFFCURVE",
"586 126 CURVE SMOOTH",
"399 126 OFFCURVE",
"288 253 OFFCURVE",
"288 465 CURVE SMOOTH",
"288 744 OFFCURVE",
"456 1061 OFFCURVE",
"761 1061 CURVE SMOOTH",
"865 1061 OFFCURVE",
"976 1034 OFFCURVE",
"1064 981 CURVE SMOOTH",
"1096 962 OFFCURVE",
"1129 969 OFFCURVE",
"1153 1016 CURVE SMOOTH",
"1177 1062 OFFCURVE",
"1171 1094 OFFCURVE",
"1131 1117 CURVE SMOOTH",
"1022 1180 OFFCURVE",
"896 1209 OFFCURVE",
"772 1209 CURVE SMOOTH"
);
},
{
closed = 1;
nodes = (
"862 1349 OFFCURVE",
"941 1421 OFFCURVE",
"941 1511 CURVE SMOOTH",
"941 1576 OFFCURVE",
"891 1631 OFFCURVE",
"820 1631 CURVE SMOOTH",
"736 1631 OFFCURVE",
"655 1559 OFFCURVE",
"655 1470 CURVE SMOOTH",
"655 1403 OFFCURVE",
"706 1349 OFFCURVE",
"777 1349 CURVE SMOOTH"
);
}
);
width = 1228;
}
);
unicode = 0120;
},
{
glyphname = H;
lastChange = "2015-01-12 05:49:59 +0000";
layers = (
{
layerId = UUID0;
name = "Regular Italic";
paths = (
{
closed = 1;
nodes = (
"1117 1197 LINE SMOOTH",
"1064 1197 OFFCURVE",
"1040 1178 OFFCURVE",
"1032 1132 CURVE SMOOTH",
"953 684 LINE",
"375 684 LINE",
"454 1132 LINE SMOOTH",
"462 1178 OFFCURVE",
"447 1197 OFFCURVE",
"391 1197 CURVE SMOOTH",
"389 1197 LINE SMOOTH",
"336 1197 OFFCURVE",
"312 1178 OFFCURVE",
"304 1132 CURVE SMOOTH",
"114 55 LINE SMOOTH",
"106 9 OFFCURVE",
"121 -10 OFFCURVE",
"177 -10 CURVE SMOOTH",
"179 -10 LINE SMOOTH",
"232 -10 OFFCURVE",
"256 9 OFFCURVE",
"264 55 CURVE SMOOTH",
"350 540 LINE",
"928 540 LINE",
"842 55 LINE SMOOTH",
"834 9 OFFCURVE",
"849 -10 OFFCURVE",
"905 -10 CURVE SMOOTH",
"907 -10 LINE SMOOTH",
"960 -10 OFFCURVE",
"984 9 OFFCURVE",
"992 55 CURVE SMOOTH",
"1182 1132 LINE SMOOTH",
"1190 1178 OFFCURVE",
"1175 1197 OFFCURVE",
"1119 1197 CURVE SMOOTH"
);
}
);
width = 1228;
}
);
unicode = 0048;
},
{
color = 6;
glyphname = Hbar;
lastChange = "2015-01-14 05:27:17 +0000";
layers = (
{
layerId = UUID0;
name = "Regular Italic";
paths = (
{
closed = 1;
nodes = (
"195 974 LINE SMOOTH",
"150 974 OFFCURVE",
"128 954 OFFCURVE",
"119 902 CURVE SMOOTH",
"110 850 OFFCURVE",
"124 830 OFFCURVE",
"169 830 CURVE SMOOTH",
"1211 830 LINE SMOOTH",
"1256 830 OFFCURVE",
"1278 850 OFFCURVE",
"1287 902 CURVE SMOOTH",
"1296 954 OFFCURVE",
"1282 974 OFFCURVE",
"1237 974 CURVE SMOOTH"
);
},
{
closed = 1;
nodes = (
"1117 1197 LINE SMOOTH",
"1064 1197 OFFCURVE",
"1040 1178 OFFCURVE",
"1032 1132 CURVE SMOOTH",
"953 684 LINE",
"375 684 LINE",
"454 1132 LINE SMOOTH",
"462 1178 OFFCURVE",
"447 1197 OFFCURVE",
"391 1197 CURVE SMOOTH",
"389 1197 LINE SMOOTH",
"336 1197 OFFCURVE",
"312 1178 OFFCURVE",
"304 1132 CURVE SMOOTH",
"114 55 LINE SMOOTH",
"106 9 OFFCURVE",
"121 -10 OFFCURVE",
"177 -10 CURVE SMOOTH",
"179 -10 LINE SMOOTH",
"232 -10 OFFCURVE",
"256 9 OFFCURVE",
"264 55 CURVE SMOOTH",
"350 540 LINE",
"928 540 LINE",
"842 55 LINE SMOOTH",
"834 9 OFFCURVE",
"849 -10 OFFCURVE",
"905 -10 CURVE SMOOTH",
"907 -10 LINE SMOOTH",
"960 -10 OFFCURVE",
"984 9 OFFCURVE",
"992 55 CURVE SMOOTH",
"1182 1132 LINE SMOOTH",
"1190 1178 OFFCURVE",
"1175 1197 OFFCURVE",
"1119 1197 CURVE SMOOTH"
);
}
);
width = 1228;
}
);
unicode = 0126;
},
{
glyphname = Hcircumflex;
lastChange = "2015-01-14 05:27:16 +0000";
layers = (
{
layerId = UUID0;
name = "Regular Italic";
paths = (
{
closed = 1;
nodes = (
"1117 1197 LINE SMOOTH",
"1064 1197 OFFCURVE",
"1040 1178 OFFCURVE",
"1032 1132 CURVE SMOOTH",
"953 684 LINE",
"375 684 LINE",
"454 1132 LINE SMOOTH",
"462 1178 OFFCURVE",
"447 1197 OFFCURVE",
"391 1197 CURVE SMOOTH",
"389 1197 LINE SMOOTH",
"336 1197 OFFCURVE",
"312 1178 OFFCURVE",
"304 1132 CURVE SMOOTH",
"114 55 LINE SMOOTH",
"106 9 OFFCURVE",
"121 -10 OFFCURVE",
"177 -10 CURVE SMOOTH",
"179 -10 LINE SMOOTH",
"232 -10 OFFCURVE",
"256 9 OFFCURVE",
"264 55 CURVE SMOOTH",
"350 540 LINE",
"928 540 LINE",
"842 55 LINE SMOOTH",
"834 9 OFFCURVE",
"849 -10 OFFCURVE",
"905 -10 CURVE SMOOTH",
"907 -10 LINE SMOOTH",
"960 -10 OFFCURVE",
"984 9 OFFCURVE",
"992 55 CURVE SMOOTH",
"1182 1132 LINE SMOOTH",
"1190 1178 OFFCURVE",
"1175 1197 OFFCURVE",
"1119 1197 CURVE SMOOTH"
);
},
{
closed = 1;
nodes = (
"793 1468 LINE",
"1045 1309 LINE SMOOTH",
"1066 1295 OFFCURVE",
"1090 1309 OFFCURVE",
"1104 1330 CURVE SMOOTH",
"1117 1351 OFFCURVE",
"1121 1379 OFFCURVE",
"1104 1396 CURVE SMOOTH",
"858 1628 LINE SMOOTH",
"845 1640 OFFCURVE",
"827 1646 OFFCURVE",
"806 1646 CURVE SMOOTH",
"785 1646 OFFCURVE",
"765 1640 OFFCURVE",
"748 1628 CURVE SMOOTH",
"440 1396 LINE SMOOTH",
"417 1379 OFFCURVE",
"415 1352 OFFCURVE",
"426 1331 CURVE SMOOTH",
"437 1310 OFFCURVE",
"461 1296 OFFCURVE",
"487 1309 CURVE SMOOTH"
);
}
);
width = 1228;
}
);
unicode = 0124;
},
{
glyphname = I;
lastChange = "2015-01-12 05:49:59 +0000";
layers = (
{
layerId = UUID0;
name = "Regular Italic";
paths = (
{
closed = 1;
nodes = (
"412 1187 LINE SMOOTH",
"367 1187 OFFCURVE",
"345 1167 OFFCURVE",
"336 1115 CURVE SMOOTH",
"327 1063 OFFCURVE",
"341 1043 OFFCURVE",
"386 1043 CURVE SMOOTH",
"652 1043 LINE",
"494 144 LINE",
"228 144 LINE SMOOTH",
"183 144 OFFCURVE",
"161 124 OFFCURVE",
"152 72 CURVE SMOOTH",
"143 20 OFFCURVE",
"158 0 OFFCURVE",
"203 0 CURVE SMOOTH",
"905 0 LINE SMOOTH",
"950 0 OFFCURVE",
"971 20 OFFCURVE",
"980 72 CURVE SMOOTH",
"989 124 OFFCURVE",
"975 144 OFFCURVE",
"930 144 CURVE SMOOTH",
"644 144 LINE",
"802 1043 LINE",
"1048 1043 LINE SMOOTH",
"1093 1043 OFFCURVE",
"1115 1063 OFFCURVE",
"1124 1115 CURVE SMOOTH",
"1133 1167 OFFCURVE",
"1119 1187 OFFCURVE",
"1074 1187 CURVE SMOOTH"
);
}
);
width = 1228;
}
);
unicode = 0049;
},
{
glyphname = IJ;
lastChange = "2015-01-12 05:49:59 +0000";
layers = (
{
layerId = UUID0;
name = "Regular Italic";
paths = (
{
closed = 1;
nodes = (
"1118 1197 LINE SMOOTH",
"1065 1197 OFFCURVE",
"1041 1178 OFFCURVE",
"1033 1132 CURVE SMOOTH",
"883 283 LINE SMOOTH",
"863 170 OFFCURVE",
"816 126 OFFCURVE",
"734 126 CURVE SMOOTH",
"674 126 OFFCURVE",
"607 142 OFFCURVE",
"557 167 CURVE SMOOTH",
"531 180 OFFCURVE",
"500 178 OFFCURVE",
"477 125 CURVE SMOOTH",
"454 73 OFFCURVE",
"464 47 OFFCURVE",
"498 28 CURVE SMOOTH",
"560 -5 OFFCURVE",
"652 -22 OFFCURVE",
"721 -22 CURVE SMOOTH",
"897 -22 OFFCURVE",
"996 74 OFFCURVE",
"1028 253 CURVE SMOOTH",
"1183 1132 LINE SMOOTH",
"1191 1178 OFFCURVE",
"1176 1197 OFFCURVE",
"1120 1197 CURVE SMOOTH"
);
},
{
closed = 1;
nodes = (
"393 1197 LINE SMOOTH",
"340 1197 OFFCURVE",
"316 1178 OFFCURVE",
"308 1132 CURVE SMOOTH",
"118 55 LINE SMOOTH",
"110 9 OFFCURVE",
"125 -10 OFFCURVE",
"181 -10 CURVE SMOOTH",
"183 -10 LINE SMOOTH",
"236 -10 OFFCURVE",
"260 9 OFFCURVE",
"268 55 CURVE SMOOTH",
"458 1132 LINE SMOOTH",
"466 1178 OFFCURVE",
"451 1197 OFFCURVE",
"395 1197 CURVE SMOOTH"
);
}
);
width = 1228;
}
);
unicode = 0132;
},
{
glyphname = Iacute;
lastChange = "2015-01-14 05:27:16 +0000";
layers = (
{
layerId = UUID0;
name = "Regular Italic";
paths = (
{
closed = 1;
nodes = (
"412 1187 LINE SMOOTH",
"367 1187 OFFCURVE",
"345 1167 OFFCURVE",
"336 1115 CURVE SMOOTH",
"327 1063 OFFCURVE",
"341 1043 OFFCURVE",
"386 1043 CURVE SMOOTH",
"652 1043 LINE",
"494 144 LINE",
"228 144 LINE SMOOTH",
"183 144 OFFCURVE",
"161 124 OFFCURVE",
"152 72 CURVE SMOOTH",
"143 20 OFFCURVE",
"158 0 OFFCURVE",
"203 0 CURVE SMOOTH",
"905 0 LINE SMOOTH",
"950 0 OFFCURVE",
"971 20 OFFCURVE",
"980 72 CURVE SMOOTH",
"989 124 OFFCURVE",
"975 144 OFFCURVE",
"930 144 CURVE SMOOTH",
"644 144 LINE",
"802 1043 LINE",
"1048 1043 LINE SMOOTH",
"1093 1043 OFFCURVE",
"1115 1063 OFFCURVE",
"1124 1115 CURVE SMOOTH",
"1133 1167 OFFCURVE",
"1119 1187 OFFCURVE",
"1074 1187 CURVE SMOOTH"
);
},
{
closed = 1;
nodes = (
"570 1403 LINE SMOOTH",
"547 1390 OFFCURVE",
"542 1364 OFFCURVE",
"551 1341 CURVE SMOOTH",
"560 1318 OFFCURVE",
"581 1301 OFFCURVE",
"606 1309 CURVE SMOOTH",
"1087 1472 LINE SMOOTH",
"1114 1481 OFFCURVE",
"1126 1508 OFFCURVE",
"1087 1579 CURVE SMOOTH",
"1045 1654 OFFCURVE",
"1020 1652 OFFCURVE",
"986 1633 CURVE SMOOTH"
);
}
);
width = 1228;
}
);
unicode = 00CD;
},
{
glyphname = Ibreve;
lastChange = "2015-01-14 05:27:16 +0000";
layers = (
{
layerId = UUID0;
name = "Regular Italic";
paths = (
{
closed = 1;
nodes = (
"412 1187 LINE SMOOTH",
"367 1187 OFFCURVE",
"345 1167 OFFCURVE",
"336 1115 CURVE SMOOTH",
"327 1063 OFFCURVE",
"341 1043 OFFCURVE",
"386 1043 CURVE SMOOTH",
"652 1043 LINE",
"494 144 LINE",
"228 144 LINE SMOOTH",
"183 144 OFFCURVE",
"161 124 OFFCURVE",
"152 72 CURVE SMOOTH",
"143 20 OFFCURVE",
"158 0 OFFCURVE",
"203 0 CURVE SMOOTH",
"905 0 LINE SMOOTH",
"950 0 OFFCURVE",
"971 20 OFFCURVE",
"980 72 CURVE SMOOTH",
"989 124 OFFCURVE",
"975 144 OFFCURVE",
"930 144 CURVE SMOOTH",
"644 144 LINE",
"802 1043 LINE",
"1048 1043 LINE SMOOTH",
"1093 1043 OFFCURVE",
"1115 1063 OFFCURVE",
"1124 1115 CURVE SMOOTH",
"1133 1167 OFFCURVE",
"1119 1187 OFFCURVE",
"1074 1187 CURVE SMOOTH"
);
},
{
closed = 1;
nodes = (
"1114 1633 OFFCURVE",
"1079 1631 OFFCURVE",
"1063 1608 CURVE SMOOTH",
"1002 1518 OFFCURVE",
"912 1485 OFFCURVE",
"776 1485 CURVE SMOOTH",
"640 1485 OFFCURVE",
"560 1518 OFFCURVE",
"525 1608 CURVE SMOOTH",
"517 1629 OFFCURVE",
"488 1632 OFFCURVE",
"463 1622 CURVE SMOOTH",
"439 1613 OFFCURVE",
"418 1593 OFFCURVE",
"420 1568 CURVE SMOOTH",
"434 1430 OFFCURVE",
"558 1341 OFFCURVE",
"765 1341 CURVE SMOOTH",
"972 1341 OFFCURVE",
"1117 1430 OFFCURVE",
"1174 1568 CURVE SMOOTH",
"1184 1592 OFFCURVE",
"1166 1612 OFFCURVE",
"1141 1622 CURVE SMOOTH"
);
}
);
width = 1228;
}
);
unicode = 012C;
},
{
glyphname = Icircumflex;
lastChange = "2015-01-14 05:27:16 +0000";
layers = (
{
layerId = UUID0;
name = "Regular Italic";
paths = (
{
closed = 1;
nodes = (
"412 1187 LINE SMOOTH",
"367 1187 OFFCURVE",
"345 1167 OFFCURVE",
"336 1115 CURVE SMOOTH",
"327 1063 OFFCURVE",
"341 1043 OFFCURVE",
"386 1043 CURVE SMOOTH",
"652 1043 LINE",
"494 144 LINE",
"228 144 LINE SMOOTH",
"183 144 OFFCURVE",
"161 124 OFFCURVE",
"152 72 CURVE SMOOTH",
"143 20 OFFCURVE",
"158 0 OFFCURVE",
"203 0 CURVE SMOOTH",
"905 0 LINE SMOOTH",
"950 0 OFFCURVE",
"971 20 OFFCURVE",
"980 72 CURVE SMOOTH",
"989 124 OFFCURVE",
"975 144 OFFCURVE",
"930 144 CURVE SMOOTH",
"644 144 LINE",
"802 1043 LINE",
"1048 1043 LINE SMOOTH",
"1093 1043 OFFCURVE",
"1115 1063 OFFCURVE",
"1124 1115 CURVE SMOOTH",
"1133 1167 OFFCURVE",
"1119 1187 OFFCURVE",
"1074 1187 CURVE SMOOTH"
);
},
{
closed = 1;
nodes = (
"791 1468 LINE",
"1043 1309 LINE SMOOTH",
"1064 1295 OFFCURVE",
"1088 1309 OFFCURVE",
"1102 1330 CURVE SMOOTH",
"1115 1351 OFFCURVE",
"1119 1379 OFFCURVE",
"1102 1396 CURVE SMOOTH",
"856 1628 LINE SMOOTH",
"843 1640 OFFCURVE",
"825 1646 OFFCURVE",
"804 1646 CURVE SMOOTH",
"783 1646 OFFCURVE",
"763 1640 OFFCURVE",
"746 1628 CURVE SMOOTH",
"438 1396 LINE SMOOTH",
"415 1379 OFFCURVE",
"413 1352 OFFCURVE",
"424 1331 CURVE SMOOTH",
"435 1310 OFFCURVE",
"459 1296 OFFCURVE",
"485 1309 CURVE SMOOTH"
);
}
);
width = 1228;
}
);
unicode = 00CE;
},
{
glyphname = Idieresis;
lastChange = "2015-01-14 05:27:17 +0000";
layers = (
{
layerId = UUID0;
name = "Regular Italic";
paths = (
{
closed = 1;
nodes = (
"412 1187 LINE SMOOTH",
"367 1187 OFFCURVE",
"345 1167 OFFCURVE",
"336 1115 CURVE SMOOTH",
"327 1063 OFFCURVE",
"341 1043 OFFCURVE",
"386 1043 CURVE SMOOTH",
"652 1043 LINE",
"494 144 LINE",
"228 144 LINE SMOOTH",
"183 144 OFFCURVE",
"161 124 OFFCURVE",
"152 72 CURVE SMOOTH",
"143 20 OFFCURVE",
"158 0 OFFCURVE",
"203 0 CURVE SMOOTH",
"905 0 LINE SMOOTH",
"950 0 OFFCURVE",
"971 20 OFFCURVE",
"980 72 CURVE SMOOTH",
"989 124 OFFCURVE",
"975 144 OFFCURVE",
"930 144 CURVE SMOOTH",
"644 144 LINE",
"802 1043 LINE",
"1048 1043 LINE SMOOTH",
"1093 1043 OFFCURVE",
"1115 1063 OFFCURVE",
"1124 1115 CURVE SMOOTH",
"1133 1167 OFFCURVE",
"1119 1187 OFFCURVE",
"1074 1187 CURVE SMOOTH"
);
},
{
closed = 1;
nodes = (
"618 1340 OFFCURVE",
"688 1403 OFFCURVE",
"688 1483 CURVE SMOOTH",
"688 1542 OFFCURVE",
"644 1590 OFFCURVE",
"581 1590 CURVE SMOOTH",
"507 1590 OFFCURVE",
"436 1525 OFFCURVE",
"436 1448 CURVE SMOOTH",
"436 1388 OFFCURVE",
"480 1340 OFFCURVE",
"544 1340 CURVE SMOOTH"
);
},
{
closed = 1;
nodes = (
"1058 1340 OFFCURVE",
"1128 1403 OFFCURVE",
"1128 1483 CURVE SMOOTH",
"1128 1542 OFFCURVE",
"1084 1590 OFFCURVE",
"1021 1590 CURVE SMOOTH",
"947 1590 OFFCURVE",
"876 1525 OFFCURVE",
"876 1448 CURVE SMOOTH",
"876 1388 OFFCURVE",
"920 1340 OFFCURVE",
"984 1340 CURVE SMOOTH"
);
}
);
width = 1228;
}
);
unicode = 00CF;
},
{
glyphname = Idotaccent;
lastChange = "2015-01-14 05:27:16 +0000";
layers = (
{
layerId = UUID0;
name = "Regular Italic";
paths = (
{
closed = 1;
nodes = (
"412 1187 LINE SMOOTH",
"367 1187 OFFCURVE",
"345 1167 OFFCURVE",
"336 1115 CURVE SMOOTH",
"327 1063 OFFCURVE",
"341 1043 OFFCURVE",
"386 1043 CURVE SMOOTH",
"652 1043 LINE",
"494 144 LINE",
"228 144 LINE SMOOTH",
"183 144 OFFCURVE",
"161 124 OFFCURVE",
"152 72 CURVE SMOOTH",
"143 20 OFFCURVE",
"158 0 OFFCURVE",
"203 0 CURVE SMOOTH",
"905 0 LINE SMOOTH",
"950 0 OFFCURVE",
"971 20 OFFCURVE",
"980 72 CURVE SMOOTH",
"989 124 OFFCURVE",
"975 144 OFFCURVE",
"930 144 CURVE SMOOTH",
"644 144 LINE",
"802 1043 LINE",
"1048 1043 LINE SMOOTH",
"1093 1043 OFFCURVE",
"1115 1063 OFFCURVE",
"1124 1115 CURVE SMOOTH",
"1133 1167 OFFCURVE",
"1119 1187 OFFCURVE",
"1074 1187 CURVE SMOOTH"
);
},
{
closed = 1;
nodes = (
"852 1349 OFFCURVE",
"931 1421 OFFCURVE",
"931 1511 CURVE SMOOTH",
"931 1576 OFFCURVE",
"881 1631 OFFCURVE",
"810 1631 CURVE SMOOTH",
"726 1631 OFFCURVE",
"645 1559 OFFCURVE",
"645 1470 CURVE SMOOTH",
"645 1403 OFFCURVE",
"696 1349 OFFCURVE",
"767 1349 CURVE SMOOTH"
);
}
);
width = 1228;
}
);
unicode = 0130;
},
{
glyphname = Igrave;
lastChange = "2015-01-14 05:27:15 +0000";
layers = (
{
layerId = UUID0;
name = "Regular Italic";
paths = (
{
closed = 1;
nodes = (
"412 1187 LINE SMOOTH",
"367 1187 OFFCURVE",
"345 1167 OFFCURVE",
"336 1115 CURVE SMOOTH",
"327 1063 OFFCURVE",
"341 1043 OFFCURVE",
"386 1043 CURVE SMOOTH",
"652 1043 LINE",
"494 144 LINE",
"228 144 LINE SMOOTH",
"183 144 OFFCURVE",
"161 124 OFFCURVE",
"152 72 CURVE SMOOTH",
"143 20 OFFCURVE",
"158 0 OFFCURVE",
"203 0 CURVE SMOOTH",
"905 0 LINE SMOOTH",
"950 0 OFFCURVE",
"971 20 OFFCURVE",
"980 72 CURVE SMOOTH",
"989 124 OFFCURVE",
"975 144 OFFCURVE",
"930 144 CURVE SMOOTH",
"644 144 LINE",
"802 1043 LINE",
"1048 1043 LINE SMOOTH",
"1093 1043 OFFCURVE",
"1115 1063 OFFCURVE",
"1124 1115 CURVE SMOOTH",
"1133 1167 OFFCURVE",
"1119 1187 OFFCURVE",
"1074 1187 CURVE SMOOTH"
);
},
{
closed = 1;
nodes = (
"576 1633 LINE SMOOTH",
"542 1652 OFFCURVE",
"517 1654 OFFCURVE",
"475 1579 CURVE SMOOTH",
"436 1508 OFFCURVE",
"448 1481 OFFCURVE",
"475 1472 CURVE SMOOTH",
"956 1309 LINE SMOOTH",
"981 1301 OFFCURVE",
"1002 1318 OFFCURVE",
"1011 1341 CURVE SMOOTH",
"1020 1364 OFFCURVE",
"1015 1390 OFFCURVE",
"992 1403 CURVE SMOOTH"
);
}
);
width = 1228;
}
);
unicode = 00CC;
},
{
glyphname = Imacron;
lastChange = "2015-01-14 05:27:16 +0000";
layers = (
{
layerId = UUID0;
name = "Regular Italic";
paths = (
{
closed = 1;
nodes = (
"412 1187 LINE SMOOTH",
"367 1187 OFFCURVE",
"345 1167 OFFCURVE",
"336 1115 CURVE SMOOTH",
"327 1063 OFFCURVE",
"341 1043 OFFCURVE",
"386 1043 CURVE SMOOTH",
"652 1043 LINE",
"494 144 LINE",
"228 144 LINE SMOOTH",
"183 144 OFFCURVE",
"161 124 OFFCURVE",
"152 72 CURVE SMOOTH",
"143 20 OFFCURVE",
"158 0 OFFCURVE",
"203 0 CURVE SMOOTH",
"905 0 LINE SMOOTH",
"950 0 OFFCURVE",
"971 20 OFFCURVE",
"980 72 CURVE SMOOTH",
"989 124 OFFCURVE",
"975 144 OFFCURVE",
"930 144 CURVE SMOOTH",
"644 144 LINE",
"802 1043 LINE",
"1048 1043 LINE SMOOTH",
"1093 1043 OFFCURVE",
"1115 1063 OFFCURVE",
"1124 1115 CURVE SMOOTH",
"1133 1167 OFFCURVE",
"1119 1187 OFFCURVE",
"1074 1187 CURVE SMOOTH"
);
},
{
closed = 1;
nodes = (
"508 1520 LINE SMOOTH",
"463 1520 OFFCURVE",
"441 1500 OFFCURVE",
"432 1448 CURVE SMOOTH",
"423 1396 OFFCURVE",
"438 1376 OFFCURVE",
"483 1376 CURVE SMOOTH",
"1045 1376 LINE SMOOTH",
"1090 1376 OFFCURVE",
"1111 1396 OFFCURVE",
"1120 1448 CURVE SMOOTH",
"1129 1500 OFFCURVE",
"1115 1520 OFFCURVE",
"1070 1520 CURVE SMOOTH"
);
}
);
width = 1228;
}
);
unicode = 012A;
},
{
color = 6;
glyphname = Iogonek;
lastChange = "2015-01-14 05:27:16 +0000";
layers = (
{
layerId = UUID0;
name = "Regular Italic";
paths = (
{
closed = 1;
nodes = (
"412 1187 LINE SMOOTH",
"367 1187 OFFCURVE",
"345 1167 OFFCURVE",
"336 1115 CURVE SMOOTH",
"327 1063 OFFCURVE",
"341 1043 OFFCURVE",
"386 1043 CURVE SMOOTH",
"652 1043 LINE",
"494 144 LINE",
"228 144 LINE SMOOTH",
"183 144 OFFCURVE",
"161 124 OFFCURVE",
"152 72 CURVE SMOOTH",
"143 20 OFFCURVE",
"158 0 OFFCURVE",
"203 0 CURVE SMOOTH",
"905 0 LINE SMOOTH",
"950 0 OFFCURVE",
"971 20 OFFCURVE",
"980 72 CURVE SMOOTH",
"989 124 OFFCURVE",
"975 144 OFFCURVE",
"930 144 CURVE SMOOTH",
"644 144 LINE",
"802 1043 LINE",
"1048 1043 LINE SMOOTH",
"1093 1043 OFFCURVE",
"1115 1063 OFFCURVE",
"1124 1115 CURVE SMOOTH",
"1133 1167 OFFCURVE",
"1119 1187 OFFCURVE",
"1074 1187 CURVE SMOOTH"
);
},
{
closed = 1;
nodes = (
"491 28 LINE",
"340 -82 OFFCURVE",
"253 -190 OFFCURVE",
"253 -310 CURVE SMOOTH",
"253 -406 OFFCURVE",
"311 -472 OFFCURVE",
"418 -472 CURVE SMOOTH",
"482 -472 OFFCURVE",
"547 -460 OFFCURVE",
"596 -443 CURVE SMOOTH",
"627 -432 OFFCURVE",
"637 -411 OFFCURVE",
"632 -374 CURVE SMOOTH",
"627 -337 OFFCURVE",
"612 -322 OFFCURVE",
"585 -326 CURVE SMOOTH",
"549 -332 OFFCURVE",
"513 -336 OFFCURVE",
"474 -336 CURVE SMOOTH",
"434 -336 OFFCURVE",
"409 -316 OFFCURVE",
"409 -277 CURVE SMOOTH",
"409 -200 OFFCURVE",
"488 -104 OFFCURVE",
"661 28 CURVE"
);
}
);
width = 1228;
}
);
unicode = 012E;
},
{
glyphname = Itilde;
lastChange = "2015-01-14 05:27:16 +0000";
layers = (
{
layerId = UUID0;
name = "Regular Italic";
paths = (
{
closed = 1;
nodes = (
"412 1187 LINE SMOOTH",
"367 1187 OFFCURVE",
"345 1167 OFFCURVE",
"336 1115 CURVE SMOOTH",
"327 1063 OFFCURVE",
"341 1043 OFFCURVE",
"386 1043 CURVE SMOOTH",
"652 1043 LINE",
"494 144 LINE",
"228 144 LINE SMOOTH",
"183 144 OFFCURVE",
"161 124 OFFCURVE",
"152 72 CURVE SMOOTH",
"143 20 OFFCURVE",
"158 0 OFFCURVE",
"203 0 CURVE SMOOTH",
"905 0 LINE SMOOTH",
"950 0 OFFCURVE",
"971 20 OFFCURVE",
"980 72 CURVE SMOOTH",
"989 124 OFFCURVE",
"975 144 OFFCURVE",
"930 144 CURVE SMOOTH",
"644 144 LINE",
"802 1043 LINE",
"1048 1043 LINE SMOOTH",
"1093 1043 OFFCURVE",
"1115 1063 OFFCURVE",
"1124 1115 CURVE SMOOTH",
"1133 1167 OFFCURVE",
"1119 1187 OFFCURVE",
"1074 1187 CURVE SMOOTH"
);
},
{
closed = 1;
nodes = (
"586 1557 OFFCURVE",
"522 1532 OFFCURVE",
"443 1466 CURVE SMOOTH",
"422 1449 OFFCURVE",
"420 1421 OFFCURVE",
"437 1392 CURVE SMOOTH",
"454 1363 OFFCURVE",
"477 1354 OFFCURVE",
"499 1367 CURVE SMOOTH",
"546 1395 OFFCURVE",
"594 1409 OFFCURVE",
"634 1409 CURVE SMOOTH",
"724 1409 OFFCURVE",
"804 1346 OFFCURVE",
"903 1346 CURVE SMOOTH",
"960 1346 OFFCURVE",
"1024 1371 OFFCURVE",
"1103 1437 CURVE SMOOTH",
"1124 1454 OFFCURVE",
"1126 1482 OFFCURVE",
"1109 1511 CURVE SMOOTH",
"1092 1540 OFFCURVE",
"1069 1549 OFFCURVE",
"1047 1536 CURVE SMOOTH",
"1000 1508 OFFCURVE",
"952 1494 OFFCURVE",
"912 1494 CURVE SMOOTH",
"822 1494 OFFCURVE",
"742 1557 OFFCURVE",
"643 1557 CURVE SMOOTH"
);
}
);
width = 1228;
}
);
unicode = 0128;
},
{
glyphname = J;
lastChange = "2015-01-12 05:49:59 +0000";
layers = (
{
layerId = UUID0;
name = "Regular Italic";
paths = (
{
closed = 1;
nodes = (
"582 1187 LINE SMOOTH",
"537 1187 OFFCURVE",
"515 1167 OFFCURVE",
"506 1115 CURVE SMOOTH",
"497 1063 OFFCURVE",
"511 1043 OFFCURVE",
"556 1043 CURVE SMOOTH",
"917 1043 LINE",
"798 363 LINE SMOOTH",
"771 210 OFFCURVE",
"678 126 OFFCURVE",
"524 126 CURVE SMOOTH",
"420 126 OFFCURVE",
"325 161 OFFCURVE",
"253 222 CURVE SMOOTH",
"230 242 OFFCURVE",
"200 248 OFFCURVE",
"165 195 CURVE SMOOTH",
"133 146 OFFCURVE",
"139 118 OFFCURVE",
"170 92 CURVE SMOOTH",
"257 17 OFFCURVE",
"385 -22 OFFCURVE",
"517 -22 CURVE SMOOTH",
"753 -22 OFFCURVE",
"902 104 OFFCURVE",
"942 333 CURVE SMOOTH",
"1080 1115 LINE SMOOTH",
"1089 1167 OFFCURVE",
"1075 1187 OFFCURVE",
"1030 1187 CURVE SMOOTH"
);
}
);
width = 1228;
}
);
unicode = 004A;
},
{
glyphname = Jcircumflex;
lastChange = "2015-01-14 05:27:16 +0000";
layers = (
{
layerId = UUID0;
name = "Regular Italic";
paths = (
{
closed = 1;
nodes = (
"582 1187 LINE SMOOTH",
"537 1187 OFFCURVE",
"515 1167 OFFCURVE",
"506 1115 CURVE SMOOTH",
"497 1063 OFFCURVE",
"511 1043 OFFCURVE",
"556 1043 CURVE SMOOTH",
"917 1043 LINE",
"798 363 LINE SMOOTH",
"771 210 OFFCURVE",
"678 126 OFFCURVE",
"524 126 CURVE SMOOTH",
"420 126 OFFCURVE",
"325 161 OFFCURVE",
"253 222 CURVE SMOOTH",
"230 242 OFFCURVE",
"200 248 OFFCURVE",
"165 195 CURVE SMOOTH",
"133 146 OFFCURVE",
"139 118 OFFCURVE",
"170 92 CURVE SMOOTH",
"257 17 OFFCURVE",
"385 -22 OFFCURVE",
"517 -22 CURVE SMOOTH",
"753 -22 OFFCURVE",
"902 104 OFFCURVE",
"942 333 CURVE SMOOTH",
"1080 1115 LINE SMOOTH",
"1089 1167 OFFCURVE",
"1075 1187 OFFCURVE",
"1030 1187 CURVE SMOOTH"
);
},
{
closed = 1;
nodes = (
"943 1468 LINE",
"1195 1309 LINE SMOOTH",
"1216 1295 OFFCURVE",
"1240 1309 OFFCURVE",
"1254 1330 CURVE SMOOTH",
"1267 1351 OFFCURVE",
"1271 1379 OFFCURVE",
"1254 1396 CURVE SMOOTH",
"1008 1628 LINE SMOOTH",
"995 1640 OFFCURVE",
"977 1646 OFFCURVE",
"956 1646 CURVE SMOOTH",
"935 1646 OFFCURVE",
"915 1640 OFFCURVE",
"898 1628 CURVE SMOOTH",
"590 1396 LINE SMOOTH",
"567 1379 OFFCURVE",
"565 1352 OFFCURVE",
"576 1331 CURVE SMOOTH",
"587 1310 OFFCURVE",
"611 1296 OFFCURVE",
"637 1309 CURVE SMOOTH"
);
}
);
width = 1228;
}
);
unicode = 0134;
},
{
glyphname = K;
lastChange = "2015-01-12 05:49:59 +0000";
layers = (
{
layerId = UUID0;
name = "Regular Italic";
paths = (
{
closed = 1;
nodes = (
"387 584 LINE",
"347 354 LINE",
"1175 1094 LINE SMOOTH",
"1213 1127 OFFCURVE",
"1208 1157 OFFCURVE",
"1167 1187 CURVE SMOOTH",
"1128 1216 OFFCURVE",
"1093 1216 OFFCURVE",
"1066 1191 CURVE SMOOTH"
);
},
{
closed = 1;
nodes = (
"429 1197 LINE SMOOTH",
"376 1197 OFFCURVE",
"352 1178 OFFCURVE",
"344 1132 CURVE SMOOTH",
"154 55 LINE SMOOTH",
"146 9 OFFCURVE",
"161 -10 OFFCURVE",
"217 -10 CURVE SMOOTH",
"219 -10 LINE SMOOTH",
"272 -10 OFFCURVE",
"296 9 OFFCURVE",
"304 55 CURVE SMOOTH",
"494 1132 LINE SMOOTH",
"502 1178 OFFCURVE",
"487 1197 OFFCURVE",
"431 1197 CURVE SMOOTH"
);
},
{
closed = 1;
nodes = (
"564 569 LINE",
"894 6 LINE SMOOTH",
"912 -24 OFFCURVE",
"947 -23 OFFCURVE",
"987 0 CURVE SMOOTH",
"1035 28 OFFCURVE",
"1045 55 OFFCURVE",
"1024 92 CURVE SMOOTH",
"682 675 LINE"
);
}
);
width = 1228;
}
);
unicode = 004B;
},
{
glyphname = Kcommaaccent;
lastChange = "2015-01-14 05:27:16 +0000";
layers = (
{
layerId = UUID0;
name = "Regular Italic";
paths = (
{
closed = 1;
nodes = (
"387 584 LINE",
"347 354 LINE",
"1175 1094 LINE SMOOTH",
"1213 1127 OFFCURVE",
"1208 1157 OFFCURVE",
"1167 1187 CURVE SMOOTH",
"1128 1216 OFFCURVE",
"1093 1216 OFFCURVE",
"1066 1191 CURVE SMOOTH"
);
},
{
closed = 1;
nodes = (
"429 1197 LINE SMOOTH",
"376 1197 OFFCURVE",
"352 1178 OFFCURVE",
"344 1132 CURVE SMOOTH",
"154 55 LINE SMOOTH",
"146 9 OFFCURVE",
"161 -10 OFFCURVE",
"217 -10 CURVE SMOOTH",
"219 -10 LINE SMOOTH",
"272 -10 OFFCURVE",
"296 9 OFFCURVE",
"304 55 CURVE SMOOTH",
"494 1132 LINE SMOOTH",
"502 1178 OFFCURVE",
"487 1197 OFFCURVE",
"431 1197 CURVE SMOOTH"
);
},
{
closed = 1;
nodes = (
"564 569 LINE",
"894 6 LINE SMOOTH",
"912 -24 OFFCURVE",
"947 -23 OFFCURVE",
"987 0 CURVE SMOOTH",
"1035 28 OFFCURVE",
"1045 55 OFFCURVE",
"1024 92 CURVE SMOOTH",
"682 675 LINE"
);
},
{
closed = 1;
nodes = (
"657 -197 LINE SMOOTH",
"676 -169 OFFCURVE",
"671 -146 OFFCURVE",
"644 -146 CURVE SMOOTH",
"502 -146 LINE SMOOTH",
"480 -146 OFFCURVE",
"462 -157 OFFCURVE",
"454 -178 CURVE SMOOTH",
"344 -469 LINE SMOOTH",
"331 -503 OFFCURVE",
"348 -525 OFFCURVE",
"385 -525 CURVE SMOOTH",
"416 -525 OFFCURVE",
"444 -510 OFFCURVE",
"459 -488 CURVE SMOOTH"
);
}
);
width = 1228;
}
);
unicode = 0136;
},
{
glyphname = L;
lastChange = "2015-01-12 05:49:59 +0000";
layers = (
{
layerId = UUID0;
name = "Regular Italic";
paths = (
{
closed = 1;
nodes = (
"459 1197 LINE SMOOTH",
"406 1197 OFFCURVE",
"382 1178 OFFCURVE",
"374 1132 CURVE SMOOTH",
"186 68 LINE SMOOTH",
"177 18 OFFCURVE",
"195 0 OFFCURVE",
"240 0 CURVE SMOOTH",
"907 0 LINE SMOOTH",
"952 0 OFFCURVE",
"973 20 OFFCURVE",
"982 72 CURVE SMOOTH",
"991 124 OFFCURVE",
"977 144 OFFCURVE",
"932 144 CURVE SMOOTH",
"350 144 LINE",
"524 1132 LINE SMOOTH",
"532 1178 OFFCURVE",
"517 1197 OFFCURVE",
"461 1197 CURVE SMOOTH"
);
}
);
width = 1228;
}
);
unicode = 004C;
},
{
glyphname = Lacute;
lastChange = "2015-01-14 05:27:16 +0000";
layers = (
{
layerId = UUID0;
name = "Regular Italic";
paths = (
{
closed = 1;
nodes = (
"459 1197 LINE SMOOTH",
"406 1197 OFFCURVE",
"382 1178 OFFCURVE",
"374 1132 CURVE SMOOTH",
"186 68 LINE SMOOTH",
"177 18 OFFCURVE",
"195 0 OFFCURVE",
"240 0 CURVE SMOOTH",
"907 0 LINE SMOOTH",
"952 0 OFFCURVE",
"973 20 OFFCURVE",
"982 72 CURVE SMOOTH",
"991 124 OFFCURVE",
"977 144 OFFCURVE",
"932 144 CURVE SMOOTH",
"350 144 LINE",
"524 1132 LINE SMOOTH",
"532 1178 OFFCURVE",
"517 1197 OFFCURVE",
"461 1197 CURVE SMOOTH"
);
},
{
closed = 1;
nodes = (
"404 1403 LINE SMOOTH",
"381 1390 OFFCURVE",
"376 1364 OFFCURVE",
"385 1341 CURVE SMOOTH",
"394 1318 OFFCURVE",
"415 1301 OFFCURVE",
"440 1309 CURVE SMOOTH",
"921 1472 LINE SMOOTH",
"948 1481 OFFCURVE",
"960 1508 OFFCURVE",
"921 1579 CURVE SMOOTH",
"879 1654 OFFCURVE",
"854 1652 OFFCURVE",
"820 1633 CURVE SMOOTH"
);
}
);
width = 1228;
}
);
unicode = 0139;
},
{
glyphname = Lcaron;
lastChange = "2015-01-14 05:27:17 +0000";
layers = (
{
layerId = UUID0;
name = "Regular Italic";
paths = (
{
closed = 1;
nodes = (
"459 1197 LINE SMOOTH",
"406 1197 OFFCURVE",
"382 1178 OFFCURVE",
"374 1132 CURVE SMOOTH",
"186 68 LINE SMOOTH",
"177 18 OFFCURVE",
"195 0 OFFCURVE",
"240 0 CURVE SMOOTH",
"907 0 LINE SMOOTH",
"952 0 OFFCURVE",
"973 20 OFFCURVE",
"982 72 CURVE SMOOTH",
"991 124 OFFCURVE",
"977 144 OFFCURVE",
"932 144 CURVE SMOOTH",
"350 144 LINE",
"524 1132 LINE SMOOTH",
"532 1178 OFFCURVE",
"517 1197 OFFCURVE",
"461 1197 CURVE SMOOTH"
);
},
{
closed = 1;
nodes = (
"965 1187 LINE SMOOTH",
"942 1187 OFFCURVE",
"931 1181 OFFCURVE",
"923 1160 CURVE SMOOTH",
"776 798 LINE SMOOTH",
"763 764 OFFCURVE",
"786 737 OFFCURVE",
"827 737 CURVE SMOOTH",
"850 737 OFFCURVE",
"869 744 OFFCURVE",
"884 767 CURVE SMOOTH",
"1128 1131 LINE SMOOTH",
"1145 1159 OFFCURVE",
"1133 1187 OFFCURVE",
"1107 1187 CURVE SMOOTH"
);
}
);
width = 1228;
}
);
unicode = 013D;
},
{
glyphname = Lcommaaccent;
lastChange = "2015-01-14 05:27:16 +0000";
layers = (
{
layerId = UUID0;
name = "Regular Italic";
paths = (
{
closed = 1;
nodes = (
"459 1197 LINE SMOOTH",
"406 1197 OFFCURVE",
"382 1178 OFFCURVE",
"374 1132 CURVE SMOOTH",
"186 68 LINE SMOOTH",
"177 18 OFFCURVE",
"195 0 OFFCURVE",
"240 0 CURVE SMOOTH",
"907 0 LINE SMOOTH",
"952 0 OFFCURVE",
"973 20 OFFCURVE",
"982 72 CURVE SMOOTH",
"991 124 OFFCURVE",
"977 144 OFFCURVE",
"932 144 CURVE SMOOTH",
"350 144 LINE",
"524 1132 LINE SMOOTH",
"532 1178 OFFCURVE",
"517 1197 OFFCURVE",
"461 1197 CURVE SMOOTH"
);
},
{
closed = 1;
nodes = (
"643 -197 LINE SMOOTH",
"662 -169 OFFCURVE",
"657 -146 OFFCURVE",
"630 -146 CURVE SMOOTH",
"488 -146 LINE SMOOTH",
"466 -146 OFFCURVE",
"448 -157 OFFCURVE",
"440 -178 CURVE SMOOTH",
"330 -469 LINE SMOOTH",
"317 -503 OFFCURVE",
"334 -525 OFFCURVE",
"371 -525 CURVE SMOOTH",
"402 -525 OFFCURVE",
"430 -510 OFFCURVE",
"445 -488 CURVE SMOOTH"
);
}
);
width = 1228;
}
);
unicode = 013B;
},
{
color = 6;
glyphname = Ldot;
lastChange = "2015-01-14 05:27:16 +0000";
layers = (
{
layerId = UUID0;
name = "Regular Italic";
paths = (
{
closed = 1;
nodes = (
"459 1197 LINE SMOOTH",
"406 1197 OFFCURVE",
"382 1178 OFFCURVE",
"374 1132 CURVE SMOOTH",
"186 68 LINE SMOOTH",
"177 18 OFFCURVE",
"195 0 OFFCURVE",
"240 0 CURVE SMOOTH",
"907 0 LINE SMOOTH",
"952 0 OFFCURVE",
"973 20 OFFCURVE",
"982 72 CURVE SMOOTH",
"991 124 OFFCURVE",
"977 144 OFFCURVE",
"932 144 CURVE SMOOTH",
"350 144 LINE",
"524 1132 LINE SMOOTH",
"532 1178 OFFCURVE",
"517 1197 OFFCURVE",
"461 1197 CURVE SMOOTH"
);
},
{
closed = 1;
nodes = (
"863 569 OFFCURVE",
"942 641 OFFCURVE",
"942 731 CURVE SMOOTH",
"942 796 OFFCURVE",
"892 851 OFFCURVE",
"821 851 CURVE SMOOTH",
"737 851 OFFCURVE",
"656 779 OFFCURVE",
"656 690 CURVE SMOOTH",
"656 623 OFFCURVE",
"707 569 OFFCURVE",
"778 569 CURVE SMOOTH"
);
}
);
width = 1228;
}
);
unicode = 013F;
},
{
color = 6;
glyphname = Lslash;
lastChange = "2015-01-12 05:49:59 +0000";
layers = (
{
layerId = UUID0;
name = "Regular Italic";
paths = (
{
closed = 1;
nodes = (
"519 1197 LINE SMOOTH",
"466 1197 OFFCURVE",
"442 1178 OFFCURVE",
"434 1132 CURVE SMOOTH",
"246 68 LINE SMOOTH",
"237 18 OFFCURVE",
"255 0 OFFCURVE",
"300 0 CURVE SMOOTH",
"907 0 LINE SMOOTH",
"952 0 OFFCURVE",
"973 20 OFFCURVE",
"982 72 CURVE SMOOTH",
"991 124 OFFCURVE",
"977 144 OFFCURVE",
"932 144 CURVE SMOOTH",
"410 144 LINE",
"584 1132 LINE SMOOTH",
"592 1178 OFFCURVE",
"577 1197 OFFCURVE",
"521 1197 CURVE SMOOTH"
);
},
{
closed = 1;
nodes = (
"110 468 LINE SMOOTH",
"73 443 OFFCURVE",
"68 418 OFFCURVE",
"96 377 CURVE SMOOTH",
"124 335 OFFCURVE",
"150 331 OFFCURVE",
"187 356 CURVE SMOOTH",
"756 743 LINE SMOOTH",
"793 768 OFFCURVE",
"798 793 OFFCURVE",
"770 834 CURVE SMOOTH",
"742 876 OFFCURVE",
"716 880 OFFCURVE",
"679 855 CURVE SMOOTH"
);
}
);
width = 1228;
}
);
unicode = 0141;
},
{
glyphname = M;
lastChange = "2015-01-12 05:49:59 +0000";
layers = (
{
layerId = UUID0;
name = "Regular Italic";
paths = (
{
closed = 1;
nodes = (
"1111 1197 LINE SMOOTH",
"1064 1197 OFFCURVE",
"1030 1177 OFFCURVE",
"1001 1132 CURVE SMOOTH",
"636 562 LINE",
"471 1132 LINE SMOOTH",
"458 1177 OFFCURVE",
"437 1197 OFFCURVE",
"390 1197 CURVE SMOOTH",
"388 1197 LINE SMOOTH",
"341 1197 OFFCURVE",
"314 1182 OFFCURVE",
"304 1132 CURVE SMOOTH",
"84 55 LINE SMOOTH",
"75 10 OFFCURVE",
"94 -10 OFFCURVE",
"148 -10 CURVE SMOOTH",
"150 -10 LINE SMOOTH",
"206 -10 OFFCURVE",
"224 9 OFFCURVE",
"233 55 CURVE SMOOTH",
"398 868 LINE",
"526 422 LINE SMOOTH",
"540 375 OFFCURVE",
"564 358 OFFCURVE",
"609 358 CURVE SMOOTH",
"654 358 OFFCURVE",
"680 375 OFFCURVE",
"710 422 CURVE SMOOTH",
"996 868 LINE",
"873 55 LINE SMOOTH",
"866 9 OFFCURVE",
"882 -10 OFFCURVE",
"938 -10 CURVE SMOOTH",
"940 -10 LINE SMOOTH",
"995 -10 OFFCURVE",
"1015 10 OFFCURVE",
"1022 55 CURVE SMOOTH",
"1182 1132 LINE SMOOTH",
"1190 1182 OFFCURVE",
"1160 1197 OFFCURVE",
"1113 1197 CURVE SMOOTH"
);
}
);
width = 1228;
}
);
unicode = 004D;
},
{
glyphname = N;
lastChange = "2015-01-12 05:49:59 +0000";
layers = (
{
background = {
paths = (
{
closed = 1;
nodes = (
"1117 1197 LINE SMOOTH",
"1064 1197 OFFCURVE",
"1040 1178 OFFCURVE",
"1032 1132 CURVE SMOOTH",
"874 234 LINE",
"900 237 LINE",
"475 1169 LINE SMOOTH",
"467 1187 OFFCURVE",
"447 1197 OFFCURVE",
"418 1197 CURVE SMOOTH",
"391 1197 LINE SMOOTH",
"335 1197 OFFCURVE",
"312 1178 OFFCURVE",
"304 1132 CURVE SMOOTH",
"114 55 LINE SMOOTH",
"106 9 OFFCURVE",
"121 -10 OFFCURVE",
"177 -10 CURVE SMOOTH",
"179 -10 LINE SMOOTH",
"232 -10 OFFCURVE",
"256 9 OFFCURVE",
"264 55 CURVE SMOOTH",
"427 976 LINE",
"400 972 LINE",
"829 33 LINE SMOOTH",
"845 -1 OFFCURVE",
"866 -22 OFFCURVE",
"904 -22 CURVE SMOOTH",
"956 -22 OFFCURVE",
"983 2 OFFCURVE",
"989 37 CURVE SMOOTH",
"1182 1132 LINE SMOOTH",
"1190 1178 OFFCURVE",
"1175 1197 OFFCURVE",
"1119 1197 CURVE SMOOTH"
);
}
);
};
layerId = UUID0;
name = "Regular Italic";
paths = (
{
closed = 1;
nodes = (
"1119 1197 LINE SMOOTH",
"1068 1197 OFFCURVE",
"1044 1178 OFFCURVE",
"1036 1132 CURVE SMOOTH",
"886 277 LINE",
"881.62 277.307 LINE",
"475 1169 LINE SMOOTH",
"467 1187 OFFCURVE",
"447 1197 OFFCURVE",
"418 1197 CURVE SMOOTH",
"391 1197 LINE SMOOTH",
"335 1197 OFFCURVE",
"312 1178 OFFCURVE",
"304 1132 CURVE SMOOTH",
"114 55 LINE SMOOTH",
"106 9 OFFCURVE",
"121 -10 OFFCURVE",
"175 -10 CURVE SMOOTH",
"177 -10 LINE SMOOTH",
"228 -10 OFFCURVE",
"252 9 OFFCURVE",
"260 55 CURVE SMOOTH",
"415 931 LINE",
"418.951 930.52 LINE",
"829 33 LINE SMOOTH",
"845 -1 OFFCURVE",
"866 -22 OFFCURVE",
"904 -22 CURVE SMOOTH",
"956 -22 OFFCURVE",
"983 2 OFFCURVE",
"989 37 CURVE SMOOTH",
"1182 1132 LINE SMOOTH",
"1190 1178 OFFCURVE",
"1175 1197 OFFCURVE",
"1121 1197 CURVE SMOOTH"
);
}
);
width = 1228;
}
);
unicode = 004E;
},
{
glyphname = Nacute;
lastChange = "2015-01-14 05:27:16 +0000";
layers = (
{
layerId = UUID0;
name = "Regular Italic";
paths = (
{
closed = 1;
nodes = (
"1119 1197 LINE SMOOTH",
"1068 1197 OFFCURVE",
"1044 1178 OFFCURVE",
"1036 1132 CURVE SMOOTH",
"886 277 LINE",
"881.62 277.307 LINE",
"475 1169 LINE SMOOTH",
"467 1187 OFFCURVE",
"447 1197 OFFCURVE",
"418 1197 CURVE SMOOTH",
"391 1197 LINE SMOOTH",
"335 1197 OFFCURVE",
"312 1178 OFFCURVE",
"304 1132 CURVE SMOOTH",
"114 55 LINE SMOOTH",
"106 9 OFFCURVE",
"121 -10 OFFCURVE",
"175 -10 CURVE SMOOTH",
"177 -10 LINE SMOOTH",
"228 -10 OFFCURVE",
"252 9 OFFCURVE",
"260 55 CURVE SMOOTH",
"415 931 LINE",
"418.951 930.52 LINE",
"829 33 LINE SMOOTH",
"845 -1 OFFCURVE",
"866 -22 OFFCURVE",
"904 -22 CURVE SMOOTH",
"956 -22 OFFCURVE",
"983 2 OFFCURVE",
"989 37 CURVE SMOOTH",
"1182 1132 LINE SMOOTH",
"1190 1178 OFFCURVE",
"1175 1197 OFFCURVE",
"1121 1197 CURVE SMOOTH"
);
},
{
closed = 1;
nodes = (
"584 1403 LINE SMOOTH",
"561 1390 OFFCURVE",
"556 1364 OFFCURVE",
"565 1341 CURVE SMOOTH",
"574 1318 OFFCURVE",
"595 1301 OFFCURVE",
"620 1309 CURVE SMOOTH",
"1101 1472 LINE SMOOTH",
"1128 1481 OFFCURVE",
"1140 1508 OFFCURVE",
"1101 1579 CURVE SMOOTH",
"1059 1654 OFFCURVE",
"1034 1652 OFFCURVE",
"1000 1633 CURVE SMOOTH"
);
}
);
width = 1228;
}
);
unicode = 0143;
},
{
glyphname = Ncaron;
lastChange = "2015-01-14 05:27:16 +0000";
layers = (
{
layerId = UUID0;
name = "Regular Italic";
paths = (
{
closed = 1;
nodes = (
"1119 1197 LINE SMOOTH",
"1068 1197 OFFCURVE",
"1044 1178 OFFCURVE",
"1036 1132 CURVE SMOOTH",
"886 277 LINE",
"881.62 277.307 LINE",
"475 1169 LINE SMOOTH",
"467 1187 OFFCURVE",
"447 1197 OFFCURVE",
"418 1197 CURVE SMOOTH",
"391 1197 LINE SMOOTH",
"335 1197 OFFCURVE",
"312 1178 OFFCURVE",
"304 1132 CURVE SMOOTH",
"114 55 LINE SMOOTH",
"106 9 OFFCURVE",
"121 -10 OFFCURVE",
"175 -10 CURVE SMOOTH",
"177 -10 LINE SMOOTH",
"228 -10 OFFCURVE",
"252 9 OFFCURVE",
"260 55 CURVE SMOOTH",
"415 931 LINE",
"418.951 930.52 LINE",
"829 33 LINE SMOOTH",
"845 -1 OFFCURVE",
"866 -22 OFFCURVE",
"904 -22 CURVE SMOOTH",
"956 -22 OFFCURVE",
"983 2 OFFCURVE",
"989 37 CURVE SMOOTH",
"1182 1132 LINE SMOOTH",
"1190 1178 OFFCURVE",
"1175 1197 OFFCURVE",
"1121 1197 CURVE SMOOTH"
);
},
{
closed = 1;
nodes = (
"779 1475 LINE",
"527 1634 LINE SMOOTH",
"506 1648 OFFCURVE",
"482 1634 OFFCURVE",
"468 1613 CURVE SMOOTH",
"455 1592 OFFCURVE",
"451 1564 OFFCURVE",
"468 1547 CURVE SMOOTH",
"714 1315 LINE SMOOTH",
"727 1303 OFFCURVE",
"745 1297 OFFCURVE",
"766 1297 CURVE SMOOTH",
"787 1297 OFFCURVE",
"807 1303 OFFCURVE",
"824 1315 CURVE SMOOTH",
"1132 1547 LINE SMOOTH",
"1155 1564 OFFCURVE",
"1157 1591 OFFCURVE",
"1146 1612 CURVE SMOOTH",
"1135 1633 OFFCURVE",
"1111 1647 OFFCURVE",
"1085 1634 CURVE SMOOTH"
);
}
);
width = 1228;
}
);
unicode = 0147;
},
{
glyphname = Ncommaaccent;
lastChange = "2015-01-14 05:27:16 +0000";
layers = (
{
layerId = UUID0;
name = "Regular Italic";
paths = (
{
closed = 1;
nodes = (
"1119 1197 LINE SMOOTH",
"1068 1197 OFFCURVE",
"1044 1178 OFFCURVE",
"1036 1132 CURVE SMOOTH",
"886 277 LINE",
"881.62 277.307 LINE",
"475 1169 LINE SMOOTH",
"467 1187 OFFCURVE",
"447 1197 OFFCURVE",
"418 1197 CURVE SMOOTH",
"391 1197 LINE SMOOTH",
"335 1197 OFFCURVE",
"312 1178 OFFCURVE",
"304 1132 CURVE SMOOTH",
"114 55 LINE SMOOTH",
"106 9 OFFCURVE",
"121 -10 OFFCURVE",
"175 -10 CURVE SMOOTH",
"177 -10 LINE SMOOTH",
"228 -10 OFFCURVE",
"252 9 OFFCURVE",
"260 55 CURVE SMOOTH",
"415 931 LINE",
"418.951 930.52 LINE",
"829 33 LINE SMOOTH",
"845 -1 OFFCURVE",
"866 -22 OFFCURVE",
"904 -22 CURVE SMOOTH",
"956 -22 OFFCURVE",
"983 2 OFFCURVE",
"989 37 CURVE SMOOTH",
"1182 1132 LINE SMOOTH",
"1190 1178 OFFCURVE",
"1175 1197 OFFCURVE",
"1121 1197 CURVE SMOOTH"
);
},
{
closed = 1;
nodes = (
"637 -197 LINE SMOOTH",
"656 -169 OFFCURVE",
"651 -146 OFFCURVE",
"624 -146 CURVE SMOOTH",
"482 -146 LINE SMOOTH",
"460 -146 OFFCURVE",
"442 -157 OFFCURVE",
"434 -178 CURVE SMOOTH",
"324 -469 LINE SMOOTH",
"311 -503 OFFCURVE",
"328 -525 OFFCURVE",
"365 -525 CURVE SMOOTH",
"396 -525 OFFCURVE",
"424 -510 OFFCURVE",
"439 -488 CURVE SMOOTH"
);
}
);
width = 1228;
}
);
unicode = 0145;
},
{
color = 3;
glyphname = Eng;
lastChange = "2015-01-12 05:49:59 +0000";
layers = (
{
background = {
components = (
{
name = N;
transform = "{1, 0, 0, 1, 0, 0}";
}
);
paths = (
{
closed = 1;
nodes = (
"868 198 LINE",
"814 -107 LINE SMOOTH",
"794 -220 OFFCURVE",
"740 -264 OFFCURVE",
"658 -264 CURVE SMOOTH",
"598 -264 OFFCURVE",
"537 -246 OFFCURVE",
"488 -224 CURVE SMOOTH",
"461 -212 OFFCURVE",
"427 -219 OFFCURVE",
"405 -266 CURVE SMOOTH",
"381 -317 OFFCURVE",
"390 -343 OFFCURVE",
"425 -360 CURVE SMOOTH",
"488 -390 OFFCURVE",
"567 -410 OFFCURVE",
"647 -410 CURVE SMOOTH",
"823 -410 OFFCURVE",
"927 -314 OFFCURVE",
"959 -135 CURVE SMOOTH",
"1018 198 LINE"
);
}
);
};
layerId = UUID0;
name = "Regular Italic";
paths = (
{
closed = 1;
nodes = (
"1119 1197 LINE SMOOTH",
"1068 1197 OFFCURVE",
"1044 1178 OFFCURVE",
"1036 1132 CURVE SMOOTH",
"886 277 LINE",
"882 277 LINE",
"475 1169 LINE SMOOTH",
"467 1187 OFFCURVE",
"447 1197 OFFCURVE",
"418 1197 CURVE SMOOTH",
"391 1197 LINE SMOOTH",
"335 1197 OFFCURVE",
"312 1178 OFFCURVE",
"304 1132 CURVE SMOOTH",
"114 55 LINE SMOOTH",
"106 9 OFFCURVE",
"121 -10 OFFCURVE",
"175 -10 CURVE SMOOTH",
"177 -10 LINE SMOOTH",
"228 -10 OFFCURVE",
"252 9 OFFCURVE",
"260 55 CURVE SMOOTH",
"415 931 LINE",
"419 931 LINE",
"836 18 LINE",
"814 -107 LINE SMOOTH",
"794 -220 OFFCURVE",
"740 -264 OFFCURVE",
"658 -264 CURVE SMOOTH",
"598 -264 OFFCURVE",
"537 -246 OFFCURVE",
"488 -224 CURVE SMOOTH",
"461 -212 OFFCURVE",
"427 -219 OFFCURVE",
"405 -266 CURVE SMOOTH",
"381 -317 OFFCURVE",
"390 -343 OFFCURVE",
"425 -360 CURVE SMOOTH",
"488 -390 OFFCURVE",
"567 -410 OFFCURVE",
"647 -410 CURVE SMOOTH",
"823 -410 OFFCURVE",
"927 -314 OFFCURVE",
"959 -135 CURVE SMOOTH",
"1182 1132 LINE SMOOTH",
"1190 1178 OFFCURVE",
"1175 1197 OFFCURVE",
"1121 1197 CURVE SMOOTH"
);
}
);
width = 1228;
}
);
unicode = 014A;
},
{
glyphname = Ntilde;
lastChange = "2015-01-14 05:27:16 +0000";
layers = (
{
layerId = UUID0;
name = "Regular Italic";
paths = (
{
closed = 1;
nodes = (
"1119 1197 LINE SMOOTH",
"1068 1197 OFFCURVE",
"1044 1178 OFFCURVE",
"1036 1132 CURVE SMOOTH",
"886 277 LINE",
"881.62 277.307 LINE",
"475 1169 LINE SMOOTH",
"467 1187 OFFCURVE",
"447 1197 OFFCURVE",
"418 1197 CURVE SMOOTH",
"391 1197 LINE SMOOTH",
"335 1197 OFFCURVE",
"312 1178 OFFCURVE",
"304 1132 CURVE SMOOTH",
"114 55 LINE SMOOTH",
"106 9 OFFCURVE",
"121 -10 OFFCURVE",
"175 -10 CURVE SMOOTH",
"177 -10 LINE SMOOTH",
"228 -10 OFFCURVE",
"252 9 OFFCURVE",
"260 55 CURVE SMOOTH",
"415 931 LINE",
"418.951 930.52 LINE",
"829 33 LINE SMOOTH",
"845 -1 OFFCURVE",
"866 -22 OFFCURVE",
"904 -22 CURVE SMOOTH",
"956 -22 OFFCURVE",
"983 2 OFFCURVE",
"989 37 CURVE SMOOTH",
"1182 1132 LINE SMOOTH",
"1190 1178 OFFCURVE",
"1175 1197 OFFCURVE",
"1121 1197 CURVE SMOOTH"
);
},
{
closed = 1;
nodes = (
"598 1557 OFFCURVE",
"534 1532 OFFCURVE",
"455 1466 CURVE SMOOTH",
"434 1449 OFFCURVE",
"432 1421 OFFCURVE",
"449 1392 CURVE SMOOTH",
"466 1363 OFFCURVE",
"489 1354 OFFCURVE",
"511 1367 CURVE SMOOTH",
"558 1395 OFFCURVE",
"606 1409 OFFCURVE",
"646 1409 CURVE SMOOTH",
"736 1409 OFFCURVE",
"816 1346 OFFCURVE",
"915 1346 CURVE SMOOTH",
"972 1346 OFFCURVE",
"1036 1371 OFFCURVE",
"1115 1437 CURVE SMOOTH",
"1136 1454 OFFCURVE",
"1138 1482 OFFCURVE",
"1121 1511 CURVE SMOOTH",
"1104 1540 OFFCURVE",
"1081 1549 OFFCURVE",
"1059 1536 CURVE SMOOTH",
"1012 1508 OFFCURVE",
"964 1494 OFFCURVE",
"924 1494 CURVE SMOOTH",
"834 1494 OFFCURVE",
"754 1557 OFFCURVE",
"655 1557 CURVE SMOOTH"
);
}
);
width = 1228;
}
);
unicode = 00D1;
},
{
glyphname = O;
lastChange = "2015-01-12 05:49:59 +0000";
layers = (
{
background = {
paths = (
{
closed = 1;
nodes = (
"1183 1018 OFFCURVE",
"1014 1209 OFFCURVE",
"742 1209 CURVE SMOOTH",
"334 1209 OFFCURVE",
"113 819 OFFCURVE",
"113 458 CURVE SMOOTH",
"113 168 OFFCURVE",
"283 -22 OFFCURVE",
"555 -22 CURVE SMOOTH",
"963 -22 OFFCURVE",
"1183 367 OFFCURVE",
"1183 728 CURVE"
);
},
{
closed = 1;
nodes = (
"1030 449 OFFCURVE",
"868 126 OFFCURVE",
"566 126 CURVE SMOOTH",
"379 126 OFFCURVE",
"266 253 OFFCURVE",
"266 465 CURVE SMOOTH",
"266 738 OFFCURVE",
"429 1061 OFFCURVE",
"731 1061 CURVE SMOOTH",
"918 1061 OFFCURVE",
"1030 933 OFFCURVE",
"1030 722 CURVE SMOOTH"
);
}
);
};
layerId = UUID0;
name = "Regular Italic";
paths = (
{
closed = 1;
nodes = (
"534 1209 OFFCURVE",
"375 1108 OFFCURVE",
"269 961 CURVE SMOOTH",
"166 818 OFFCURVE",
"114 636 OFFCURVE",
"114 459 CURVE SMOOTH",
"114 169 OFFCURVE",
"283 -22 OFFCURVE",
"555 -22 CURVE SMOOTH",
"763 -22 OFFCURVE",
"922 79 OFFCURVE",
"1028 226 CURVE SMOOTH",
"1131 369 OFFCURVE",
"1183 551 OFFCURVE",
"1183 728 CURVE SMOOTH",
"1183 1018 OFFCURVE",
"1014 1209 OFFCURVE",
"742 1209 CURVE SMOOTH"
);
},
{
closed = 1;
nodes = (
"918 1061 OFFCURVE",
"1030 933 OFFCURVE",
"1030 722 CURVE SMOOTH",
"1030 580 OFFCURVE",
"986 426 OFFCURVE",
"902 309 CURVE SMOOTH",
"825 201 OFFCURVE",
"711 126 OFFCURVE",
"566 126 CURVE SMOOTH",
"379 126 OFFCURVE",
"267 254 OFFCURVE",
"267 465 CURVE SMOOTH",
"267 607 OFFCURVE",
"311 761 OFFCURVE",
"395 878 CURVE SMOOTH",
"472 986 OFFCURVE",
"586 1061 OFFCURVE",
"731 1061 CURVE SMOOTH"
);
}
);
width = 1228;
}
);
unicode = 004F;
},
{
glyphname = Oacute;
lastChange = "2015-01-14 05:27:16 +0000";
layers = (
{
layerId = UUID0;
name = "Regular Italic";
paths = (
{
closed = 1;
nodes = (
"534 1209 OFFCURVE",
"375 1108 OFFCURVE",
"269 961 CURVE SMOOTH",
"166 818 OFFCURVE",
"114 636 OFFCURVE",
"114 459 CURVE SMOOTH",
"114 169 OFFCURVE",
"283 -22 OFFCURVE",
"555 -22 CURVE SMOOTH",
"763 -22 OFFCURVE",
"922 79 OFFCURVE",
"1028 226 CURVE SMOOTH",
"1131 369 OFFCURVE",
"1183 551 OFFCURVE",
"1183 728 CURVE SMOOTH",
"1183 1018 OFFCURVE",
"1014 1209 OFFCURVE",
"742 1209 CURVE SMOOTH"
);
},
{
closed = 1;
nodes = (
"918 1061 OFFCURVE",
"1030 933 OFFCURVE",
"1030 722 CURVE SMOOTH",
"1030 580 OFFCURVE",
"986 426 OFFCURVE",
"902 309 CURVE SMOOTH",
"825 201 OFFCURVE",
"711 126 OFFCURVE",
"566 126 CURVE SMOOTH",
"379 126 OFFCURVE",
"267 254 OFFCURVE",
"267 465 CURVE SMOOTH",
"267 607 OFFCURVE",
"311 761 OFFCURVE",
"395 878 CURVE SMOOTH",
"472 986 OFFCURVE",
"586 1061 OFFCURVE",
"731 1061 CURVE SMOOTH"
);
},
{
closed = 1;
nodes = (
"560 1403 LINE SMOOTH",
"537 1390 OFFCURVE",
"532 1364 OFFCURVE",
"541 1341 CURVE SMOOTH",
"550 1318 OFFCURVE",
"571 1301 OFFCURVE",
"596 1309 CURVE SMOOTH",
"1077 1472 LINE SMOOTH",
"1104 1481 OFFCURVE",
"1116 1508 OFFCURVE",
"1077 1579 CURVE SMOOTH",
"1035 1654 OFFCURVE",
"1010 1652 OFFCURVE",
"976 1633 CURVE SMOOTH"
);
}
);
width = 1228;
}
);
unicode = 00D3;
},
{
glyphname = Obreve;
lastChange = "2015-01-14 05:27:16 +0000";
layers = (
{
layerId = UUID0;
name = "Regular Italic";
paths = (
{
closed = 1;
nodes = (
"534 1209 OFFCURVE",
"375 1108 OFFCURVE",
"269 961 CURVE SMOOTH",
"166 818 OFFCURVE",
"114 636 OFFCURVE",
"114 459 CURVE SMOOTH",
"114 169 OFFCURVE",
"283 -22 OFFCURVE",
"555 -22 CURVE SMOOTH",
"763 -22 OFFCURVE",
"922 79 OFFCURVE",
"1028 226 CURVE SMOOTH",
"1131 369 OFFCURVE",
"1183 551 OFFCURVE",
"1183 728 CURVE SMOOTH",
"1183 1018 OFFCURVE",
"1014 1209 OFFCURVE",
"742 1209 CURVE SMOOTH"
);
},
{
closed = 1;
nodes = (
"918 1061 OFFCURVE",
"1030 933 OFFCURVE",
"1030 722 CURVE SMOOTH",
"1030 580 OFFCURVE",
"986 426 OFFCURVE",
"902 309 CURVE SMOOTH",
"825 201 OFFCURVE",
"711 126 OFFCURVE",
"566 126 CURVE SMOOTH",
"379 126 OFFCURVE",
"267 254 OFFCURVE",
"267 465 CURVE SMOOTH",
"267 607 OFFCURVE",
"311 761 OFFCURVE",
"395 878 CURVE SMOOTH",
"472 986 OFFCURVE",
"586 1061 OFFCURVE",
"731 1061 CURVE SMOOTH"
);
},
{
closed = 1;
nodes = (
"1124 1633 OFFCURVE",
"1089 1631 OFFCURVE",
"1073 1608 CURVE SMOOTH",
"1012 1518 OFFCURVE",
"922 1485 OFFCURVE",
"786 1485 CURVE SMOOTH",
"650 1485 OFFCURVE",
"570 1518 OFFCURVE",
"535 1608 CURVE SMOOTH",
"527 1629 OFFCURVE",
"498 1632 OFFCURVE",
"473 1622 CURVE SMOOTH",
"449 1613 OFFCURVE",
"428 1593 OFFCURVE",
"430 1568 CURVE SMOOTH",
"444 1430 OFFCURVE",
"568 1341 OFFCURVE",
"775 1341 CURVE SMOOTH",
"982 1341 OFFCURVE",
"1127 1430 OFFCURVE",
"1184 1568 CURVE SMOOTH",
"1194 1592 OFFCURVE",
"1176 1612 OFFCURVE",
"1151 1622 CURVE SMOOTH"
);
}
);
width = 1228;
}
);
unicode = 014E;
},
{
glyphname = Ocircumflex;
lastChange = "2015-01-14 05:27:16 +0000";
layers = (
{
layerId = UUID0;
name = "Regular Italic";
paths = (
{
closed = 1;
nodes = (
"534 1209 OFFCURVE",
"375 1108 OFFCURVE",
"269 961 CURVE SMOOTH",
"166 818 OFFCURVE",
"114 636 OFFCURVE",
"114 459 CURVE SMOOTH",
"114 169 OFFCURVE",
"283 -22 OFFCURVE",
"555 -22 CURVE SMOOTH",
"763 -22 OFFCURVE",
"922 79 OFFCURVE",
"1028 226 CURVE SMOOTH",
"1131 369 OFFCURVE",
"1183 551 OFFCURVE",
"1183 728 CURVE SMOOTH",
"1183 1018 OFFCURVE",
"1014 1209 OFFCURVE",
"742 1209 CURVE SMOOTH"
);
},
{
closed = 1;
nodes = (
"918 1061 OFFCURVE",
"1030 933 OFFCURVE",
"1030 722 CURVE SMOOTH",
"1030 580 OFFCURVE",
"986 426 OFFCURVE",
"902 309 CURVE SMOOTH",
"825 201 OFFCURVE",
"711 126 OFFCURVE",
"566 126 CURVE SMOOTH",
"379 126 OFFCURVE",
"267 254 OFFCURVE",
"267 465 CURVE SMOOTH",
"267 607 OFFCURVE",
"311 761 OFFCURVE",
"395 878 CURVE SMOOTH",
"472 986 OFFCURVE",
"586 1061 OFFCURVE",
"731 1061 CURVE SMOOTH"
);
},
{
closed = 1;
nodes = (
"791 1468 LINE",
"1043 1309 LINE SMOOTH",
"1064 1295 OFFCURVE",
"1088 1309 OFFCURVE",
"1102 1330 CURVE SMOOTH",
"1115 1351 OFFCURVE",
"1119 1379 OFFCURVE",
"1102 1396 CURVE SMOOTH",
"856 1628 LINE SMOOTH",
"843 1640 OFFCURVE",
"825 1646 OFFCURVE",
"804 1646 CURVE SMOOTH",
"783 1646 OFFCURVE",
"763 1640 OFFCURVE",
"746 1628 CURVE SMOOTH",
"438 1396 LINE SMOOTH",
"415 1379 OFFCURVE",
"413 1352 OFFCURVE",
"424 1331 CURVE SMOOTH",
"435 1310 OFFCURVE",
"459 1296 OFFCURVE",
"485 1309 CURVE SMOOTH"
);
}
);
width = 1228;
}
);
unicode = 00D4;
},
{
glyphname = Odieresis;
lastChange = "2015-01-14 05:27:16 +0000";
layers = (
{
layerId = UUID0;
name = "Regular Italic";
paths = (
{
closed = 1;
nodes = (
"534 1209 OFFCURVE",
"375 1108 OFFCURVE",
"269 961 CURVE SMOOTH",
"166 818 OFFCURVE",
"114 636 OFFCURVE",
"114 459 CURVE SMOOTH",
"114 169 OFFCURVE",
"283 -22 OFFCURVE",
"555 -22 CURVE SMOOTH",
"763 -22 OFFCURVE",
"922 79 OFFCURVE",
"1028 226 CURVE SMOOTH",
"1131 369 OFFCURVE",
"1183 551 OFFCURVE",
"1183 728 CURVE SMOOTH",
"1183 1018 OFFCURVE",
"1014 1209 OFFCURVE",
"742 1209 CURVE SMOOTH"
);
},
{
closed = 1;
nodes = (
"918 1061 OFFCURVE",
"1030 933 OFFCURVE",
"1030 722 CURVE SMOOTH",
"1030 580 OFFCURVE",
"986 426 OFFCURVE",
"902 309 CURVE SMOOTH",
"825 201 OFFCURVE",
"711 126 OFFCURVE",
"566 126 CURVE SMOOTH",
"379 126 OFFCURVE",
"267 254 OFFCURVE",
"267 465 CURVE SMOOTH",
"267 607 OFFCURVE",
"311 761 OFFCURVE",
"395 878 CURVE SMOOTH",
"472 986 OFFCURVE",
"586 1061 OFFCURVE",
"731 1061 CURVE SMOOTH"
);
},
{
closed = 1;
nodes = (
"628 1340 OFFCURVE",
"698 1403 OFFCURVE",
"698 1483 CURVE SMOOTH",
"698 1542 OFFCURVE",
"654 1590 OFFCURVE",
"591 1590 CURVE SMOOTH",
"517 1590 OFFCURVE",
"446 1525 OFFCURVE",
"446 1448 CURVE SMOOTH",
"446 1388 OFFCURVE",
"490 1340 OFFCURVE",
"554 1340 CURVE SMOOTH"
);
},
{
closed = 1;
nodes = (
"1068 1340 OFFCURVE",
"1138 1403 OFFCURVE",
"1138 1483 CURVE SMOOTH",
"1138 1542 OFFCURVE",
"1094 1590 OFFCURVE",
"1031 1590 CURVE SMOOTH",
"957 1590 OFFCURVE",
"886 1525 OFFCURVE",
"886 1448 CURVE SMOOTH",
"886 1388 OFFCURVE",
"930 1340 OFFCURVE",
"994 1340 CURVE SMOOTH"
);
}
);
width = 1228;
}
);
unicode = 00D6;
},
{
glyphname = Ograve;
lastChange = "2015-01-14 05:27:16 +0000";
layers = (
{
layerId = UUID0;
name = "Regular Italic";
paths = (
{
closed = 1;
nodes = (
"534 1209 OFFCURVE",
"375 1108 OFFCURVE",
"269 961 CURVE SMOOTH",
"166 818 OFFCURVE",
"114 636 OFFCURVE",
"114 459 CURVE SMOOTH",
"114 169 OFFCURVE",
"283 -22 OFFCURVE",
"555 -22 CURVE SMOOTH",
"763 -22 OFFCURVE",
"922 79 OFFCURVE",
"1028 226 CURVE SMOOTH",
"1131 369 OFFCURVE",
"1183 551 OFFCURVE",
"1183 728 CURVE SMOOTH",
"1183 1018 OFFCURVE",
"1014 1209 OFFCURVE",
"742 1209 CURVE SMOOTH"
);
},
{
closed = 1;
nodes = (
"918 1061 OFFCURVE",
"1030 933 OFFCURVE",
"1030 722 CURVE SMOOTH",
"1030 580 OFFCURVE",
"986 426 OFFCURVE",
"902 309 CURVE SMOOTH",
"825 201 OFFCURVE",
"711 126 OFFCURVE",
"566 126 CURVE SMOOTH",
"379 126 OFFCURVE",
"267 254 OFFCURVE",
"267 465 CURVE SMOOTH",
"267 607 OFFCURVE",
"311 761 OFFCURVE",
"395 878 CURVE SMOOTH",
"472 986 OFFCURVE",
"586 1061 OFFCURVE",
"731 1061 CURVE SMOOTH"
);
},
{
closed = 1;
nodes = (
"586 1633 LINE SMOOTH",
"552 1652 OFFCURVE",
"527 1654 OFFCURVE",
"485 1579 CURVE SMOOTH",
"446 1508 OFFCURVE",
"458 1481 OFFCURVE",
"485 1472 CURVE SMOOTH",
"966 1309 LINE SMOOTH",
"991 1301 OFFCURVE",
"1012 1318 OFFCURVE",
"1021 1341 CURVE SMOOTH",
"1030 1364 OFFCURVE",
"1025 1390 OFFCURVE",
"1002 1403 CURVE SMOOTH"
);
}
);
width = 1228;
}
);
unicode = 00D2;
},
{
glyphname = Ohungarumlaut;
lastChange = "2015-01-14 05:27:16 +0000";
layers = (
{
layerId = UUID0;
name = "Regular Italic";
paths = (
{
closed = 1;
nodes = (
"534 1209 OFFCURVE",
"375 1108 OFFCURVE",
"269 961 CURVE SMOOTH",
"166 818 OFFCURVE",
"114 636 OFFCURVE",
"114 459 CURVE SMOOTH",
"114 169 OFFCURVE",
"283 -22 OFFCURVE",
"555 -22 CURVE SMOOTH",
"763 -22 OFFCURVE",
"922 79 OFFCURVE",
"1028 226 CURVE SMOOTH",
"1131 369 OFFCURVE",
"1183 551 OFFCURVE",
"1183 728 CURVE SMOOTH",
"1183 1018 OFFCURVE",
"1014 1209 OFFCURVE",
"742 1209 CURVE SMOOTH"
);
},
{
closed = 1;
nodes = (
"918 1061 OFFCURVE",
"1030 933 OFFCURVE",
"1030 722 CURVE SMOOTH",
"1030 580 OFFCURVE",
"986 426 OFFCURVE",
"902 309 CURVE SMOOTH",
"825 201 OFFCURVE",
"711 126 OFFCURVE",
"566 126 CURVE SMOOTH",
"379 126 OFFCURVE",
"267 254 OFFCURVE",
"267 465 CURVE SMOOTH",
"267 607 OFFCURVE",
"311 761 OFFCURVE",
"395 878 CURVE SMOOTH",
"472 986 OFFCURVE",
"586 1061 OFFCURVE",
"731 1061 CURVE SMOOTH"
);
},
{
closed = 1;
nodes = (
"796 1664 OFFCURVE",
"755 1660 OFFCURVE",
"726 1633 CURVE SMOOTH",
"485 1400 LINE SMOOTH",
"465 1381 OFFCURVE",
"466 1353 OFFCURVE",
"493 1336 CURVE SMOOTH",
"522 1318 OFFCURVE",
"552 1320 OFFCURVE",
"575 1336 CURVE SMOOTH",
"876 1546 LINE SMOOTH",
"908 1568 OFFCURVE",
"898 1597 OFFCURVE",
"843 1633 CURVE SMOOTH"
);
},
{
closed = 1;
nodes = (
"1176 1664 OFFCURVE",
"1135 1660 OFFCURVE",
"1106 1633 CURVE SMOOTH",
"865 1400 LINE SMOOTH",
"845 1381 OFFCURVE",
"846 1353 OFFCURVE",
"873 1336 CURVE SMOOTH",
"902 1318 OFFCURVE",
"932 1320 OFFCURVE",
"955 1336 CURVE SMOOTH",
"1256 1546 LINE SMOOTH",
"1288 1568 OFFCURVE",
"1278 1597 OFFCURVE",
"1223 1633 CURVE SMOOTH"
);
}
);
width = 1228;
}
);
unicode = 0150;
},
{
glyphname = Omacron;
lastChange = "2015-01-14 05:27:17 +0000";
layers = (
{
layerId = UUID0;
name = "Regular Italic";
paths = (
{
closed = 1;
nodes = (
"534 1209 OFFCURVE",
"375 1108 OFFCURVE",
"269 961 CURVE SMOOTH",
"166 818 OFFCURVE",
"114 636 OFFCURVE",
"114 459 CURVE SMOOTH",
"114 169 OFFCURVE",
"283 -22 OFFCURVE",
"555 -22 CURVE SMOOTH",
"763 -22 OFFCURVE",
"922 79 OFFCURVE",
"1028 226 CURVE SMOOTH",
"1131 369 OFFCURVE",
"1183 551 OFFCURVE",
"1183 728 CURVE SMOOTH",
"1183 1018 OFFCURVE",
"1014 1209 OFFCURVE",
"742 1209 CURVE SMOOTH"
);
},
{
closed = 1;
nodes = (
"918 1061 OFFCURVE",
"1030 933 OFFCURVE",
"1030 722 CURVE SMOOTH",
"1030 580 OFFCURVE",
"986 426 OFFCURVE",
"902 309 CURVE SMOOTH",
"825 201 OFFCURVE",
"711 126 OFFCURVE",
"566 126 CURVE SMOOTH",
"379 126 OFFCURVE",
"267 254 OFFCURVE",
"267 465 CURVE SMOOTH",
"267 607 OFFCURVE",
"311 761 OFFCURVE",
"395 878 CURVE SMOOTH",
"472 986 OFFCURVE",
"586 1061 OFFCURVE",
"731 1061 CURVE SMOOTH"
);
},
{
closed = 1;
nodes = (
"513 1520 LINE SMOOTH",
"468 1520 OFFCURVE",
"446 1500 OFFCURVE",
"437 1448 CURVE SMOOTH",
"428 1396 OFFCURVE",
"443 1376 OFFCURVE",
"488 1376 CURVE SMOOTH",
"1050 1376 LINE SMOOTH",
"1095 1376 OFFCURVE",
"1116 1396 OFFCURVE",
"1125 1448 CURVE SMOOTH",
"1134 1500 OFFCURVE",
"1120 1520 OFFCURVE",
"1075 1520 CURVE SMOOTH"
);
}
);
width = 1228;
}
);
unicode = 014C;
},
{
color = 6;
glyphname = Oslash;
lastChange = "2015-01-12 05:49:59 +0000";
layers = (
{
background = {
components = (
{
name = O;
transform = "{1, 0, 0, 1, 0, 0}";
}
);
paths = (
{
closed = 1;
nodes = (
"1169 1260 OFFCURVE",
"1132 1257 OFFCURVE",
"1099 1219 CURVE SMOOTH",
"82 50 LINE SMOOTH",
"49 12 OFFCURVE",
"58 -15 OFFCURVE",
"94 -43 CURVE SMOOTH",
"129 -71 OFFCURVE",
"164 -68 OFFCURVE",
"197 -30 CURVE SMOOTH",
"1214 1139 LINE SMOOTH",
"1247 1177 OFFCURVE",
"1239 1204 OFFCURVE",
"1204 1232 CURVE SMOOTH"
);
}
);
};
layerId = UUID0;
name = "Regular Italic";
paths = (
{
closed = 1;
nodes = (
"1169 1260 OFFCURVE",
"1132 1257 OFFCURVE",
"1099 1219 CURVE SMOOTH",
"1015.29 1122.78 LINE",
"943.597 1178.28 OFFCURVE",
"851.081 1209 OFFCURVE",
"742 1209 CURVE SMOOTH",
"534 1209 OFFCURVE",
"375 1108 OFFCURVE",
"269 961 CURVE SMOOTH",
"166 818 OFFCURVE",
"114 636 OFFCURVE",
"114 459 CURVE SMOOTH",
"114 346.069 OFFCURVE",
"139.629 248.151 OFFCURVE",
"186.987 170.679 CURVE",
"82 50 LINE SMOOTH",
"49 12 OFFCURVE",
"58 -15 OFFCURVE",
"94 -43 CURVE SMOOTH",
"129 -71 OFFCURVE",
"164 -68 OFFCURVE",
"197 -30 CURVE SMOOTH",
"280.076 65.493 LINE",
"351.996 9.188 OFFCURVE",
"445.089 -22 OFFCURVE",
"555 -22 CURVE SMOOTH",
"763 -22 OFFCURVE",
"922 79 OFFCURVE",
"1028 226 CURVE SMOOTH",
"1131 369 OFFCURVE",
"1183 551 OFFCURVE",
"1183 728 CURVE SMOOTH",
"1183 841.83 OFFCURVE",
"1156.96 940.407 OFFCURVE",
"1108.88 1018.17 CURVE",
"1214 1139 LINE SMOOTH",
"1247 1177 OFFCURVE",
"1239 1204 OFFCURVE",
"1204 1232 CURVE SMOOTH"
);
},
{
closed = 1;
nodes = (
"1019.37 844.143 OFFCURVE",
"1030 787.011 OFFCURVE",
"1030 722 CURVE SMOOTH",
"1030 580 OFFCURVE",
"986 426 OFFCURVE",
"902 309 CURVE SMOOTH",
"825 201 OFFCURVE",
"711 126 OFFCURVE",
"566 126 CURVE SMOOTH",
"492.329 126 OFFCURVE",
"430.299 145.867 OFFCURVE",
"382.172 182.848 CURVE",
"999.185 892.079 LINE"
);
},
{
closed = 1;
nodes = (
"803.833 1061 OFFCURVE",
"865.288 1041.58 OFFCURVE",
"913.18 1005.41 CURVE",
"296.927 297.05 LINE",
"277.321 344.546 OFFCURVE",
"267 400.949 OFFCURVE",
"267 465 CURVE",
"267 607 OFFCURVE",
"311 761 OFFCURVE",
"395 878 CURVE SMOOTH",
"472 986 OFFCURVE",
"586 1061 OFFCURVE",
"731 1061 CURVE SMOOTH"
);
}
);
width = 1228;
}
);
unicode = 00D8;
},
{
glyphname = Otilde;
lastChange = "2015-01-14 05:27:15 +0000";
layers = (
{
layerId = UUID0;
name = "Regular Italic";
paths = (
{
closed = 1;
nodes = (
"534 1209 OFFCURVE",
"375 1108 OFFCURVE",
"269 961 CURVE SMOOTH",
"166 818 OFFCURVE",
"114 636 OFFCURVE",
"114 459 CURVE SMOOTH",
"114 169 OFFCURVE",
"283 -22 OFFCURVE",
"555 -22 CURVE SMOOTH",
"763 -22 OFFCURVE",
"922 79 OFFCURVE",
"1028 226 CURVE SMOOTH",
"1131 369 OFFCURVE",
"1183 551 OFFCURVE",
"1183 728 CURVE SMOOTH",
"1183 1018 OFFCURVE",
"1014 1209 OFFCURVE",
"742 1209 CURVE SMOOTH"
);
},
{
closed = 1;
nodes = (
"918 1061 OFFCURVE",
"1030 933 OFFCURVE",
"1030 722 CURVE SMOOTH",
"1030 580 OFFCURVE",
"986 426 OFFCURVE",
"902 309 CURVE SMOOTH",
"825 201 OFFCURVE",
"711 126 OFFCURVE",
"566 126 CURVE SMOOTH",
"379 126 OFFCURVE",
"267 254 OFFCURVE",
"267 465 CURVE SMOOTH",
"267 607 OFFCURVE",
"311 761 OFFCURVE",
"395 878 CURVE SMOOTH",
"472 986 OFFCURVE",
"586 1061 OFFCURVE",
"731 1061 CURVE SMOOTH"
);
},
{
closed = 1;
nodes = (
"592 1557 OFFCURVE",
"528 1532 OFFCURVE",
"449 1466 CURVE SMOOTH",
"428 1449 OFFCURVE",
"426 1421 OFFCURVE",
"443 1392 CURVE SMOOTH",
"460 1363 OFFCURVE",
"483 1354 OFFCURVE",
"505 1367 CURVE SMOOTH",
"552 1395 OFFCURVE",
"600 1409 OFFCURVE",
"640 1409 CURVE SMOOTH",
"730 1409 OFFCURVE",
"810 1346 OFFCURVE",
"909 1346 CURVE SMOOTH",
"966 1346 OFFCURVE",
"1030 1371 OFFCURVE",
"1109 1437 CURVE SMOOTH",
"1130 1454 OFFCURVE",
"1132 1482 OFFCURVE",
"1115 1511 CURVE SMOOTH",
"1098 1540 OFFCURVE",
"1075 1549 OFFCURVE",
"1053 1536 CURVE SMOOTH",
"1006 1508 OFFCURVE",
"958 1494 OFFCURVE",
"918 1494 CURVE SMOOTH",
"828 1494 OFFCURVE",
"748 1557 OFFCURVE",
"649 1557 CURVE SMOOTH"
);
}
);
width = 1228;
}
);
unicode = 00D5;
},
{
glyphname = OE;
lastChange = "2015-01-12 05:49:59 +0000";
layers = (
{
layerId = UUID0;
name = "Regular Italic";
paths = (
{
closed = 1;
nodes = (
"723 1187 LINE",
"704 1066 LINE",
"536 120 LINE",
"534 0 LINE",
"1008 0 LINE SMOOTH",
"1053 0 OFFCURVE",
"1074 20 OFFCURVE",
"1083 72 CURVE SMOOTH",
"1092 124 OFFCURVE",
"1078 144 OFFCURVE",
"1033 144 CURVE SMOOTH",
"691 144 LINE",
"761 540 LINE",
"1008 540 LINE SMOOTH",
"1053 540 OFFCURVE",
"1074 560 OFFCURVE",
"1083 612 CURVE SMOOTH",
"1093 664 OFFCURVE",
"1078 684 OFFCURVE",
"1033 684 CURVE SMOOTH",
"786 684 LINE",
"849 1043 LINE",
"1171 1043 LINE SMOOTH",
"1216 1043 OFFCURVE",
"1238 1063 OFFCURVE",
"1247 1115 CURVE SMOOTH",
"1256 1167 OFFCURVE",
"1242 1187 OFFCURVE",
"1197 1187 CURVE SMOOTH"
);
},
{
closed = 1;
nodes = (
"494 1187 OFFCURVE",
"337 1074 OFFCURVE",
"239 921 CURVE SMOOTH",
"147 779 OFFCURVE",
"107 603 OFFCURVE",
"107 454 CURVE SMOOTH",
"107 171 OFFCURVE",
"268 0 OFFCURVE",
"534 0 CURVE",
"585 70 LINE",
"556 136 LINE",
"373 136 OFFCURVE",
"260 248 OFFCURVE",
"260 461 CURVE SMOOTH",
"260 594 OFFCURVE",
"296 745 OFFCURVE",
"373 861 CURVE SMOOTH",
"448 973 OFFCURVE",
"562 1052 OFFCURVE",
"719 1050 CURVE",
"770 1125 LINE",
"723 1187 LINE"
);
}
);
width = 1228;
}
);
unicode = 0152;
},
{
glyphname = P;
lastChange = "2015-01-12 05:49:59 +0000";
layers = (
{
background = {
paths = (
{
closed = 1;
nodes = (
"435 1187 LINE SMOOTH",
"390 1187 OFFCURVE",
"371 1169 OFFCURVE",
"362 1119 CURVE SMOOTH",
"174 55 LINE SMOOTH",
"166 9 OFFCURVE",
"181 -10 OFFCURVE",
"237 -10 CURVE SMOOTH",
"239 -10 LINE SMOOTH",
"292 -10 OFFCURVE",
"316 9 OFFCURVE",
"324 55 CURVE SMOOTH",
"384 393 LINE",
"681 393 LINE SMOOTH",
"1045 393 OFFCURVE",
"1187 637 OFFCURVE",
"1187 859 CURVE SMOOTH",
"1187 1054 OFFCURVE",
"1050 1187 OFFCURVE",
"800 1187 CURVE SMOOTH"
);
},
{
closed = 1;
nodes = (
"946 1043 OFFCURVE",
"1033 972 OFFCURVE",
"1033 844 CURVE SMOOTH",
"1033 694 OFFCURVE",
"940 537 OFFCURVE",
"680 537 CURVE SMOOTH",
"409 537 LINE",
"498 1043 LINE",
"767 1043 LINE SMOOTH"
);
}
);
};
layerId = UUID0;
name = "Regular Italic";
paths = (
{
closed = 1;
nodes = (
"435 1187 LINE SMOOTH",
"390 1187 OFFCURVE",
"371 1169 OFFCURVE",
"362 1119 CURVE SMOOTH",
"174 55 LINE SMOOTH",
"166 9 OFFCURVE",
"181 -10 OFFCURVE",
"237 -10 CURVE SMOOTH",
"239 -10 LINE SMOOTH",
"292 -10 OFFCURVE",
"316 9 OFFCURVE",
"324 55 CURVE SMOOTH",
"384 393 LINE",
"681 393 LINE SMOOTH",
"1045 393 OFFCURVE",
"1187 637 OFFCURVE",
"1187 859 CURVE SMOOTH",
"1187 1054 OFFCURVE",
"1050 1187 OFFCURVE",
"800 1187 CURVE SMOOTH"
);
},
{
closed = 1;
nodes = (
"946 1043 OFFCURVE",
"1033 972 OFFCURVE",
"1033 844 CURVE SMOOTH",
"1033 694 OFFCURVE",
"940 537 OFFCURVE",
"680 537 CURVE SMOOTH",
"409 537 LINE",
"498 1043 LINE",
"767 1043 LINE SMOOTH"
);
}
);
width = 1228;
}
);
unicode = 0050;
},
{
glyphname = Thorn;
lastChange = "2015-01-12 05:49:59 +0000";
layers = (
{
layerId = UUID0;
name = "Regular Italic";
paths = (
{
closed = 1;
nodes = (
"411 946 LINE",
"387 802 LINE",
"745 802 LINE SMOOTH",
"881 802 OFFCURVE",
"940 735 OFFCURVE",
"940 641 CURVE SMOOTH",
"940 534 OFFCURVE",
"879 398 OFFCURVE",
"678 398 CURVE SMOOTH",
"320 398 LINE",
"296 254 LINE",
"685 254 LINE SMOOTH",
"999 254 OFFCURVE",
"1098 490 OFFCURVE",
"1098 654 CURVE SMOOTH",
"1098 818 OFFCURVE",
"991 946 OFFCURVE",
"780 946 CURVE SMOOTH"
);
},
{
closed = 1;
nodes = (
"449 1197 LINE SMOOTH",
"396 1197 OFFCURVE",
"372 1178 OFFCURVE",
"364 1132 CURVE SMOOTH",
"174 55 LINE SMOOTH",
"166 9 OFFCURVE",
"181 -10 OFFCURVE",
"237 -10 CURVE SMOOTH",
"239 -10 LINE SMOOTH",
"292 -10 OFFCURVE",
"316 9 OFFCURVE",
"324 55 CURVE SMOOTH",
"514 1132 LINE SMOOTH",
"522 1178 OFFCURVE",
"507 1197 OFFCURVE",
"451 1197 CURVE SMOOTH"
);
}
);
width = 1228;
}
);
unicode = 00DE;
},
{
color = 6;
glyphname = Q;
lastChange = "2015-01-14 05:27:15 +0000";
layers = (
{
layerId = UUID0;
name = "Regular Italic";
paths = (
{
closed = 1;
nodes = (
"571 378 OFFCURVE",
"562 353 OFFCURVE",
"581 311 CURVE SMOOTH",
"676 104 LINE",
"702 47 LINE",
"782 -128 LINE SMOOTH",
"801 -169 OFFCURVE",
"826 -179 OFFCURVE",
"877 -156 CURVE SMOOTH",
"929 -133 OFFCURVE",
"937 -108 OFFCURVE",
"918 -66 CURVE SMOOTH",
"717 373 LINE SMOOTH",
"698 415 OFFCURVE",
"673 426 OFFCURVE",
"622 402 CURVE SMOOTH"
);
},
{
closed = 1;
nodes = (
"534 1209 OFFCURVE",
"375 1108 OFFCURVE",
"269 961 CURVE SMOOTH",
"166 818 OFFCURVE",
"114 636 OFFCURVE",
"114 459 CURVE SMOOTH",
"114 169 OFFCURVE",
"283 -22 OFFCURVE",
"555 -22 CURVE SMOOTH",
"763 -22 OFFCURVE",
"922 79 OFFCURVE",
"1028 226 CURVE SMOOTH",
"1131 369 OFFCURVE",
"1183 551 OFFCURVE",
"1183 728 CURVE SMOOTH",
"1183 1018 OFFCURVE",
"1014 1209 OFFCURVE",
"742 1209 CURVE SMOOTH"
);
},
{
closed = 1;
nodes = (
"918 1061 OFFCURVE",
"1030 933 OFFCURVE",
"1030 722 CURVE SMOOTH",
"1030 580 OFFCURVE",
"986 426 OFFCURVE",
"902 309 CURVE SMOOTH",
"825 201 OFFCURVE",
"711 126 OFFCURVE",
"566 126 CURVE SMOOTH",
"379 126 OFFCURVE",
"267 254 OFFCURVE",
"267 465 CURVE SMOOTH",
"267 607 OFFCURVE",
"311 761 OFFCURVE",
"395 878 CURVE SMOOTH",
"472 986 OFFCURVE",
"586 1061 OFFCURVE",
"731 1061 CURVE SMOOTH"
);
}
);
width = 1228;
}
);
unicode = 0051;
},
{
glyphname = R;
lastChange = "2015-01-12 05:49:59 +0000";
layers = (
{
background = {
paths = (
{
closed = 1;
nodes = (
"413 617 LINE",
"488 1043 LINE",
"707 1043 LINE SMOOTH",
"864 1043 OFFCURVE",
"950 982 OFFCURVE",
"950 872 CURVE SMOOTH",
"950 759 OFFCURVE",
"887 617 OFFCURVE",
"621 617 CURVE SMOOTH"
);
},
{
closed = 1;
nodes = (
"775 488 LINE",
"973 548 OFFCURVE",
"1104 678 OFFCURVE",
"1104 888 CURVE SMOOTH",
"1104 1065 OFFCURVE",
"971 1187 OFFCURVE",
"730 1187 CURVE SMOOTH",
"425 1187 LINE SMOOTH",
"380 1187 OFFCURVE",
"361 1169 OFFCURVE",
"352 1119 CURVE SMOOTH",
"164 55 LINE SMOOTH",
"156 9 OFFCURVE",
"174 -10 OFFCURVE",
"230 -10 CURVE SMOOTH",
"286 -10 OFFCURVE",
"306 9 OFFCURVE",
"314 55 CURVE SMOOTH",
"388 473 LINE",
"620 473 LINE",
"838 14 LINE SMOOTH",
"854 -19 OFFCURVE",
"877 -23 OFFCURVE",
"929 0 CURVE SMOOTH",
"981 23 OFFCURVE",
"987 47 OFFCURVE",
"968 86 CURVE SMOOTH"
);
}
);
};
layerId = UUID0;
name = "Regular Italic";
paths = (
{
closed = 1;
nodes = (
"435 1187 LINE SMOOTH",
"390 1187 OFFCURVE",
"371 1169 OFFCURVE",
"362 1119 CURVE SMOOTH",
"174 55 LINE SMOOTH",
"166 9 OFFCURVE",
"181 -10 OFFCURVE",
"237 -10 CURVE SMOOTH",
"239 -10 LINE SMOOTH",
"292 -10 OFFCURVE",
"316 9 OFFCURVE",
"324 55 CURVE SMOOTH",
"398 473 LINE",
"697 473 LINE",
"978 520 OFFCURVE",
"1114 672 OFFCURVE",
"1114 888 CURVE SMOOTH",
"1114 1065 OFFCURVE",
"981 1187 OFFCURVE",
"740 1187 CURVE SMOOTH"
);
},
{
closed = 1;
nodes = (
"623 487 LINE",
"848 14 LINE SMOOTH",
"864 -19 OFFCURVE",
"887 -23 OFFCURVE",
"939 0 CURVE SMOOTH",
"991 23 OFFCURVE",
"997 47 OFFCURVE",
"978 86 CURVE SMOOTH",
"778 502 LINE"
);
},
{
closed = 1;
nodes = (
"874 1043 OFFCURVE",
"960 982 OFFCURVE",
"960 872 CURVE SMOOTH",
"960 715 OFFCURVE",
"849 617 OFFCURVE",
"631 617 CURVE SMOOTH",
"423 617 LINE",
"498 1043 LINE",
"717 1043 LINE SMOOTH"
);
}
);
width = 1228;
}
);
unicode = 0052;
},
{
glyphname = Racute;
lastChange = "2015-01-14 05:27:16 +0000";
layers = (
{
layerId = UUID0;
name = "Regular Italic";
paths = (
{
closed = 1;
nodes = (
"435 1187 LINE SMOOTH",
"390 1187 OFFCURVE",
"371 1169 OFFCURVE",
"362 1119 CURVE SMOOTH",
"174 55 LINE SMOOTH",
"166 9 OFFCURVE",
"181 -10 OFFCURVE",
"237 -10 CURVE SMOOTH",
"239 -10 LINE SMOOTH",
"292 -10 OFFCURVE",
"316 9 OFFCURVE",
"324 55 CURVE SMOOTH",
"398 473 LINE",
"697 473 LINE",
"978 520 OFFCURVE",
"1114 672 OFFCURVE",
"1114 888 CURVE SMOOTH",
"1114 1065 OFFCURVE",
"981 1187 OFFCURVE",
"740 1187 CURVE SMOOTH"
);
},
{
closed = 1;
nodes = (
"623 487 LINE",
"848 14 LINE SMOOTH",
"864 -19 OFFCURVE",
"887 -23 OFFCURVE",
"939 0 CURVE SMOOTH",
"991 23 OFFCURVE",
"997 47 OFFCURVE",
"978 86 CURVE SMOOTH",
"778 502 LINE"
);
},
{
closed = 1;
nodes = (
"874 1043 OFFCURVE",
"960 982 OFFCURVE",
"960 872 CURVE SMOOTH",
"960 715 OFFCURVE",
"849 617 OFFCURVE",
"631 617 CURVE SMOOTH",
"423 617 LINE",
"498 1043 LINE",
"717 1043 LINE SMOOTH"
);
},
{
closed = 1;
nodes = (
"564 1403 LINE SMOOTH",
"541 1390 OFFCURVE",
"536 1364 OFFCURVE",
"545 1341 CURVE SMOOTH",
"554 1318 OFFCURVE",
"575 1301 OFFCURVE",
"600 1309 CURVE SMOOTH",
"1081 1472 LINE SMOOTH",
"1108 1481 OFFCURVE",
"1120 1508 OFFCURVE",
"1081 1579 CURVE SMOOTH",
"1039 1654 OFFCURVE",
"1014 1652 OFFCURVE",
"980 1633 CURVE SMOOTH"
);
}
);
width = 1228;
}
);
unicode = 0154;
},
{
glyphname = Rcaron;
lastChange = "2015-01-14 05:27:16 +0000";
layers = (
{
layerId = UUID0;
name = "Regular Italic";
paths = (
{
closed = 1;
nodes = (
"435 1187 LINE SMOOTH",
"390 1187 OFFCURVE",
"371 1169 OFFCURVE",
"362 1119 CURVE SMOOTH",
"174 55 LINE SMOOTH",
"166 9 OFFCURVE",
"181 -10 OFFCURVE",
"237 -10 CURVE SMOOTH",
"239 -10 LINE SMOOTH",
"292 -10 OFFCURVE",
"316 9 OFFCURVE",
"324 55 CURVE SMOOTH",
"398 473 LINE",
"697 473 LINE",
"978 520 OFFCURVE",
"1114 672 OFFCURVE",
"1114 888 CURVE SMOOTH",
"1114 1065 OFFCURVE",
"981 1187 OFFCURVE",
"740 1187 CURVE SMOOTH"
);
},
{
closed = 1;
nodes = (
"623 487 LINE",
"848 14 LINE SMOOTH",
"864 -19 OFFCURVE",
"887 -23 OFFCURVE",
"939 0 CURVE SMOOTH",
"991 23 OFFCURVE",
"997 47 OFFCURVE",
"978 86 CURVE SMOOTH",
"778 502 LINE"
);
},
{
closed = 1;
nodes = (
"874 1043 OFFCURVE",
"960 982 OFFCURVE",
"960 872 CURVE SMOOTH",
"960 715 OFFCURVE",
"849 617 OFFCURVE",
"631 617 CURVE SMOOTH",
"423 617 LINE",
"498 1043 LINE",
"717 1043 LINE SMOOTH"
);
},
{
closed = 1;
nodes = (
"774 1475 LINE",
"522 1634 LINE SMOOTH",
"501 1648 OFFCURVE",
"477 1634 OFFCURVE",
"463 1613 CURVE SMOOTH",
"450 1592 OFFCURVE",
"446 1564 OFFCURVE",
"463 1547 CURVE SMOOTH",
"709 1315 LINE SMOOTH",
"722 1303 OFFCURVE",
"740 1297 OFFCURVE",
"761 1297 CURVE SMOOTH",
"782 1297 OFFCURVE",
"802 1303 OFFCURVE",
"819 1315 CURVE SMOOTH",
"1127 1547 LINE SMOOTH",
"1150 1564 OFFCURVE",
"1152 1591 OFFCURVE",
"1141 1612 CURVE SMOOTH",
"1130 1633 OFFCURVE",
"1106 1647 OFFCURVE",
"1080 1634 CURVE SMOOTH"
);
}
);
width = 1228;
}
);
unicode = 0158;
},
{
glyphname = Rcommaaccent;
lastChange = "2015-01-14 05:27:15 +0000";
layers = (
{
layerId = UUID0;
name = "Regular Italic";
paths = (
{
closed = 1;
nodes = (
"435 1187 LINE SMOOTH",
"390 1187 OFFCURVE",
"371 1169 OFFCURVE",
"362 1119 CURVE SMOOTH",
"174 55 LINE SMOOTH",
"166 9 OFFCURVE",
"181 -10 OFFCURVE",
"237 -10 CURVE SMOOTH",
"239 -10 LINE SMOOTH",
"292 -10 OFFCURVE",
"316 9 OFFCURVE",
"324 55 CURVE SMOOTH",
"398 473 LINE",
"697 473 LINE",
"978 520 OFFCURVE",
"1114 672 OFFCURVE",
"1114 888 CURVE SMOOTH",
"1114 1065 OFFCURVE",
"981 1187 OFFCURVE",
"740 1187 CURVE SMOOTH"
);
},
{
closed = 1;
nodes = (
"623 487 LINE",
"848 14 LINE SMOOTH",
"864 -19 OFFCURVE",
"887 -23 OFFCURVE",
"939 0 CURVE SMOOTH",
"991 23 OFFCURVE",
"997 47 OFFCURVE",
"978 86 CURVE SMOOTH",
"778 502 LINE"
);
},
{
closed = 1;
nodes = (
"874 1043 OFFCURVE",
"960 982 OFFCURVE",
"960 872 CURVE SMOOTH",
"960 715 OFFCURVE",
"849 617 OFFCURVE",
"631 617 CURVE SMOOTH",
"423 617 LINE",
"498 1043 LINE",
"717 1043 LINE SMOOTH"
);
},
{
closed = 1;
nodes = (
"653 -197 LINE SMOOTH",
"672 -169 OFFCURVE",
"667 -146 OFFCURVE",
"640 -146 CURVE SMOOTH",
"498 -146 LINE SMOOTH",
"476 -146 OFFCURVE",
"458 -157 OFFCURVE",
"450 -178 CURVE SMOOTH",
"340 -469 LINE SMOOTH",
"327 -503 OFFCURVE",
"344 -525 OFFCURVE",
"381 -525 CURVE SMOOTH",
"412 -525 OFFCURVE",
"440 -510 OFFCURVE",
"455 -488 CURVE SMOOTH"
);
}
);
width = 1228;
}
);
unicode = 0156;
},
{
glyphname = S;
lastChange = "2015-01-12 05:49:59 +0000";
layers = (
{
layerId = UUID0;
name = "Regular Italic";
paths = (
{
closed = 1;
nodes = (
"385 1209 OFFCURVE",
"248 1004 OFFCURVE",
"248 833 CURVE SMOOTH",
"248 722 OFFCURVE",
"302 651 OFFCURVE",
"400 609 CURVE SMOOTH",
"526 555 OFFCURVE",
"698 544 OFFCURVE",
"805 495 CURVE SMOOTH",
"864 468 OFFCURVE",
"897 425 OFFCURVE",
"897 361 CURVE SMOOTH",
"897 234 OFFCURVE",
"796 126 OFFCURVE",
"584 126 CURVE SMOOTH",
"453 126 OFFCURVE",
"323 166 OFFCURVE",
"230 232 CURVE SMOOTH",
"206 249 OFFCURVE",
"175 247 OFFCURVE",
"145 197 CURVE SMOOTH",
"116 148 OFFCURVE",
"124 117 OFFCURVE",
"157 94 CURVE SMOOTH",
"262 21 OFFCURVE",
"415 -22 OFFCURVE",
"568 -22 CURVE SMOOTH",
"936 -22 OFFCURVE",
"1057 195 OFFCURVE",
"1057 380 CURVE SMOOTH",
"1057 497 OFFCURVE",
"998 582 OFFCURVE",
"906 624 CURVE SMOOTH",
"778 683 OFFCURVE",
"617 694 OFFCURVE",
"507 732 CURVE SMOOTH",
"441 755 OFFCURVE",
"408 786 OFFCURVE",
"408 847 CURVE SMOOTH",
"408 952 OFFCURVE",
"499 1061 OFFCURVE",
"685 1061 CURVE SMOOTH",
"816 1061 OFFCURVE",
"943 1023 OFFCURVE",
"1033 969 CURVE SMOOTH",
"1061 952 OFFCURVE",
"1091 956 OFFCURVE",
"1119 1008 CURVE SMOOTH",
"1147 1060 OFFCURVE",
"1138 1088 OFFCURVE",
"1103 1109 CURVE SMOOTH",
"992 1174 OFFCURVE",
"857 1209 OFFCURVE",
"704 1209 CURVE SMOOTH"
);
}
);
width = 1228;
}
);
unicode = 0053;
},
{
glyphname = Sacute;
lastChange = "2015-01-14 05:27:16 +0000";
layers = (
{
layerId = UUID0;
name = "Regular Italic";
paths = (
{
closed = 1;
nodes = (
"385 1209 OFFCURVE",
"248 1004 OFFCURVE",
"248 833 CURVE SMOOTH",
"248 722 OFFCURVE",
"302 651 OFFCURVE",
"400 609 CURVE SMOOTH",
"526 555 OFFCURVE",
"698 544 OFFCURVE",
"805 495 CURVE SMOOTH",
"864 468 OFFCURVE",
"897 425 OFFCURVE",
"897 361 CURVE SMOOTH",
"897 234 OFFCURVE",
"796 126 OFFCURVE",
"584 126 CURVE SMOOTH",
"453 126 OFFCURVE",
"323 166 OFFCURVE",
"230 232 CURVE SMOOTH",
"206 249 OFFCURVE",
"175 247 OFFCURVE",
"145 197 CURVE SMOOTH",
"116 148 OFFCURVE",
"124 117 OFFCURVE",
"157 94 CURVE SMOOTH",
"262 21 OFFCURVE",
"415 -22 OFFCURVE",
"568 -22 CURVE SMOOTH",
"936 -22 OFFCURVE",
"1057 195 OFFCURVE",
"1057 380 CURVE SMOOTH",
"1057 497 OFFCURVE",
"998 582 OFFCURVE",
"906 624 CURVE SMOOTH",
"778 683 OFFCURVE",
"617 694 OFFCURVE",
"507 732 CURVE SMOOTH",
"441 755 OFFCURVE",
"408 786 OFFCURVE",
"408 847 CURVE SMOOTH",
"408 952 OFFCURVE",
"499 1061 OFFCURVE",
"685 1061 CURVE SMOOTH",
"816 1061 OFFCURVE",
"943 1023 OFFCURVE",
"1033 969 CURVE SMOOTH",
"1061 952 OFFCURVE",
"1091 956 OFFCURVE",
"1119 1008 CURVE SMOOTH",
"1147 1060 OFFCURVE",
"1138 1088 OFFCURVE",
"1103 1109 CURVE SMOOTH",
"992 1174 OFFCURVE",
"857 1209 OFFCURVE",
"704 1209 CURVE SMOOTH"
);
},
{
closed = 1;
nodes = (
"564 1403 LINE SMOOTH",
"541 1390 OFFCURVE",
"536 1364 OFFCURVE",
"545 1341 CURVE SMOOTH",
"554 1318 OFFCURVE",
"575 1301 OFFCURVE",
"600 1309 CURVE SMOOTH",
"1081 1472 LINE SMOOTH",
"1108 1481 OFFCURVE",
"1120 1508 OFFCURVE",
"1081 1579 CURVE SMOOTH",
"1039 1654 OFFCURVE",
"1014 1652 OFFCURVE",
"980 1633 CURVE SMOOTH"
);
}
);
width = 1228;
}
);
unicode = 015A;
},
{
glyphname = Scaron;
lastChange = "2015-01-14 05:27:16 +0000";
layers = (
{
layerId = UUID0;
name = "Regular Italic";
paths = (
{
closed = 1;
nodes = (
"385 1209 OFFCURVE",
"248 1004 OFFCURVE",
"248 833 CURVE SMOOTH",
"248 722 OFFCURVE",
"302 651 OFFCURVE",
"400 609 CURVE SMOOTH",
"526 555 OFFCURVE",
"698 544 OFFCURVE",
"805 495 CURVE SMOOTH",
"864 468 OFFCURVE",
"897 425 OFFCURVE",
"897 361 CURVE SMOOTH",
"897 234 OFFCURVE",
"796 126 OFFCURVE",
"584 126 CURVE SMOOTH",
"453 126 OFFCURVE",
"323 166 OFFCURVE",
"230 232 CURVE SMOOTH",
"206 249 OFFCURVE",
"175 247 OFFCURVE",
"145 197 CURVE SMOOTH",
"116 148 OFFCURVE",
"124 117 OFFCURVE",
"157 94 CURVE SMOOTH",
"262 21 OFFCURVE",
"415 -22 OFFCURVE",
"568 -22 CURVE SMOOTH",
"936 -22 OFFCURVE",
"1057 195 OFFCURVE",
"1057 380 CURVE SMOOTH",
"1057 497 OFFCURVE",
"998 582 OFFCURVE",
"906 624 CURVE SMOOTH",
"778 683 OFFCURVE",
"617 694 OFFCURVE",
"507 732 CURVE SMOOTH",
"441 755 OFFCURVE",
"408 786 OFFCURVE",
"408 847 CURVE SMOOTH",
"408 952 OFFCURVE",
"499 1061 OFFCURVE",
"685 1061 CURVE SMOOTH",
"816 1061 OFFCURVE",
"943 1023 OFFCURVE",
"1033 969 CURVE SMOOTH",
"1061 952 OFFCURVE",
"1091 956 OFFCURVE",
"1119 1008 CURVE SMOOTH",
"1147 1060 OFFCURVE",
"1138 1088 OFFCURVE",
"1103 1109 CURVE SMOOTH",
"992 1174 OFFCURVE",
"857 1209 OFFCURVE",
"704 1209 CURVE SMOOTH"
);
},
{
closed = 1;
nodes = (
"764 1485 LINE",
"512 1644 LINE SMOOTH",
"491 1658 OFFCURVE",
"467 1644 OFFCURVE",
"453 1623 CURVE SMOOTH",
"440 1602 OFFCURVE",
"436 1574 OFFCURVE",
"453 1557 CURVE SMOOTH",
"699 1325 LINE SMOOTH",
"712 1313 OFFCURVE",
"730 1307 OFFCURVE",
"751 1307 CURVE SMOOTH",
"772 1307 OFFCURVE",
"792 1313 OFFCURVE",
"809 1325 CURVE SMOOTH",
"1117 1557 LINE SMOOTH",
"1140 1574 OFFCURVE",
"1142 1601 OFFCURVE",
"1131 1622 CURVE SMOOTH",
"1120 1643 OFFCURVE",
"1096 1657 OFFCURVE",
"1070 1644 CURVE SMOOTH"
);
}
);
width = 1228;
}
);
unicode = 0160;
},
{
color = 6;
glyphname = Scedilla;
lastChange = "2015-01-14 05:27:16 +0000";
layers = (
{
layerId = UUID0;
name = "Regular Italic";
paths = (
{
closed = 1;
nodes = (
"385 1209 OFFCURVE",
"248 1004 OFFCURVE",
"248 833 CURVE SMOOTH",
"248 722 OFFCURVE",
"302 651 OFFCURVE",
"400 609 CURVE SMOOTH",
"526 555 OFFCURVE",
"698 544 OFFCURVE",
"805 495 CURVE SMOOTH",
"864 468 OFFCURVE",
"897 425 OFFCURVE",
"897 361 CURVE SMOOTH",
"897 234 OFFCURVE",
"796 126 OFFCURVE",
"584 126 CURVE SMOOTH",
"453 126 OFFCURVE",
"323 166 OFFCURVE",
"230 232 CURVE SMOOTH",
"206 249 OFFCURVE",
"175 247 OFFCURVE",
"145 197 CURVE SMOOTH",
"116 148 OFFCURVE",
"124 117 OFFCURVE",
"157 94 CURVE SMOOTH",
"262 21 OFFCURVE",
"415 -22 OFFCURVE",
"568 -22 CURVE SMOOTH",
"936 -22 OFFCURVE",
"1057 195 OFFCURVE",
"1057 380 CURVE SMOOTH",
"1057 497 OFFCURVE",
"998 582 OFFCURVE",
"906 624 CURVE SMOOTH",
"778 683 OFFCURVE",
"617 694 OFFCURVE",
"507 732 CURVE SMOOTH",
"441 755 OFFCURVE",
"408 786 OFFCURVE",
"408 847 CURVE SMOOTH",
"408 952 OFFCURVE",
"499 1061 OFFCURVE",
"685 1061 CURVE SMOOTH",
"816 1061 OFFCURVE",
"943 1023 OFFCURVE",
"1033 969 CURVE SMOOTH",
"1061 952 OFFCURVE",
"1091 956 OFFCURVE",
"1119 1008 CURVE SMOOTH",
"1147 1060 OFFCURVE",
"1138 1088 OFFCURVE",
"1103 1109 CURVE SMOOTH",
"992 1174 OFFCURVE",
"857 1209 OFFCURVE",
"704 1209 CURVE SMOOTH"
);
},
{
closed = 1;
nodes = (
"473 28 LINE",
"438 -175 LINE SMOOTH",
"431 -213 OFFCURVE",
"451 -218 OFFCURVE",
"470 -217 CURVE SMOOTH",
"555 -212 OFFCURVE",
"604 -226 OFFCURVE",
"604 -271 CURVE SMOOTH",
"604 -317 OFFCURVE",
"568 -352 OFFCURVE",
"488 -352 CURVE SMOOTH",
"421 -352 OFFCURVE",
"350 -338 OFFCURVE",
"301 -318 CURVE SMOOTH",
"279 -309 OFFCURVE",
"255 -329 OFFCURVE",
"242 -354 CURVE SMOOTH",
"228 -380 OFFCURVE",
"226 -412 OFFCURVE",
"249 -424 CURVE SMOOTH",
"312 -456 OFFCURVE",
"398 -472 OFFCURVE",
"487 -472 CURVE SMOOTH",
"591 -472 OFFCURVE",
"663 -445 OFFCURVE",
"707 -398 CURVE SMOOTH",
"744 -359 OFFCURVE",
"761 -299 OFFCURVE",
"761 -258 CURVE SMOOTH",
"761 -178 OFFCURVE",
"706 -111 OFFCURVE",
"583 -114 CURVE",
"608 28 LINE"
);
}
);
width = 1228;
}
);
unicode = 015E;
},
{
glyphname = Scircumflex;
lastChange = "2015-01-14 05:27:16 +0000";
layers = (
{
layerId = UUID0;
name = "Regular Italic";
paths = (
{
closed = 1;
nodes = (
"385 1209 OFFCURVE",
"248 1004 OFFCURVE",
"248 833 CURVE SMOOTH",
"248 722 OFFCURVE",
"302 651 OFFCURVE",
"400 609 CURVE SMOOTH",
"526 555 OFFCURVE",
"698 544 OFFCURVE",
"805 495 CURVE SMOOTH",
"864 468 OFFCURVE",
"897 425 OFFCURVE",
"897 361 CURVE SMOOTH",
"897 234 OFFCURVE",
"796 126 OFFCURVE",
"584 126 CURVE SMOOTH",
"453 126 OFFCURVE",
"323 166 OFFCURVE",
"230 232 CURVE SMOOTH",
"206 249 OFFCURVE",
"175 247 OFFCURVE",
"145 197 CURVE SMOOTH",
"116 148 OFFCURVE",
"124 117 OFFCURVE",
"157 94 CURVE SMOOTH",
"262 21 OFFCURVE",
"415 -22 OFFCURVE",
"568 -22 CURVE SMOOTH",
"936 -22 OFFCURVE",
"1057 195 OFFCURVE",
"1057 380 CURVE SMOOTH",
"1057 497 OFFCURVE",
"998 582 OFFCURVE",
"906 624 CURVE SMOOTH",
"778 683 OFFCURVE",
"617 694 OFFCURVE",
"507 732 CURVE SMOOTH",
"441 755 OFFCURVE",
"408 786 OFFCURVE",
"408 847 CURVE SMOOTH",
"408 952 OFFCURVE",
"499 1061 OFFCURVE",
"685 1061 CURVE SMOOTH",
"816 1061 OFFCURVE",
"943 1023 OFFCURVE",
"1033 969 CURVE SMOOTH",
"1061 952 OFFCURVE",
"1091 956 OFFCURVE",
"1119 1008 CURVE SMOOTH",
"1147 1060 OFFCURVE",
"1138 1088 OFFCURVE",
"1103 1109 CURVE SMOOTH",
"992 1174 OFFCURVE",
"857 1209 OFFCURVE",
"704 1209 CURVE SMOOTH"
);
},
{
closed = 1;
nodes = (
"799 1468 LINE",
"1051 1309 LINE SMOOTH",
"1072 1295 OFFCURVE",
"1096 1309 OFFCURVE",
"1110 1330 CURVE SMOOTH",
"1123 1351 OFFCURVE",
"1127 1379 OFFCURVE",
"1110 1396 CURVE SMOOTH",
"864 1628 LINE SMOOTH",
"851 1640 OFFCURVE",
"833 1646 OFFCURVE",
"812 1646 CURVE SMOOTH",
"791 1646 OFFCURVE",
"771 1640 OFFCURVE",
"754 1628 CURVE SMOOTH",
"446 1396 LINE SMOOTH",
"423 1379 OFFCURVE",
"421 1352 OFFCURVE",
"432 1331 CURVE SMOOTH",
"443 1310 OFFCURVE",
"467 1296 OFFCURVE",
"493 1309 CURVE SMOOTH"
);
}
);
width = 1228;
}
);
unicode = 015C;
},
{
glyphname = Scommaaccent;
lastChange = "2015-01-14 05:27:16 +0000";
layers = (
{
layerId = UUID0;
name = "Regular Italic";
paths = (
{
closed = 1;
nodes = (
"385 1209 OFFCURVE",
"248 1004 OFFCURVE",
"248 833 CURVE SMOOTH",
"248 722 OFFCURVE",
"302 651 OFFCURVE",
"400 609 CURVE SMOOTH",
"526 555 OFFCURVE",
"698 544 OFFCURVE",
"805 495 CURVE SMOOTH",
"864 468 OFFCURVE",
"897 425 OFFCURVE",
"897 361 CURVE SMOOTH",
"897 234 OFFCURVE",
"796 126 OFFCURVE",
"584 126 CURVE SMOOTH",
"453 126 OFFCURVE",
"323 166 OFFCURVE",
"230 232 CURVE SMOOTH",
"206 249 OFFCURVE",
"175 247 OFFCURVE",
"145 197 CURVE SMOOTH",
"116 148 OFFCURVE",
"124 117 OFFCURVE",
"157 94 CURVE SMOOTH",
"262 21 OFFCURVE",
"415 -22 OFFCURVE",
"568 -22 CURVE SMOOTH",
"936 -22 OFFCURVE",
"1057 195 OFFCURVE",
"1057 380 CURVE SMOOTH",
"1057 497 OFFCURVE",
"998 582 OFFCURVE",
"906 624 CURVE SMOOTH",
"778 683 OFFCURVE",
"617 694 OFFCURVE",
"507 732 CURVE SMOOTH",
"441 755 OFFCURVE",
"408 786 OFFCURVE",
"408 847 CURVE SMOOTH",
"408 952 OFFCURVE",
"499 1061 OFFCURVE",
"685 1061 CURVE SMOOTH",
"816 1061 OFFCURVE",
"943 1023 OFFCURVE",
"1033 969 CURVE SMOOTH",
"1061 952 OFFCURVE",
"1091 956 OFFCURVE",
"1119 1008 CURVE SMOOTH",
"1147 1060 OFFCURVE",
"1138 1088 OFFCURVE",
"1103 1109 CURVE SMOOTH",
"992 1174 OFFCURVE",
"857 1209 OFFCURVE",
"704 1209 CURVE SMOOTH"
);
},
{
closed = 1;
nodes = (
"633 -197 LINE SMOOTH",
"652 -169 OFFCURVE",
"647 -146 OFFCURVE",
"620 -146 CURVE SMOOTH",
"478 -146 LINE SMOOTH",
"456 -146 OFFCURVE",
"438 -157 OFFCURVE",
"430 -178 CURVE SMOOTH",
"320 -469 LINE SMOOTH",
"307 -503 OFFCURVE",
"324 -525 OFFCURVE",
"361 -525 CURVE SMOOTH",
"392 -525 OFFCURVE",
"420 -510 OFFCURVE",
"435 -488 CURVE SMOOTH"
);
}
);
width = 1228;
}
);
unicode = 0218;
},
{
glyphname = T;
lastChange = "2015-01-12 05:49:59 +0000";
layers = (
{
layerId = UUID0;
name = "Regular Italic";
paths = (
{
closed = 1;
nodes = (
"314 1187 LINE SMOOTH",
"269 1187 OFFCURVE",
"247 1167 OFFCURVE",
"238 1115 CURVE SMOOTH",
"229 1063 OFFCURVE",
"243 1043 OFFCURVE",
"288 1043 CURVE SMOOTH",
"652 1043 LINE",
"478 55 LINE SMOOTH",
"470 9 OFFCURVE",
"485 -10 OFFCURVE",
"541 -10 CURVE SMOOTH",
"543 -10 LINE SMOOTH",
"596 -10 OFFCURVE",
"620 9 OFFCURVE",
"628 55 CURVE SMOOTH",
"802 1043 LINE",
"1146 1043 LINE SMOOTH",
"1191 1043 OFFCURVE",
"1213 1063 OFFCURVE",
"1222 1115 CURVE SMOOTH",
"1231 1167 OFFCURVE",
"1217 1187 OFFCURVE",
"1172 1187 CURVE SMOOTH"
);
}
);
width = 1228;
}
);
unicode = 0054;
},
{
color = 6;
glyphname = Tbar;
lastChange = "2015-01-14 05:27:16 +0000";
layers = (
{
layerId = UUID0;
name = "Regular Italic";
paths = (
{
closed = 1;
nodes = (
"369 590 LINE SMOOTH",
"324 590 OFFCURVE",
"302 570 OFFCURVE",
"293 518 CURVE SMOOTH",
"284 466 OFFCURVE",
"298 446 OFFCURVE",
"343 446 CURVE SMOOTH",
"905 446 LINE SMOOTH",
"950 446 OFFCURVE",
"972 466 OFFCURVE",
"981 518 CURVE SMOOTH",
"990 570 OFFCURVE",
"976 590 OFFCURVE",
"931 590 CURVE SMOOTH"
);
},
{
closed = 1;
nodes = (
"314 1187 LINE SMOOTH",
"269 1187 OFFCURVE",
"247 1167 OFFCURVE",
"238 1115 CURVE SMOOTH",
"229 1063 OFFCURVE",
"243 1043 OFFCURVE",
"288 1043 CURVE SMOOTH",
"652 1043 LINE",
"478 55 LINE SMOOTH",
"470 9 OFFCURVE",
"485 -10 OFFCURVE",
"541 -10 CURVE SMOOTH",
"543 -10 LINE SMOOTH",
"596 -10 OFFCURVE",
"620 9 OFFCURVE",
"628 55 CURVE SMOOTH",
"802 1043 LINE",
"1146 1043 LINE SMOOTH",
"1191 1043 OFFCURVE",
"1213 1063 OFFCURVE",
"1222 1115 CURVE SMOOTH",
"1231 1167 OFFCURVE",
"1217 1187 OFFCURVE",
"1172 1187 CURVE SMOOTH"
);
}
);
width = 1228;
}
);
unicode = 0166;
},
{
glyphname = Tcaron;
lastChange = "2015-01-14 05:27:15 +0000";
layers = (
{
layerId = UUID0;
name = "Regular Italic";
paths = (
{
closed = 1;
nodes = (
"314 1187 LINE SMOOTH",
"269 1187 OFFCURVE",
"247 1167 OFFCURVE",
"238 1115 CURVE SMOOTH",
"229 1063 OFFCURVE",
"243 1043 OFFCURVE",
"288 1043 CURVE SMOOTH",
"652 1043 LINE",
"478 55 LINE SMOOTH",
"470 9 OFFCURVE",
"485 -10 OFFCURVE",
"541 -10 CURVE SMOOTH",
"543 -10 LINE SMOOTH",
"596 -10 OFFCURVE",
"620 9 OFFCURVE",
"628 55 CURVE SMOOTH",
"802 1043 LINE",
"1146 1043 LINE SMOOTH",
"1191 1043 OFFCURVE",
"1213 1063 OFFCURVE",
"1222 1115 CURVE SMOOTH",
"1231 1167 OFFCURVE",
"1217 1187 OFFCURVE",
"1172 1187 CURVE SMOOTH"
);
},
{
closed = 1;
nodes = (
"769 1475 LINE",
"517 1634 LINE SMOOTH",
"496 1648 OFFCURVE",
"472 1634 OFFCURVE",
"458 1613 CURVE SMOOTH",
"445 1592 OFFCURVE",
"441 1564 OFFCURVE",
"458 1547 CURVE SMOOTH",
"704 1315 LINE SMOOTH",
"717 1303 OFFCURVE",
"735 1297 OFFCURVE",
"756 1297 CURVE SMOOTH",
"777 1297 OFFCURVE",
"797 1303 OFFCURVE",
"814 1315 CURVE SMOOTH",
"1122 1547 LINE SMOOTH",
"1145 1564 OFFCURVE",
"1147 1591 OFFCURVE",
"1136 1612 CURVE SMOOTH",
"1125 1633 OFFCURVE",
"1101 1647 OFFCURVE",
"1075 1634 CURVE SMOOTH"
);
}
);
width = 1228;
}
);
unicode = 0164;
},
{
color = 6;
glyphname = Tcedilla;
lastChange = "2015-01-14 05:27:16 +0000";
layers = (
{
layerId = UUID0;
name = "Regular Italic";
paths = (
{
closed = 1;
nodes = (
"314 1187 LINE SMOOTH",
"269 1187 OFFCURVE",
"247 1167 OFFCURVE",
"238 1115 CURVE SMOOTH",
"229 1063 OFFCURVE",
"243 1043 OFFCURVE",
"288 1043 CURVE SMOOTH",
"652 1043 LINE",
"478 55 LINE SMOOTH",
"470 9 OFFCURVE",
"485 -10 OFFCURVE",
"541 -10 CURVE SMOOTH",
"543 -10 LINE SMOOTH",
"596 -10 OFFCURVE",
"620 9 OFFCURVE",
"628 55 CURVE SMOOTH",
"802 1043 LINE",
"1146 1043 LINE SMOOTH",
"1191 1043 OFFCURVE",
"1213 1063 OFFCURVE",
"1222 1115 CURVE SMOOTH",
"1231 1167 OFFCURVE",
"1217 1187 OFFCURVE",
"1172 1187 CURVE SMOOTH"
);
},
{
closed = 1;
nodes = (
"480 28 LINE",
"445 -175 LINE SMOOTH",
"438 -213 OFFCURVE",
"458 -218 OFFCURVE",
"477 -217 CURVE SMOOTH",
"562 -212 OFFCURVE",
"611 -226 OFFCURVE",
"611 -271 CURVE SMOOTH",
"611 -317 OFFCURVE",
"575 -352 OFFCURVE",
"495 -352 CURVE SMOOTH",
"428 -352 OFFCURVE",
"357 -338 OFFCURVE",
"308 -318 CURVE SMOOTH",
"286 -309 OFFCURVE",
"262 -329 OFFCURVE",
"249 -354 CURVE SMOOTH",
"235 -380 OFFCURVE",
"233 -412 OFFCURVE",
"256 -424 CURVE SMOOTH",
"319 -456 OFFCURVE",
"405 -472 OFFCURVE",
"494 -472 CURVE SMOOTH",
"598 -472 OFFCURVE",
"670 -445 OFFCURVE",
"714 -398 CURVE SMOOTH",
"751 -359 OFFCURVE",
"768 -299 OFFCURVE",
"768 -258 CURVE SMOOTH",
"768 -178 OFFCURVE",
"713 -111 OFFCURVE",
"590 -114 CURVE",
"615 28 LINE"
);
}
);
width = 1228;
}
);
unicode = 0162;
},
{
glyphname = Tcommaaccent;
lastChange = "2015-01-14 05:27:16 +0000";
layers = (
{
layerId = UUID0;
name = "Regular Italic";
paths = (
{
closed = 1;
nodes = (
"314 1187 LINE SMOOTH",
"269 1187 OFFCURVE",
"247 1167 OFFCURVE",
"238 1115 CURVE SMOOTH",
"229 1063 OFFCURVE",
"243 1043 OFFCURVE",
"288 1043 CURVE SMOOTH",
"652 1043 LINE",
"478 55 LINE SMOOTH",
"470 9 OFFCURVE",
"485 -10 OFFCURVE",
"541 -10 CURVE SMOOTH",
"543 -10 LINE SMOOTH",
"596 -10 OFFCURVE",
"620 9 OFFCURVE",
"628 55 CURVE SMOOTH",
"802 1043 LINE",
"1146 1043 LINE SMOOTH",
"1191 1043 OFFCURVE",
"1213 1063 OFFCURVE",
"1222 1115 CURVE SMOOTH",
"1231 1167 OFFCURVE",
"1217 1187 OFFCURVE",
"1172 1187 CURVE SMOOTH"
);
},
{
closed = 1;
nodes = (
"623 -197 LINE SMOOTH",
"642 -169 OFFCURVE",
"637 -146 OFFCURVE",
"610 -146 CURVE SMOOTH",
"468 -146 LINE SMOOTH",
"446 -146 OFFCURVE",
"428 -157 OFFCURVE",
"420 -178 CURVE SMOOTH",
"310 -469 LINE SMOOTH",
"297 -503 OFFCURVE",
"314 -525 OFFCURVE",
"351 -525 CURVE SMOOTH",
"382 -525 OFFCURVE",
"410 -510 OFFCURVE",
"425 -488 CURVE SMOOTH"
);
}
);
width = 1228;
}
);
unicode = 021A;
},
{
glyphname = U;
lastChange = "2015-01-12 05:49:59 +0000";
layers = (
{
layerId = UUID0;
name = "Regular Italic";
paths = (
{
closed = 1;
nodes = (
"1117 1197 LINE SMOOTH",
"1064 1197 OFFCURVE",
"1040 1178 OFFCURVE",
"1032 1132 CURVE SMOOTH",
"909 433 LINE SMOOTH",
"870 210 OFFCURVE",
"758 126 OFFCURVE",
"567 126 CURVE SMOOTH",
"407 126 OFFCURVE",
"321 187 OFFCURVE",
"321 339 CURVE SMOOTH",
"321 367 OFFCURVE",
"325 399 OFFCURVE",
"331 435 CURVE SMOOTH",
"454 1132 LINE SMOOTH",
"462 1178 OFFCURVE",
"447 1197 OFFCURVE",
"391 1197 CURVE SMOOTH",
"389 1197 LINE SMOOTH",
"336 1197 OFFCURVE",
"312 1178 OFFCURVE",
"304 1132 CURVE SMOOTH",
"179 425 LINE SMOOTH",
"172 386 OFFCURVE",
"168 349 OFFCURVE",
"168 316 CURVE SMOOTH",
"168 90 OFFCURVE",
"318 -22 OFFCURVE",
"555 -22 CURVE SMOOTH",
"828 -22 OFFCURVE",
"1000 105 OFFCURVE",
"1053 404 CURVE SMOOTH",
"1182 1132 LINE SMOOTH",
"1190 1178 OFFCURVE",
"1175 1197 OFFCURVE",
"1119 1197 CURVE SMOOTH"
);
}
);
width = 1228;
}
);
unicode = 0055;
},
{
glyphname = Uacute;
lastChange = "2015-01-14 05:27:16 +0000";
layers = (
{
layerId = UUID0;
name = "Regular Italic";
paths = (
{
closed = 1;
nodes = (
"1117 1197 LINE SMOOTH",
"1064 1197 OFFCURVE",
"1040 1178 OFFCURVE",
"1032 1132 CURVE SMOOTH",
"909 433 LINE SMOOTH",
"870 210 OFFCURVE",
"758 126 OFFCURVE",
"567 126 CURVE SMOOTH",
"407 126 OFFCURVE",
"321 187 OFFCURVE",
"321 339 CURVE SMOOTH",
"321 367 OFFCURVE",
"325 399 OFFCURVE",
"331 435 CURVE SMOOTH",
"454 1132 LINE SMOOTH",
"462 1178 OFFCURVE",
"447 1197 OFFCURVE",
"391 1197 CURVE SMOOTH",
"389 1197 LINE SMOOTH",
"336 1197 OFFCURVE",
"312 1178 OFFCURVE",
"304 1132 CURVE SMOOTH",
"179 425 LINE SMOOTH",
"172 386 OFFCURVE",
"168 349 OFFCURVE",
"168 316 CURVE SMOOTH",
"168 90 OFFCURVE",
"318 -22 OFFCURVE",
"555 -22 CURVE SMOOTH",
"828 -22 OFFCURVE",
"1000 105 OFFCURVE",
"1053 404 CURVE SMOOTH",
"1182 1132 LINE SMOOTH",
"1190 1178 OFFCURVE",
"1175 1197 OFFCURVE",
"1119 1197 CURVE SMOOTH"
);
},
{
closed = 1;
nodes = (
"590 1403 LINE SMOOTH",
"567 1390 OFFCURVE",
"562 1364 OFFCURVE",
"571 1341 CURVE SMOOTH",
"580 1318 OFFCURVE",
"601 1301 OFFCURVE",
"626 1309 CURVE SMOOTH",
"1107 1472 LINE SMOOTH",
"1134 1481 OFFCURVE",
"1146 1508 OFFCURVE",
"1107 1579 CURVE SMOOTH",
"1065 1654 OFFCURVE",
"1040 1652 OFFCURVE",
"1006 1633 CURVE SMOOTH"
);
}
);
width = 1228;
}
);
unicode = 00DA;
},
{
glyphname = Ubreve;
lastChange = "2015-01-14 05:27:16 +0000";
layers = (
{
layerId = UUID0;
name = "Regular Italic";
paths = (
{
closed = 1;
nodes = (
"1117 1197 LINE SMOOTH",
"1064 1197 OFFCURVE",
"1040 1178 OFFCURVE",
"1032 1132 CURVE SMOOTH",
"909 433 LINE SMOOTH",
"870 210 OFFCURVE",
"758 126 OFFCURVE",
"567 126 CURVE SMOOTH",
"407 126 OFFCURVE",
"321 187 OFFCURVE",
"321 339 CURVE SMOOTH",
"321 367 OFFCURVE",
"325 399 OFFCURVE",
"331 435 CURVE SMOOTH",
"454 1132 LINE SMOOTH",
"462 1178 OFFCURVE",
"447 1197 OFFCURVE",
"391 1197 CURVE SMOOTH",
"389 1197 LINE SMOOTH",
"336 1197 OFFCURVE",
"312 1178 OFFCURVE",
"304 1132 CURVE SMOOTH",
"179 425 LINE SMOOTH",
"172 386 OFFCURVE",
"168 349 OFFCURVE",
"168 316 CURVE SMOOTH",
"168 90 OFFCURVE",
"318 -22 OFFCURVE",
"555 -22 CURVE SMOOTH",
"828 -22 OFFCURVE",
"1000 105 OFFCURVE",
"1053 404 CURVE SMOOTH",
"1182 1132 LINE SMOOTH",
"1190 1178 OFFCURVE",
"1175 1197 OFFCURVE",
"1119 1197 CURVE SMOOTH"
);
},
{
closed = 1;
nodes = (
"1124 1633 OFFCURVE",
"1089 1631 OFFCURVE",
"1073 1608 CURVE SMOOTH",
"1012 1518 OFFCURVE",
"922 1485 OFFCURVE",
"786 1485 CURVE SMOOTH",
"650 1485 OFFCURVE",
"570 1518 OFFCURVE",
"535 1608 CURVE SMOOTH",
"527 1629 OFFCURVE",
"498 1632 OFFCURVE",
"473 1622 CURVE SMOOTH",
"449 1613 OFFCURVE",
"428 1593 OFFCURVE",
"430 1568 CURVE SMOOTH",
"444 1430 OFFCURVE",
"568 1341 OFFCURVE",
"775 1341 CURVE SMOOTH",
"982 1341 OFFCURVE",
"1127 1430 OFFCURVE",
"1184 1568 CURVE SMOOTH",
"1194 1592 OFFCURVE",
"1176 1612 OFFCURVE",
"1151 1622 CURVE SMOOTH"
);
}
);
width = 1228;
}
);
unicode = 016C;
},
{
glyphname = Ucircumflex;
lastChange = "2015-01-14 05:27:16 +0000";
layers = (
{
layerId = UUID0;
name = "Regular Italic";
paths = (
{
closed = 1;
nodes = (
"1117 1197 LINE SMOOTH",
"1064 1197 OFFCURVE",
"1040 1178 OFFCURVE",
"1032 1132 CURVE SMOOTH",
"909 433 LINE SMOOTH",
"870 210 OFFCURVE",
"758 126 OFFCURVE",
"567 126 CURVE SMOOTH",
"407 126 OFFCURVE",
"321 187 OFFCURVE",
"321 339 CURVE SMOOTH",
"321 367 OFFCURVE",
"325 399 OFFCURVE",
"331 435 CURVE SMOOTH",
"454 1132 LINE SMOOTH",
"462 1178 OFFCURVE",
"447 1197 OFFCURVE",
"391 1197 CURVE SMOOTH",
"389 1197 LINE SMOOTH",
"336 1197 OFFCURVE",
"312 1178 OFFCURVE",
"304 1132 CURVE SMOOTH",
"179 425 LINE SMOOTH",
"172 386 OFFCURVE",
"168 349 OFFCURVE",
"168 316 CURVE SMOOTH",
"168 90 OFFCURVE",
"318 -22 OFFCURVE",
"555 -22 CURVE SMOOTH",
"828 -22 OFFCURVE",
"1000 105 OFFCURVE",
"1053 404 CURVE SMOOTH",
"1182 1132 LINE SMOOTH",
"1190 1178 OFFCURVE",
"1175 1197 OFFCURVE",
"1119 1197 CURVE SMOOTH"
);
},
{
closed = 1;
nodes = (
"799 1468 LINE",
"1051 1309 LINE SMOOTH",
"1072 1295 OFFCURVE",
"1096 1309 OFFCURVE",
"1110 1330 CURVE SMOOTH",
"1123 1351 OFFCURVE",
"1127 1379 OFFCURVE",
"1110 1396 CURVE SMOOTH",
"864 1628 LINE SMOOTH",
"851 1640 OFFCURVE",
"833 1646 OFFCURVE",
"812 1646 CURVE SMOOTH",
"791 1646 OFFCURVE",
"771 1640 OFFCURVE",
"754 1628 CURVE SMOOTH",
"446 1396 LINE SMOOTH",
"423 1379 OFFCURVE",
"421 1352 OFFCURVE",
"432 1331 CURVE SMOOTH",
"443 1310 OFFCURVE",
"467 1296 OFFCURVE",
"493 1309 CURVE SMOOTH"
);
}
);
width = 1228;
}
);
unicode = 00DB;
},
{
glyphname = Udieresis;
lastChange = "2015-01-14 05:27:16 +0000";
layers = (
{
layerId = UUID0;
name = "Regular Italic";
paths = (
{
closed = 1;
nodes = (
"1117 1197 LINE SMOOTH",
"1064 1197 OFFCURVE",
"1040 1178 OFFCURVE",
"1032 1132 CURVE SMOOTH",
"909 433 LINE SMOOTH",
"870 210 OFFCURVE",
"758 126 OFFCURVE",
"567 126 CURVE SMOOTH",
"407 126 OFFCURVE",
"321 187 OFFCURVE",
"321 339 CURVE SMOOTH",
"321 367 OFFCURVE",
"325 399 OFFCURVE",
"331 435 CURVE SMOOTH",
"454 1132 LINE SMOOTH",
"462 1178 OFFCURVE",
"447 1197 OFFCURVE",
"391 1197 CURVE SMOOTH",
"389 1197 LINE SMOOTH",
"336 1197 OFFCURVE",
"312 1178 OFFCURVE",
"304 1132 CURVE SMOOTH",
"179 425 LINE SMOOTH",
"172 386 OFFCURVE",
"168 349 OFFCURVE",
"168 316 CURVE SMOOTH",
"168 90 OFFCURVE",
"318 -22 OFFCURVE",
"555 -22 CURVE SMOOTH",
"828 -22 OFFCURVE",
"1000 105 OFFCURVE",
"1053 404 CURVE SMOOTH",
"1182 1132 LINE SMOOTH",
"1190 1178 OFFCURVE",
"1175 1197 OFFCURVE",
"1119 1197 CURVE SMOOTH"
);
},
{
closed = 1;
nodes = (
"618 1340 OFFCURVE",
"688 1403 OFFCURVE",
"688 1483 CURVE SMOOTH",
"688 1542 OFFCURVE",
"644 1590 OFFCURVE",
"581 1590 CURVE SMOOTH",
"507 1590 OFFCURVE",
"436 1525 OFFCURVE",
"436 1448 CURVE SMOOTH",
"436 1388 OFFCURVE",
"480 1340 OFFCURVE",
"544 1340 CURVE SMOOTH"
);
},
{
closed = 1;
nodes = (
"1058 1340 OFFCURVE",
"1128 1403 OFFCURVE",
"1128 1483 CURVE SMOOTH",
"1128 1542 OFFCURVE",
"1084 1590 OFFCURVE",
"1021 1590 CURVE SMOOTH",
"947 1590 OFFCURVE",
"876 1525 OFFCURVE",
"876 1448 CURVE SMOOTH",
"876 1388 OFFCURVE",
"920 1340 OFFCURVE",
"984 1340 CURVE SMOOTH"
);
}
);
width = 1228;
}
);
unicode = 00DC;
},
{
glyphname = Ugrave;
lastChange = "2015-01-14 05:27:15 +0000";
layers = (
{
layerId = UUID0;
name = "Regular Italic";
paths = (
{
closed = 1;
nodes = (
"1117 1197 LINE SMOOTH",
"1064 1197 OFFCURVE",
"1040 1178 OFFCURVE",
"1032 1132 CURVE SMOOTH",
"909 433 LINE SMOOTH",
"870 210 OFFCURVE",
"758 126 OFFCURVE",
"567 126 CURVE SMOOTH",
"407 126 OFFCURVE",
"321 187 OFFCURVE",
"321 339 CURVE SMOOTH",
"321 367 OFFCURVE",
"325 399 OFFCURVE",
"331 435 CURVE SMOOTH",
"454 1132 LINE SMOOTH",
"462 1178 OFFCURVE",
"447 1197 OFFCURVE",
"391 1197 CURVE SMOOTH",
"389 1197 LINE SMOOTH",
"336 1197 OFFCURVE",
"312 1178 OFFCURVE",
"304 1132 CURVE SMOOTH",
"179 425 LINE SMOOTH",
"172 386 OFFCURVE",
"168 349 OFFCURVE",
"168 316 CURVE SMOOTH",
"168 90 OFFCURVE",
"318 -22 OFFCURVE",
"555 -22 CURVE SMOOTH",
"828 -22 OFFCURVE",
"1000 105 OFFCURVE",
"1053 404 CURVE SMOOTH",
"1182 1132 LINE SMOOTH",
"1190 1178 OFFCURVE",
"1175 1197 OFFCURVE",
"1119 1197 CURVE SMOOTH"
);
},
{
closed = 1;
nodes = (
"576 1633 LINE SMOOTH",
"542 1652 OFFCURVE",
"517 1654 OFFCURVE",
"475 1579 CURVE SMOOTH",
"436 1508 OFFCURVE",
"448 1481 OFFCURVE",
"475 1472 CURVE SMOOTH",
"956 1309 LINE SMOOTH",
"981 1301 OFFCURVE",
"1002 1318 OFFCURVE",
"1011 1341 CURVE SMOOTH",
"1020 1364 OFFCURVE",
"1015 1390 OFFCURVE",
"992 1403 CURVE SMOOTH"
);
}
);
width = 1228;
}
);
unicode = 00D9;
},
{
glyphname = Uhungarumlaut;
lastChange = "2015-01-14 05:27:16 +0000";
layers = (
{
layerId = UUID0;
name = "Regular Italic";
paths = (
{
closed = 1;
nodes = (
"1117 1197 LINE SMOOTH",
"1064 1197 OFFCURVE",
"1040 1178 OFFCURVE",
"1032 1132 CURVE SMOOTH",
"909 433 LINE SMOOTH",
"870 210 OFFCURVE",
"758 126 OFFCURVE",
"567 126 CURVE SMOOTH",
"407 126 OFFCURVE",
"321 187 OFFCURVE",
"321 339 CURVE SMOOTH",
"321 367 OFFCURVE",
"325 399 OFFCURVE",
"331 435 CURVE SMOOTH",
"454 1132 LINE SMOOTH",
"462 1178 OFFCURVE",
"447 1197 OFFCURVE",
"391 1197 CURVE SMOOTH",
"389 1197 LINE SMOOTH",
"336 1197 OFFCURVE",
"312 1178 OFFCURVE",
"304 1132 CURVE SMOOTH",
"179 425 LINE SMOOTH",
"172 386 OFFCURVE",
"168 349 OFFCURVE",
"168 316 CURVE SMOOTH",
"168 90 OFFCURVE",
"318 -22 OFFCURVE",
"555 -22 CURVE SMOOTH",
"828 -22 OFFCURVE",
"1000 105 OFFCURVE",
"1053 404 CURVE SMOOTH",
"1182 1132 LINE SMOOTH",
"1190 1178 OFFCURVE",
"1175 1197 OFFCURVE",
"1119 1197 CURVE SMOOTH"
);
},
{
closed = 1;
nodes = (
"786 1664 OFFCURVE",
"745 1660 OFFCURVE",
"716 1633 CURVE SMOOTH",
"475 1400 LINE SMOOTH",
"455 1381 OFFCURVE",
"456 1353 OFFCURVE",
"483 1336 CURVE SMOOTH",
"512 1318 OFFCURVE",
"542 1320 OFFCURVE",
"565 1336 CURVE SMOOTH",
"866 1546 LINE SMOOTH",
"898 1568 OFFCURVE",
"888 1597 OFFCURVE",
"833 1633 CURVE SMOOTH"
);
},
{
closed = 1;
nodes = (
"1166 1664 OFFCURVE",
"1125 1660 OFFCURVE",
"1096 1633 CURVE SMOOTH",
"855 1400 LINE SMOOTH",
"835 1381 OFFCURVE",
"836 1353 OFFCURVE",
"863 1336 CURVE SMOOTH",
"892 1318 OFFCURVE",
"922 1320 OFFCURVE",
"945 1336 CURVE SMOOTH",
"1246 1546 LINE SMOOTH",
"1278 1568 OFFCURVE",
"1268 1597 OFFCURVE",
"1213 1633 CURVE SMOOTH"
);
}
);
width = 1228;
}
);
unicode = 0170;
},
{
glyphname = Umacron;
lastChange = "2015-01-14 05:27:17 +0000";
layers = (
{
layerId = UUID0;
name = "Regular Italic";
paths = (
{
closed = 1;
nodes = (
"1117 1197 LINE SMOOTH",
"1064 1197 OFFCURVE",
"1040 1178 OFFCURVE",
"1032 1132 CURVE SMOOTH",
"909 433 LINE SMOOTH",
"870 210 OFFCURVE",
"758 126 OFFCURVE",
"567 126 CURVE SMOOTH",
"407 126 OFFCURVE",
"321 187 OFFCURVE",
"321 339 CURVE SMOOTH",
"321 367 OFFCURVE",
"325 399 OFFCURVE",
"331 435 CURVE SMOOTH",
"454 1132 LINE SMOOTH",
"462 1178 OFFCURVE",
"447 1197 OFFCURVE",
"391 1197 CURVE SMOOTH",
"389 1197 LINE SMOOTH",
"336 1197 OFFCURVE",
"312 1178 OFFCURVE",
"304 1132 CURVE SMOOTH",
"179 425 LINE SMOOTH",
"172 386 OFFCURVE",
"168 349 OFFCURVE",
"168 316 CURVE SMOOTH",
"168 90 OFFCURVE",
"318 -22 OFFCURVE",
"555 -22 CURVE SMOOTH",
"828 -22 OFFCURVE",
"1000 105 OFFCURVE",
"1053 404 CURVE SMOOTH",
"1182 1132 LINE SMOOTH",
"1190 1178 OFFCURVE",
"1175 1197 OFFCURVE",
"1119 1197 CURVE SMOOTH"
);
},
{
closed = 1;
nodes = (
"513 1520 LINE SMOOTH",
"468 1520 OFFCURVE",
"446 1500 OFFCURVE",
"437 1448 CURVE SMOOTH",
"428 1396 OFFCURVE",
"443 1376 OFFCURVE",
"488 1376 CURVE SMOOTH",
"1050 1376 LINE SMOOTH",
"1095 1376 OFFCURVE",
"1116 1396 OFFCURVE",
"1125 1448 CURVE SMOOTH",
"1134 1500 OFFCURVE",
"1120 1520 OFFCURVE",
"1075 1520 CURVE SMOOTH"
);
}
);
width = 1228;
}
);
unicode = 016A;
},
{
color = 3;
glyphname = Uogonek;
lastChange = "2015-01-14 05:27:16 +0000";
layers = (
{
layerId = UUID0;
name = "Regular Italic";
paths = (
{
closed = 1;
nodes = (
"1117 1197 LINE SMOOTH",
"1064 1197 OFFCURVE",
"1040 1178 OFFCURVE",
"1032 1132 CURVE SMOOTH",
"909 433 LINE SMOOTH",
"870 210 OFFCURVE",
"758 126 OFFCURVE",
"567 126 CURVE SMOOTH",
"407 126 OFFCURVE",
"321 187 OFFCURVE",
"321 339 CURVE SMOOTH",
"321 367 OFFCURVE",
"325 399 OFFCURVE",
"331 435 CURVE SMOOTH",
"454 1132 LINE SMOOTH",
"462 1178 OFFCURVE",
"447 1197 OFFCURVE",
"391 1197 CURVE SMOOTH",
"389 1197 LINE SMOOTH",
"336 1197 OFFCURVE",
"312 1178 OFFCURVE",
"304 1132 CURVE SMOOTH",
"179 425 LINE SMOOTH",
"172 386 OFFCURVE",
"168 349 OFFCURVE",
"168 316 CURVE SMOOTH",
"168 90 OFFCURVE",
"318 -22 OFFCURVE",
"555 -22 CURVE SMOOTH",
"828 -22 OFFCURVE",
"1000 105 OFFCURVE",
"1053 404 CURVE SMOOTH",
"1182 1132 LINE SMOOTH",
"1190 1178 OFFCURVE",
"1175 1197 OFFCURVE",
"1119 1197 CURVE SMOOTH"
);
},
{
closed = 1;
nodes = (
"621 28 LINE",
"470 -82 OFFCURVE",
"383 -190 OFFCURVE",
"383 -310 CURVE SMOOTH",
"383 -406 OFFCURVE",
"441 -472 OFFCURVE",
"548 -472 CURVE SMOOTH",
"612 -472 OFFCURVE",
"677 -460 OFFCURVE",
"726 -443 CURVE SMOOTH",
"757 -432 OFFCURVE",
"767 -411 OFFCURVE",
"762 -374 CURVE SMOOTH",
"757 -337 OFFCURVE",
"742 -322 OFFCURVE",
"715 -326 CURVE SMOOTH",
"679 -332 OFFCURVE",
"643 -336 OFFCURVE",
"604 -336 CURVE SMOOTH",
"564 -336 OFFCURVE",
"539 -316 OFFCURVE",
"539 -277 CURVE SMOOTH",
"539 -200 OFFCURVE",
"618 -104 OFFCURVE",
"791 28 CURVE"
);
}
);
width = 1228;
}
);
unicode = 0172;
},
{
glyphname = Uring;
lastChange = "2015-01-14 05:27:16 +0000";
layers = (
{
layerId = UUID0;
name = "Regular Italic";
paths = (
{
closed = 1;
nodes = (
"1117 1197 LINE SMOOTH",
"1064 1197 OFFCURVE",
"1040 1178 OFFCURVE",
"1032 1132 CURVE SMOOTH",
"909 433 LINE SMOOTH",
"870 210 OFFCURVE",
"758 126 OFFCURVE",
"567 126 CURVE SMOOTH",
"407 126 OFFCURVE",
"321 187 OFFCURVE",
"321 339 CURVE SMOOTH",
"321 367 OFFCURVE",
"325 399 OFFCURVE",
"331 435 CURVE SMOOTH",
"454 1132 LINE SMOOTH",
"462 1178 OFFCURVE",
"447 1197 OFFCURVE",
"391 1197 CURVE SMOOTH",
"389 1197 LINE SMOOTH",
"336 1197 OFFCURVE",
"312 1178 OFFCURVE",
"304 1132 CURVE SMOOTH",
"179 425 LINE SMOOTH",
"172 386 OFFCURVE",
"168 349 OFFCURVE",
"168 316 CURVE SMOOTH",
"168 90 OFFCURVE",
"318 -22 OFFCURVE",
"555 -22 CURVE SMOOTH",
"828 -22 OFFCURVE",
"1000 105 OFFCURVE",
"1053 404 CURVE SMOOTH",
"1182 1132 LINE SMOOTH",
"1190 1178 OFFCURVE",
"1175 1197 OFFCURVE",
"1119 1197 CURVE SMOOTH"
);
},
{
closed = 1;
nodes = (
"932 1305 OFFCURVE",
"1045 1446 OFFCURVE",
"1045 1582 CURVE SMOOTH",
"1045 1700 OFFCURVE",
"953 1797 OFFCURVE",
"831 1797 CURVE SMOOTH",
"663 1797 OFFCURVE",
"550 1653 OFFCURVE",
"550 1520 CURVE SMOOTH",
"550 1402 OFFCURVE",
"642 1305 OFFCURVE",
"764 1305 CURVE SMOOTH"
);
},
{
closed = 1;
nodes = (
"713 1425 OFFCURVE",
"670 1469 OFFCURVE",
"670 1528 CURVE SMOOTH",
"670 1608 OFFCURVE",
"742 1677 OFFCURVE",
"820 1677 CURVE SMOOTH",
"882 1677 OFFCURVE",
"926 1632 OFFCURVE",
"926 1573 CURVE SMOOTH",
"926 1493 OFFCURVE",
"851 1425 OFFCURVE",
"775 1425 CURVE SMOOTH"
);
}
);
width = 1228;
}
);
unicode = 016E;
},
{
glyphname = Utilde;
lastChange = "2015-01-14 05:27:15 +0000";
layers = (
{
layerId = UUID0;
name = "Regular Italic";
paths = (
{
closed = 1;
nodes = (
"1117 1197 LINE SMOOTH",
"1064 1197 OFFCURVE",
"1040 1178 OFFCURVE",
"1032 1132 CURVE SMOOTH",
"909 433 LINE SMOOTH",
"870 210 OFFCURVE",
"758 126 OFFCURVE",
"567 126 CURVE SMOOTH",
"407 126 OFFCURVE",
"321 187 OFFCURVE",
"321 339 CURVE SMOOTH",
"321 367 OFFCURVE",
"325 399 OFFCURVE",
"331 435 CURVE SMOOTH",
"454 1132 LINE SMOOTH",
"462 1178 OFFCURVE",
"447 1197 OFFCURVE",
"391 1197 CURVE SMOOTH",
"389 1197 LINE SMOOTH",
"336 1197 OFFCURVE",
"312 1178 OFFCURVE",
"304 1132 CURVE SMOOTH",
"179 425 LINE SMOOTH",
"172 386 OFFCURVE",
"168 349 OFFCURVE",
"168 316 CURVE SMOOTH",
"168 90 OFFCURVE",
"318 -22 OFFCURVE",
"555 -22 CURVE SMOOTH",
"828 -22 OFFCURVE",
"1000 105 OFFCURVE",
"1053 404 CURVE SMOOTH",
"1182 1132 LINE SMOOTH",
"1190 1178 OFFCURVE",
"1175 1197 OFFCURVE",
"1119 1197 CURVE SMOOTH"
);
},
{
closed = 1;
nodes = (
"606 1557 OFFCURVE",
"542 1532 OFFCURVE",
"463 1466 CURVE SMOOTH",
"442 1449 OFFCURVE",
"440 1421 OFFCURVE",
"457 1392 CURVE SMOOTH",
"474 1363 OFFCURVE",
"497 1354 OFFCURVE",
"519 1367 CURVE SMOOTH",
"566 1395 OFFCURVE",
"614 1409 OFFCURVE",
"654 1409 CURVE SMOOTH",
"744 1409 OFFCURVE",
"824 1346 OFFCURVE",
"923 1346 CURVE SMOOTH",
"980 1346 OFFCURVE",
"1044 1371 OFFCURVE",
"1123 1437 CURVE SMOOTH",
"1144 1454 OFFCURVE",
"1146 1482 OFFCURVE",
"1129 1511 CURVE SMOOTH",
"1112 1540 OFFCURVE",
"1089 1549 OFFCURVE",
"1067 1536 CURVE SMOOTH",
"1020 1508 OFFCURVE",
"972 1494 OFFCURVE",
"932 1494 CURVE SMOOTH",
"842 1494 OFFCURVE",
"762 1557 OFFCURVE",
"663 1557 CURVE SMOOTH"
);
}
);
width = 1228;
}
);
unicode = 0168;
},
{
glyphname = V;
lastChange = "2015-01-12 05:49:59 +0000";
layers = (
{
layerId = UUID0;
name = "Regular Italic";
paths = (
{
closed = 1;
nodes = (
"229 1188 OFFCURVE",
"217 1168 OFFCURVE",
"226 1124 CURVE SMOOTH",
"442 43 LINE SMOOTH",
"451 -4 OFFCURVE",
"481 -22 OFFCURVE",
"538 -22 CURVE SMOOTH",
"595 -22 OFFCURVE",
"630 -4 OFFCURVE",
"656 43 CURVE SMOOTH",
"1238 1096 LINE SMOOTH",
"1262 1140 OFFCURVE",
"1255 1164 OFFCURVE",
"1206 1187 CURVE SMOOTH",
"1158 1210 OFFCURVE",
"1126 1203 OFFCURVE",
"1102 1159 CURVE SMOOTH",
"567 182 LINE",
"377 1146 LINE SMOOTH",
"368 1190 OFFCURVE",
"349 1202 OFFCURVE",
"289 1195 CURVE SMOOTH"
);
}
);
width = 1228;
}
);
unicode = 0056;
},
{
glyphname = W;
lastChange = "2015-01-12 05:49:59 +0000";
layers = (
{
layerId = UUID0;
name = "Regular Italic";
paths = (
{
closed = 1;
nodes = (
"211 1196 OFFCURVE",
"198 1180 OFFCURVE",
"196 1136 CURVE SMOOTH",
"154 43 LINE SMOOTH",
"152 -6 OFFCURVE",
"181 -22 OFFCURVE",
"232 -22 CURVE SMOOTH",
"283 -22 OFFCURVE",
"316 -2 OFFCURVE",
"340 43 CURVE SMOOTH",
"650 629 LINE",
"754 43 LINE SMOOTH",
"762 -2 OFFCURVE",
"795 -22 OFFCURVE",
"846 -22 CURVE SMOOTH",
"897 -22 OFFCURVE",
"925 -6 OFFCURVE",
"940 43 CURVE SMOOTH",
"1275 1110 LINE SMOOTH",
"1291 1161 OFFCURVE",
"1285 1185 OFFCURVE",
"1226 1195 CURVE SMOOTH",
"1169 1205 OFFCURVE",
"1145 1191 OFFCURVE",
"1130 1141 CURVE SMOOTH",
"862 258 LINE",
"758 845 LINE SMOOTH",
"754 871 OFFCURVE",
"733 885 OFFCURVE",
"689 885 CURVE SMOOTH",
"645 885 OFFCURVE",
"624 871 OFFCURVE",
"610 845 CURVE SMOOTH",
"300 258 LINE",
"343 1133 LINE SMOOTH",
"345 1180 OFFCURVE",
"330 1196 OFFCURVE",
"270 1196 CURVE SMOOTH"
);
}
);
width = 1228;
}
);
unicode = 0057;
},
{
glyphname = Wacute;
lastChange = "2015-01-14 05:27:16 +0000";
layers = (
{
layerId = UUID0;
name = "Regular Italic";
paths = (
{
closed = 1;
nodes = (
"211 1196 OFFCURVE",
"198 1180 OFFCURVE",
"196 1136 CURVE SMOOTH",
"154 43 LINE SMOOTH",
"152 -6 OFFCURVE",
"181 -22 OFFCURVE",
"232 -22 CURVE SMOOTH",
"283 -22 OFFCURVE",
"316 -2 OFFCURVE",
"340 43 CURVE SMOOTH",
"650 629 LINE",
"754 43 LINE SMOOTH",
"762 -2 OFFCURVE",
"795 -22 OFFCURVE",
"846 -22 CURVE SMOOTH",
"897 -22 OFFCURVE",
"925 -6 OFFCURVE",
"940 43 CURVE SMOOTH",
"1275 1110 LINE SMOOTH",
"1291 1161 OFFCURVE",
"1285 1185 OFFCURVE",
"1226 1195 CURVE SMOOTH",
"1169 1205 OFFCURVE",
"1145 1191 OFFCURVE",
"1130 1141 CURVE SMOOTH",
"862 258 LINE",
"758 845 LINE SMOOTH",
"754 871 OFFCURVE",
"733 885 OFFCURVE",
"689 885 CURVE SMOOTH",
"645 885 OFFCURVE",
"624 871 OFFCURVE",
"610 845 CURVE SMOOTH",
"300 258 LINE",
"343 1133 LINE SMOOTH",
"345 1180 OFFCURVE",
"330 1196 OFFCURVE",
"270 1196 CURVE SMOOTH"
);
},
{
closed = 1;
nodes = (
"574 1403 LINE SMOOTH",
"551 1390 OFFCURVE",
"546 1364 OFFCURVE",
"555 1341 CURVE SMOOTH",
"564 1318 OFFCURVE",
"585 1301 OFFCURVE",
"610 1309 CURVE SMOOTH",
"1091 1472 LINE SMOOTH",
"1118 1481 OFFCURVE",
"1130 1508 OFFCURVE",
"1091 1579 CURVE SMOOTH",
"1049 1654 OFFCURVE",
"1024 1652 OFFCURVE",
"990 1633 CURVE SMOOTH"
);
}
);
width = 1228;
}
);
unicode = 1E82;
},
{
glyphname = Wcircumflex;
lastChange = "2015-01-14 05:27:16 +0000";
layers = (
{
layerId = UUID0;
name = "Regular Italic";
paths = (
{
closed = 1;
nodes = (
"211 1196 OFFCURVE",
"198 1180 OFFCURVE",
"196 1136 CURVE SMOOTH",
"154 43 LINE SMOOTH",
"152 -6 OFFCURVE",
"181 -22 OFFCURVE",
"232 -22 CURVE SMOOTH",
"283 -22 OFFCURVE",
"316 -2 OFFCURVE",
"340 43 CURVE SMOOTH",
"650 629 LINE",
"754 43 LINE SMOOTH",
"762 -2 OFFCURVE",
"795 -22 OFFCURVE",
"846 -22 CURVE SMOOTH",
"897 -22 OFFCURVE",
"925 -6 OFFCURVE",
"940 43 CURVE SMOOTH",
"1275 1110 LINE SMOOTH",
"1291 1161 OFFCURVE",
"1285 1185 OFFCURVE",
"1226 1195 CURVE SMOOTH",
"1169 1205 OFFCURVE",
"1145 1191 OFFCURVE",
"1130 1141 CURVE SMOOTH",
"862 258 LINE",
"758 845 LINE SMOOTH",
"754 871 OFFCURVE",
"733 885 OFFCURVE",
"689 885 CURVE SMOOTH",
"645 885 OFFCURVE",
"624 871 OFFCURVE",
"610 845 CURVE SMOOTH",
"300 258 LINE",
"343 1133 LINE SMOOTH",
"345 1180 OFFCURVE",
"330 1196 OFFCURVE",
"270 1196 CURVE SMOOTH"
);
},
{
closed = 1;
nodes = (
"783 1468 LINE",
"1035 1309 LINE SMOOTH",
"1056 1295 OFFCURVE",
"1080 1309 OFFCURVE",
"1094 1330 CURVE SMOOTH",
"1107 1351 OFFCURVE",
"1111 1379 OFFCURVE",
"1094 1396 CURVE SMOOTH",
"848 1628 LINE SMOOTH",
"835 1640 OFFCURVE",
"817 1646 OFFCURVE",
"796 1646 CURVE SMOOTH",
"775 1646 OFFCURVE",
"755 1640 OFFCURVE",
"738 1628 CURVE SMOOTH",
"430 1396 LINE SMOOTH",
"407 1379 OFFCURVE",
"405 1352 OFFCURVE",
"416 1331 CURVE SMOOTH",
"427 1310 OFFCURVE",
"451 1296 OFFCURVE",
"477 1309 CURVE SMOOTH"
);
}
);
width = 1228;
}
);
unicode = 0174;
},
{
glyphname = Wdieresis;
lastChange = "2015-01-14 05:27:16 +0000";
layers = (
{
layerId = UUID0;
name = "Regular Italic";
paths = (
{
closed = 1;
nodes = (
"211 1196 OFFCURVE",
"198 1180 OFFCURVE",
"196 1136 CURVE SMOOTH",
"154 43 LINE SMOOTH",
"152 -6 OFFCURVE",
"181 -22 OFFCURVE",
"232 -22 CURVE SMOOTH",
"283 -22 OFFCURVE",
"316 -2 OFFCURVE",
"340 43 CURVE SMOOTH",
"650 629 LINE",
"754 43 LINE SMOOTH",
"762 -2 OFFCURVE",
"795 -22 OFFCURVE",
"846 -22 CURVE SMOOTH",
"897 -22 OFFCURVE",
"925 -6 OFFCURVE",
"940 43 CURVE SMOOTH",
"1275 1110 LINE SMOOTH",
"1291 1161 OFFCURVE",
"1285 1185 OFFCURVE",
"1226 1195 CURVE SMOOTH",
"1169 1205 OFFCURVE",
"1145 1191 OFFCURVE",
"1130 1141 CURVE SMOOTH",
"862 258 LINE",
"758 845 LINE SMOOTH",
"754 871 OFFCURVE",
"733 885 OFFCURVE",
"689 885 CURVE SMOOTH",
"645 885 OFFCURVE",
"624 871 OFFCURVE",
"610 845 CURVE SMOOTH",
"300 258 LINE",
"343 1133 LINE SMOOTH",
"345 1180 OFFCURVE",
"330 1196 OFFCURVE",
"270 1196 CURVE SMOOTH"
);
},
{
closed = 1;
nodes = (
"613 1340 OFFCURVE",
"683 1403 OFFCURVE",
"683 1483 CURVE SMOOTH",
"683 1542 OFFCURVE",
"639 1590 OFFCURVE",
"576 1590 CURVE SMOOTH",
"502 1590 OFFCURVE",
"431 1525 OFFCURVE",
"431 1448 CURVE SMOOTH",
"431 1388 OFFCURVE",
"475 1340 OFFCURVE",
"539 1340 CURVE SMOOTH"
);
},
{
closed = 1;
nodes = (
"1053 1340 OFFCURVE",
"1123 1403 OFFCURVE",
"1123 1483 CURVE SMOOTH",
"1123 1542 OFFCURVE",
"1079 1590 OFFCURVE",
"1016 1590 CURVE SMOOTH",
"942 1590 OFFCURVE",
"871 1525 OFFCURVE",
"871 1448 CURVE SMOOTH",
"871 1388 OFFCURVE",
"915 1340 OFFCURVE",
"979 1340 CURVE SMOOTH"
);
}
);
width = 1228;
}
);
unicode = 1E84;
},
{
glyphname = Wgrave;
lastChange = "2015-01-14 05:27:16 +0000";
layers = (
{
layerId = UUID0;
name = "Regular Italic";
paths = (
{
closed = 1;
nodes = (
"211 1196 OFFCURVE",
"198 1180 OFFCURVE",
"196 1136 CURVE SMOOTH",
"154 43 LINE SMOOTH",
"152 -6 OFFCURVE",
"181 -22 OFFCURVE",
"232 -22 CURVE SMOOTH",
"283 -22 OFFCURVE",
"316 -2 OFFCURVE",
"340 43 CURVE SMOOTH",
"650 629 LINE",
"754 43 LINE SMOOTH",
"762 -2 OFFCURVE",
"795 -22 OFFCURVE",
"846 -22 CURVE SMOOTH",
"897 -22 OFFCURVE",
"925 -6 OFFCURVE",
"940 43 CURVE SMOOTH",
"1275 1110 LINE SMOOTH",
"1291 1161 OFFCURVE",
"1285 1185 OFFCURVE",
"1226 1195 CURVE SMOOTH",
"1169 1205 OFFCURVE",
"1145 1191 OFFCURVE",
"1130 1141 CURVE SMOOTH",
"862 258 LINE",
"758 845 LINE SMOOTH",
"754 871 OFFCURVE",
"733 885 OFFCURVE",
"689 885 CURVE SMOOTH",
"645 885 OFFCURVE",
"624 871 OFFCURVE",
"610 845 CURVE SMOOTH",
"300 258 LINE",
"343 1133 LINE SMOOTH",
"345 1180 OFFCURVE",
"330 1196 OFFCURVE",
"270 1196 CURVE SMOOTH"
);
},
{
closed = 1;
nodes = (
"536 1633 LINE SMOOTH",
"502 1652 OFFCURVE",
"477 1654 OFFCURVE",
"435 1579 CURVE SMOOTH",
"396 1508 OFFCURVE",
"408 1481 OFFCURVE",
"435 1472 CURVE SMOOTH",
"916 1309 LINE SMOOTH",
"941 1301 OFFCURVE",
"962 1318 OFFCURVE",
"971 1341 CURVE SMOOTH",
"980 1364 OFFCURVE",
"975 1390 OFFCURVE",
"952 1403 CURVE SMOOTH"
);
}
);
width = 1228;
}
);
unicode = 1E80;
},
{
glyphname = X;
lastChange = "2015-01-12 05:49:59 +0000";
layers = (
{
layerId = UUID0;
name = "Regular Italic";
paths = (
{
closed = 1;
nodes = (
"1115 1215 OFFCURVE",
"1078 1218 OFFCURVE",
"1045 1178 CURVE SMOOTH",
"616 657 LINE",
"571 623 LINE",
"116 97 LINE SMOOTH",
"82 57 OFFCURVE",
"86 26 OFFCURVE",
"127 0 CURVE SMOOTH",
"170 -28 OFFCURVE",
"207 -31 OFFCURVE",
"240 9 CURVE SMOOTH",
"663 516 LINE",
"711 552 LINE",
"1169 1090 LINE SMOOTH",
"1203 1130 OFFCURVE",
"1199 1161 OFFCURVE",
"1158 1187 CURVE SMOOTH"
);
},
{
closed = 1;
nodes = (
"309 1163 OFFCURVE",
"294 1142 OFFCURVE",
"315 1102 CURVE SMOOTH",
"590 568 LINE",
"617 538 LINE",
"877 17 LINE SMOOTH",
"897 -23 OFFCURVE",
"920 -26 OFFCURVE",
"973 0 CURVE SMOOTH",
"1022 24 OFFCURVE",
"1037 45 OFFCURVE",
"1016 85 CURVE SMOOTH",
"731 629 LINE",
"707 656 LINE",
"454 1170 LINE SMOOTH",
"434 1210 OFFCURVE",
"411 1213 OFFCURVE",
"358 1187 CURVE SMOOTH"
);
}
);
width = 1228;
}
);
unicode = 0058;
},
{
glyphname = Y;
lastChange = "2015-01-12 05:49:59 +0000";
layers = (
{
background = {
paths = (
{
closed = 1;
nodes = (
"1143 1213 OFFCURVE",
"1110 1205 OFFCURVE",
"1083 1172 CURVE SMOOTH",
"649 642 LINE",
"404 1165 LINE SMOOTH",
"389 1198 OFFCURVE",
"368 1209 OFFCURVE",
"314 1187 CURVE SMOOTH",
"259 1165 OFFCURVE",
"252 1141 OFFCURVE",
"271 1101 CURVE SMOOTH",
"556 499 LINE",
"478 55 LINE SMOOTH",
"470 9 OFFCURVE",
"485 -10 OFFCURVE",
"541 -10 CURVE SMOOTH",
"543 -10 LINE SMOOTH",
"596 -10 OFFCURVE",
"620 9 OFFCURVE",
"628 55 CURVE SMOOTH",
"704 486 LINE",
"1206 1090 LINE SMOOTH",
"1239 1130 OFFCURVE",
"1234 1159 OFFCURVE",
"1187 1187 CURVE SMOOTH"
);
}
);
};
layerId = UUID0;
name = "Regular Italic";
paths = (
{
closed = 1;
nodes = (
"1143 1213 OFFCURVE",
"1110 1205 OFFCURVE",
"1083 1172 CURVE SMOOTH",
"620 607 LINE",
"668 601 LINE",
"404 1165 LINE SMOOTH",
"389 1198 OFFCURVE",
"368 1209 OFFCURVE",
"314 1187 CURVE SMOOTH",
"259 1165 OFFCURVE",
"252 1141 OFFCURVE",
"271 1101 CURVE SMOOTH",
"576 457 LINE",
"680 457 LINE",
"1206 1090 LINE SMOOTH",
"1239 1130 OFFCURVE",
"1234 1159 OFFCURVE",
"1187 1187 CURVE SMOOTH"
);
},
{
closed = 1;
nodes = (
"559 515 LINE",
"478 55 LINE SMOOTH",
"470 9 OFFCURVE",
"485 -10 OFFCURVE",
"541 -10 CURVE SMOOTH",
"543 -10 LINE SMOOTH",
"596 -10 OFFCURVE",
"620 9 OFFCURVE",
"628 55 CURVE SMOOTH",
"709 515 LINE"
);
}
);
width = 1228;
}
);
unicode = 0059;
},
{
glyphname = Yacute;
lastChange = "2015-01-14 05:27:16 +0000";
layers = (
{
layerId = UUID0;
name = "Regular Italic";
paths = (
{
closed = 1;
nodes = (
"1143 1213 OFFCURVE",
"1110 1205 OFFCURVE",
"1083 1172 CURVE SMOOTH",
"620 607 LINE",
"668 601 LINE",
"404 1165 LINE SMOOTH",
"389 1198 OFFCURVE",
"368 1209 OFFCURVE",
"314 1187 CURVE SMOOTH",
"259 1165 OFFCURVE",
"252 1141 OFFCURVE",
"271 1101 CURVE SMOOTH",
"576 457 LINE",
"680 457 LINE",
"1206 1090 LINE SMOOTH",
"1239 1130 OFFCURVE",
"1234 1159 OFFCURVE",
"1187 1187 CURVE SMOOTH"
);
},
{
closed = 1;
nodes = (
"559 515 LINE",
"478 55 LINE SMOOTH",
"470 9 OFFCURVE",
"485 -10 OFFCURVE",
"541 -10 CURVE SMOOTH",
"543 -10 LINE SMOOTH",
"596 -10 OFFCURVE",
"620 9 OFFCURVE",
"628 55 CURVE SMOOTH",
"709 515 LINE"
);
},
{
closed = 1;
nodes = (
"594 1403 LINE SMOOTH",
"571 1390 OFFCURVE",
"566 1364 OFFCURVE",
"575 1341 CURVE SMOOTH",
"584 1318 OFFCURVE",
"605 1301 OFFCURVE",
"630 1309 CURVE SMOOTH",
"1111 1472 LINE SMOOTH",
"1138 1481 OFFCURVE",
"1150 1508 OFFCURVE",
"1111 1579 CURVE SMOOTH",
"1069 1654 OFFCURVE",
"1044 1652 OFFCURVE",
"1010 1633 CURVE SMOOTH"
);
}
);
width = 1228;
}
);
unicode = 00DD;
},
{
glyphname = Ycircumflex;
lastChange = "2015-01-14 05:27:16 +0000";
layers = (
{
layerId = UUID0;
name = "Regular Italic";
paths = (
{
closed = 1;
nodes = (
"1143 1213 OFFCURVE",
"1110 1205 OFFCURVE",
"1083 1172 CURVE SMOOTH",
"620 607 LINE",
"668 601 LINE",
"404 1165 LINE SMOOTH",
"389 1198 OFFCURVE",
"368 1209 OFFCURVE",
"314 1187 CURVE SMOOTH",
"259 1165 OFFCURVE",
"252 1141 OFFCURVE",
"271 1101 CURVE SMOOTH",
"576 457 LINE",
"680 457 LINE",
"1206 1090 LINE SMOOTH",
"1239 1130 OFFCURVE",
"1234 1159 OFFCURVE",
"1187 1187 CURVE SMOOTH"
);
},
{
closed = 1;
nodes = (
"559 515 LINE",
"478 55 LINE SMOOTH",
"470 9 OFFCURVE",
"485 -10 OFFCURVE",
"541 -10 CURVE SMOOTH",
"543 -10 LINE SMOOTH",
"596 -10 OFFCURVE",
"620 9 OFFCURVE",
"628 55 CURVE SMOOTH",
"709 515 LINE"
);
},
{
closed = 1;
nodes = (
"803 1468 LINE",
"1055 1309 LINE SMOOTH",
"1076 1295 OFFCURVE",
"1100 1309 OFFCURVE",
"1114 1330 CURVE SMOOTH",
"1127 1351 OFFCURVE",
"1131 1379 OFFCURVE",
"1114 1396 CURVE SMOOTH",
"868 1628 LINE SMOOTH",
"855 1640 OFFCURVE",
"837 1646 OFFCURVE",
"816 1646 CURVE SMOOTH",
"795 1646 OFFCURVE",
"775 1640 OFFCURVE",
"758 1628 CURVE SMOOTH",
"450 1396 LINE SMOOTH",
"427 1379 OFFCURVE",
"425 1352 OFFCURVE",
"436 1331 CURVE SMOOTH",
"447 1310 OFFCURVE",
"471 1296 OFFCURVE",
"497 1309 CURVE SMOOTH"
);
}
);
width = 1228;
}
);
unicode = 0176;
},
{
glyphname = Ydieresis;
lastChange = "2015-01-14 05:27:15 +0000";
layers = (
{
layerId = UUID0;
name = "Regular Italic";
paths = (
{
closed = 1;
nodes = (
"1143 1213 OFFCURVE",
"1110 1205 OFFCURVE",
"1083 1172 CURVE SMOOTH",
"620 607 LINE",
"668 601 LINE",
"404 1165 LINE SMOOTH",
"389 1198 OFFCURVE",
"368 1209 OFFCURVE",
"314 1187 CURVE SMOOTH",
"259 1165 OFFCURVE",
"252 1141 OFFCURVE",
"271 1101 CURVE SMOOTH",
"576 457 LINE",
"680 457 LINE",
"1206 1090 LINE SMOOTH",
"1239 1130 OFFCURVE",
"1234 1159 OFFCURVE",
"1187 1187 CURVE SMOOTH"
);
},
{
closed = 1;
nodes = (
"559 515 LINE",
"478 55 LINE SMOOTH",
"470 9 OFFCURVE",
"485 -10 OFFCURVE",
"541 -10 CURVE SMOOTH",
"543 -10 LINE SMOOTH",
"596 -10 OFFCURVE",
"620 9 OFFCURVE",
"628 55 CURVE SMOOTH",
"709 515 LINE"
);
},
{
closed = 1;
nodes = (
"618 1340 OFFCURVE",
"688 1403 OFFCURVE",
"688 1483 CURVE SMOOTH",
"688 1542 OFFCURVE",
"644 1590 OFFCURVE",
"581 1590 CURVE SMOOTH",
"507 1590 OFFCURVE",
"436 1525 OFFCURVE",
"436 1448 CURVE SMOOTH",
"436 1388 OFFCURVE",
"480 1340 OFFCURVE",
"544 1340 CURVE SMOOTH"
);
},
{
closed = 1;
nodes = (
"1058 1340 OFFCURVE",
"1128 1403 OFFCURVE",
"1128 1483 CURVE SMOOTH",
"1128 1542 OFFCURVE",
"1084 1590 OFFCURVE",
"1021 1590 CURVE SMOOTH",
"947 1590 OFFCURVE",
"876 1525 OFFCURVE",
"876 1448 CURVE SMOOTH",
"876 1388 OFFCURVE",
"920 1340 OFFCURVE",
"984 1340 CURVE SMOOTH"
);
}
);
width = 1228;
}
);
unicode = 0178;
},
{
glyphname = Ygrave;
lastChange = "2015-01-14 05:27:16 +0000";
layers = (
{
layerId = UUID0;
name = "Regular Italic";
paths = (
{
closed = 1;
nodes = (
"1143 1213 OFFCURVE",
"1110 1205 OFFCURVE",
"1083 1172 CURVE SMOOTH",
"620 607 LINE",
"668 601 LINE",
"404 1165 LINE SMOOTH",
"389 1198 OFFCURVE",
"368 1209 OFFCURVE",
"314 1187 CURVE SMOOTH",
"259 1165 OFFCURVE",
"252 1141 OFFCURVE",
"271 1101 CURVE SMOOTH",
"576 457 LINE",
"680 457 LINE",
"1206 1090 LINE SMOOTH",
"1239 1130 OFFCURVE",
"1234 1159 OFFCURVE",
"1187 1187 CURVE SMOOTH"
);
},
{
closed = 1;
nodes = (
"559 515 LINE",
"478 55 LINE SMOOTH",
"470 9 OFFCURVE",
"485 -10 OFFCURVE",
"541 -10 CURVE SMOOTH",
"543 -10 LINE SMOOTH",
"596 -10 OFFCURVE",
"620 9 OFFCURVE",
"628 55 CURVE SMOOTH",
"709 515 LINE"
);
},
{
closed = 1;
nodes = (
"546 1633 LINE SMOOTH",
"512 1652 OFFCURVE",
"487 1654 OFFCURVE",
"445 1579 CURVE SMOOTH",
"406 1508 OFFCURVE",
"418 1481 OFFCURVE",
"445 1472 CURVE SMOOTH",
"926 1309 LINE SMOOTH",
"951 1301 OFFCURVE",
"972 1318 OFFCURVE",
"981 1341 CURVE SMOOTH",
"990 1364 OFFCURVE",
"985 1390 OFFCURVE",
"962 1403 CURVE SMOOTH"
);
}
);
width = 1228;
}
);
unicode = 1EF2;
},
{
glyphname = Z;
lastChange = "2015-01-12 05:49:59 +0000";
layers = (
{
layerId = UUID0;
name = "Regular Italic";
paths = (
{
closed = 1;
nodes = (
"936 0 LINE SMOOTH",
"981 0 OFFCURVE",
"1002 20 OFFCURVE",
"1011 72 CURVE SMOOTH",
"1020 124 OFFCURVE",
"1006 144 OFFCURVE",
"961 144 CURVE SMOOTH",
"359 144 LINE",
"1141 1080 LINE SMOOTH",
"1149 1090 OFFCURVE",
"1155 1103 OFFCURVE",
"1158 1119 CURVE SMOOTH",
"1167 1169 OFFCURVE",
"1150 1187 OFFCURVE",
"1105 1187 CURVE SMOOTH",
"385 1187 LINE SMOOTH",
"340 1187 OFFCURVE",
"318 1167 OFFCURVE",
"309 1115 CURVE SMOOTH",
"300 1063 OFFCURVE",
"314 1043 OFFCURVE",
"359 1043 CURVE SMOOTH",
"917 1043 LINE",
"140 111 LINE SMOOTH",
"130 99 OFFCURVE",
"121 85 OFFCURVE",
"118 68 CURVE SMOOTH",
"109 18 OFFCURVE",
"125 0 OFFCURVE",
"170 0 CURVE SMOOTH"
);
}
);
width = 1228;
}
);
unicode = 005A;
},
{
glyphname = Zacute;
lastChange = "2015-01-14 05:27:15 +0000";
layers = (
{
layerId = UUID0;
name = "Regular Italic";
paths = (
{
closed = 1;
nodes = (
"936 0 LINE SMOOTH",
"981 0 OFFCURVE",
"1002 20 OFFCURVE",
"1011 72 CURVE SMOOTH",
"1020 124 OFFCURVE",
"1006 144 OFFCURVE",
"961 144 CURVE SMOOTH",
"359 144 LINE",
"1141 1080 LINE SMOOTH",
"1149 1090 OFFCURVE",
"1155 1103 OFFCURVE",
"1158 1119 CURVE SMOOTH",
"1167 1169 OFFCURVE",
"1150 1187 OFFCURVE",
"1105 1187 CURVE SMOOTH",
"385 1187 LINE SMOOTH",
"340 1187 OFFCURVE",
"318 1167 OFFCURVE",
"309 1115 CURVE SMOOTH",
"300 1063 OFFCURVE",
"314 1043 OFFCURVE",
"359 1043 CURVE SMOOTH",
"917 1043 LINE",
"140 111 LINE SMOOTH",
"130 99 OFFCURVE",
"121 85 OFFCURVE",
"118 68 CURVE SMOOTH",
"109 18 OFFCURVE",
"125 0 OFFCURVE",
"170 0 CURVE SMOOTH"
);
},
{
closed = 1;
nodes = (
"564 1403 LINE SMOOTH",
"541 1390 OFFCURVE",
"536 1364 OFFCURVE",
"545 1341 CURVE SMOOTH",
"554 1318 OFFCURVE",
"575 1301 OFFCURVE",
"600 1309 CURVE SMOOTH",
"1081 1472 LINE SMOOTH",
"1108 1481 OFFCURVE",
"1120 1508 OFFCURVE",
"1081 1579 CURVE SMOOTH",
"1039 1654 OFFCURVE",
"1014 1652 OFFCURVE",
"980 1633 CURVE SMOOTH"
);
}
);
width = 1228;
}
);
unicode = 0179;
},
{
glyphname = Zcaron;
lastChange = "2015-01-14 05:27:16 +0000";
layers = (
{
layerId = UUID0;
name = "Regular Italic";
paths = (
{
closed = 1;
nodes = (
"936 0 LINE SMOOTH",
"981 0 OFFCURVE",
"1002 20 OFFCURVE",
"1011 72 CURVE SMOOTH",
"1020 124 OFFCURVE",
"1006 144 OFFCURVE",
"961 144 CURVE SMOOTH",
"359 144 LINE",
"1141 1080 LINE SMOOTH",
"1149 1090 OFFCURVE",
"1155 1103 OFFCURVE",
"1158 1119 CURVE SMOOTH",
"1167 1169 OFFCURVE",
"1150 1187 OFFCURVE",
"1105 1187 CURVE SMOOTH",
"385 1187 LINE SMOOTH",
"340 1187 OFFCURVE",
"318 1167 OFFCURVE",
"309 1115 CURVE SMOOTH",
"300 1063 OFFCURVE",
"314 1043 OFFCURVE",
"359 1043 CURVE SMOOTH",
"917 1043 LINE",
"140 111 LINE SMOOTH",
"130 99 OFFCURVE",
"121 85 OFFCURVE",
"118 68 CURVE SMOOTH",
"109 18 OFFCURVE",
"125 0 OFFCURVE",
"170 0 CURVE SMOOTH"
);
},
{
closed = 1;
nodes = (
"779 1475 LINE",
"527 1634 LINE SMOOTH",
"506 1648 OFFCURVE",
"482 1634 OFFCURVE",
"468 1613 CURVE SMOOTH",
"455 1592 OFFCURVE",
"451 1564 OFFCURVE",
"468 1547 CURVE SMOOTH",
"714 1315 LINE SMOOTH",
"727 1303 OFFCURVE",
"745 1297 OFFCURVE",
"766 1297 CURVE SMOOTH",
"787 1297 OFFCURVE",
"807 1303 OFFCURVE",
"824 1315 CURVE SMOOTH",
"1132 1547 LINE SMOOTH",
"1155 1564 OFFCURVE",
"1157 1591 OFFCURVE",
"1146 1612 CURVE SMOOTH",
"1135 1633 OFFCURVE",
"1111 1647 OFFCURVE",
"1085 1634 CURVE SMOOTH"
);
}
);
width = 1228;
}
);
unicode = 017D;
},
{
glyphname = Zdotaccent;
lastChange = "2015-01-14 05:27:17 +0000";
layers = (
{
layerId = UUID0;
name = "Regular Italic";
paths = (
{
closed = 1;
nodes = (
"936 0 LINE SMOOTH",
"981 0 OFFCURVE",
"1002 20 OFFCURVE",
"1011 72 CURVE SMOOTH",
"1020 124 OFFCURVE",
"1006 144 OFFCURVE",
"961 144 CURVE SMOOTH",
"359 144 LINE",
"1141 1080 LINE SMOOTH",
"1149 1090 OFFCURVE",
"1155 1103 OFFCURVE",
"1158 1119 CURVE SMOOTH",
"1167 1169 OFFCURVE",
"1150 1187 OFFCURVE",
"1105 1187 CURVE SMOOTH",
"385 1187 LINE SMOOTH",
"340 1187 OFFCURVE",
"318 1167 OFFCURVE",
"309 1115 CURVE SMOOTH",
"300 1063 OFFCURVE",
"314 1043 OFFCURVE",
"359 1043 CURVE SMOOTH",
"917 1043 LINE",
"140 111 LINE SMOOTH",
"130 99 OFFCURVE",
"121 85 OFFCURVE",
"118 68 CURVE SMOOTH",
"109 18 OFFCURVE",
"125 0 OFFCURVE",
"170 0 CURVE SMOOTH"
);
},
{
closed = 1;
nodes = (
"852 1349 OFFCURVE",
"931 1421 OFFCURVE",
"931 1511 CURVE SMOOTH",
"931 1576 OFFCURVE",
"881 1631 OFFCURVE",
"810 1631 CURVE SMOOTH",
"726 1631 OFFCURVE",
"645 1559 OFFCURVE",
"645 1470 CURVE SMOOTH",
"645 1403 OFFCURVE",
"696 1349 OFFCURVE",
"767 1349 CURVE SMOOTH"
);
}
);
width = 1228;
}
);
unicode = 017B;
},
{
glyphname = a;
lastChange = "2015-01-14 04:00:54 +0000";
layers = (
{
background = {
paths = (
{
closed = 1;
nodes = (
"302 946 OFFCURVE",
"143 625 OFFCURVE",
"143 366 CURVE SMOOTH",
"143 127 OFFCURVE",
"290 -22 OFFCURVE",
"505 -22 CURVE SMOOTH",
"633 -22 OFFCURVE",
"749 34 OFFCURVE",
"850 143 CURVE",
"835 55 LINE SMOOTH",
"827 9 OFFCURVE",
"842 -10 OFFCURVE",
"895 -10 CURVE SMOOTH",
"897 -10 LINE SMOOTH",
"950 -10 OFFCURVE",
"967 9 OFFCURVE",
"975 55 CURVE SMOOTH",
"1119 869 LINE SMOOTH",
"1127 915 OFFCURVE",
"1112 934 OFFCURVE",
"1059 934 CURVE SMOOTH",
"1057 934 LINE SMOOTH",
"1004 934 OFFCURVE",
"987 915 OFFCURVE",
"979 869 CURVE SMOOTH",
"960 766 LINE",
"897 873 OFFCURVE",
"792 946 OFFCURVE",
"655 946 CURVE SMOOTH"
);
},
{
closed = 1;
nodes = (
"803 798 OFFCURVE",
"904 705 OFFCURVE",
"904 541 CURVE SMOOTH",
"904 335 OFFCURVE",
"768 126 OFFCURVE",
"531 126 CURVE SMOOTH",
"378 126 OFFCURVE",
"296 226 OFFCURVE",
"296 375 CURVE SMOOTH",
"296 581 OFFCURVE",
"424 798 OFFCURVE",
"649 798 CURVE SMOOTH"
);
},
{
closed = 1;
nodes = (
"288 946 OFFCURVE",
"129 625 OFFCURVE",
"129 366 CURVE SMOOTH",
"129 127 OFFCURVE",
"276 -22 OFFCURVE",
"491 -22 CURVE SMOOTH",
"650 -22 OFFCURVE",
"774 50 OFFCURVE",
"874 184 CURVE",
"869 196 LINE",
"869 69 OFFCURVE",
"943 0 OFFCURVE",
"1052 0 CURVE SMOOTH",
"1063 0 LINE SMOOTH",
"1108 0 OFFCURVE",
"1129 20 OFFCURVE",
"1139 72 CURVE SMOOTH",
"1148 124 OFFCURVE",
"1133 144 OFFCURVE",
"1088 144 CURVE SMOOTH",
"1083 144 LINE SMOOTH",
"1022 144 OFFCURVE",
"985 188 OFFCURVE",
"1001 279 CURVE SMOOTH",
"1105 869 LINE SMOOTH",
"1113 915 OFFCURVE",
"1098 934 OFFCURVE",
"1045 934 CURVE SMOOTH",
"1043 934 LINE SMOOTH",
"990 934 OFFCURVE",
"973 915 OFFCURVE",
"965 869 CURVE SMOOTH",
"946 766 LINE",
"883 873 OFFCURVE",
"778 946 OFFCURVE",
"641 946 CURVE SMOOTH"
);
},
{
closed = 1;
nodes = (
"789 798 OFFCURVE",
"890 705 OFFCURVE",
"890 541 CURVE SMOOTH",
"890 339 OFFCURVE",
"736 126 OFFCURVE",
"517 126 CURVE SMOOTH",
"364 126 OFFCURVE",
"282 226 OFFCURVE",
"282 375 CURVE SMOOTH",
"282 581 OFFCURVE",
"410 798 OFFCURVE",
"635 798 CURVE SMOOTH"
);
}
);
};
layerId = UUID0;
name = "Regular Italic";
paths = (
{
closed = 1;
nodes = (
"305 946 OFFCURVE",
"143 625 OFFCURVE",
"143 366 CURVE SMOOTH",
"143 127 OFFCURVE",
"293 -22 OFFCURVE",
"502 -22 CURVE SMOOTH",
"653 -22 OFFCURVE",
"770 50 OFFCURVE",
"864 184 CURVE",
"859 196 LINE",
"859 69 OFFCURVE",
"933 0 OFFCURVE",
"1042 0 CURVE SMOOTH",
"1053 0 LINE SMOOTH",
"1098 0 OFFCURVE",
"1119 20 OFFCURVE",
"1129 72 CURVE SMOOTH",
"1138 124 OFFCURVE",
"1123 144 OFFCURVE",
"1078 144 CURVE SMOOTH",
"1073 144 LINE SMOOTH",
"1012 144 OFFCURVE",
"975 188 OFFCURVE",
"991 279 CURVE SMOOTH",
"1095 869 LINE SMOOTH",
"1103 915 OFFCURVE",
"1088 934 OFFCURVE",
"1035 934 CURVE SMOOTH",
"1033 934 LINE SMOOTH",
"980 934 OFFCURVE",
"963 915 OFFCURVE",
"955 869 CURVE SMOOTH",
"936 766 LINE",
"877 874 OFFCURVE",
"779 946 OFFCURVE",
"651 946 CURVE SMOOTH"
);
},
{
closed = 1;
nodes = (
"787 798 OFFCURVE",
"880 705 OFFCURVE",
"880 541 CURVE SMOOTH",
"880 339 OFFCURVE",
"731 126 OFFCURVE",
"524 126 CURVE SMOOTH",
"378 126 OFFCURVE",
"296 226 OFFCURVE",
"296 375 CURVE SMOOTH",
"296 581 OFFCURVE",
"426 798 OFFCURVE",
"645 798 CURVE SMOOTH"
);
}
);
width = 1228;
}
);
unicode = 0061;
},
{
glyphname = aacute;
lastChange = "2015-01-14 05:27:16 +0000";
layers = (
{
layerId = UUID0;
name = "Regular Italic";
paths = (
{
closed = 1;
nodes = (
"305 946 OFFCURVE",
"143 625 OFFCURVE",
"143 366 CURVE SMOOTH",
"143 127 OFFCURVE",
"293 -22 OFFCURVE",
"502 -22 CURVE SMOOTH",
"653 -22 OFFCURVE",
"770 50 OFFCURVE",
"864 184 CURVE",
"859 196 LINE",
"859 69 OFFCURVE",
"933 0 OFFCURVE",
"1042 0 CURVE SMOOTH",
"1053 0 LINE SMOOTH",
"1098 0 OFFCURVE",
"1119 20 OFFCURVE",
"1129 72 CURVE SMOOTH",
"1138 124 OFFCURVE",
"1123 144 OFFCURVE",
"1078 144 CURVE SMOOTH",
"1073 144 LINE SMOOTH",
"1012 144 OFFCURVE",
"975 188 OFFCURVE",
"991 279 CURVE SMOOTH",
"1095 869 LINE SMOOTH",
"1103 915 OFFCURVE",
"1088 934 OFFCURVE",
"1035 934 CURVE SMOOTH",
"1033 934 LINE SMOOTH",
"980 934 OFFCURVE",
"963 915 OFFCURVE",
"955 869 CURVE SMOOTH",
"936 766 LINE",
"877 874 OFFCURVE",
"779 946 OFFCURVE",
"651 946 CURVE SMOOTH"
);
},
{
closed = 1;
nodes = (
"787 798 OFFCURVE",
"880 705 OFFCURVE",
"880 541 CURVE SMOOTH",
"880 339 OFFCURVE",
"731 126 OFFCURVE",
"524 126 CURVE SMOOTH",
"378 126 OFFCURVE",
"296 226 OFFCURVE",
"296 375 CURVE SMOOTH",
"296 581 OFFCURVE",
"426 798 OFFCURVE",
"645 798 CURVE SMOOTH"
);
},
{
closed = 1;
nodes = (
"502 1133 LINE SMOOTH",
"479 1120 OFFCURVE",
"474 1094 OFFCURVE",
"483 1071 CURVE SMOOTH",
"492 1048 OFFCURVE",
"513 1031 OFFCURVE",
"538 1039 CURVE SMOOTH",
"1019 1202 LINE SMOOTH",
"1046 1211 OFFCURVE",
"1058 1238 OFFCURVE",
"1019 1309 CURVE SMOOTH",
"977 1384 OFFCURVE",
"952 1382 OFFCURVE",
"918 1363 CURVE SMOOTH"
);
}
);
width = 1228;
}
);
unicode = 00E1;
},
{
glyphname = abreve;
lastChange = "2015-01-14 05:27:17 +0000";
layers = (
{
layerId = UUID0;
name = "Regular Italic";
paths = (
{
closed = 1;
nodes = (
"1064 1363 OFFCURVE",
"1029 1361 OFFCURVE",
"1013 1338 CURVE SMOOTH",
"952 1248 OFFCURVE",
"862 1215 OFFCURVE",
"726 1215 CURVE SMOOTH",
"590 1215 OFFCURVE",
"510 1248 OFFCURVE",
"475 1338 CURVE SMOOTH",
"467 1359 OFFCURVE",
"438 1362 OFFCURVE",
"413 1352 CURVE SMOOTH",
"389 1343 OFFCURVE",
"368 1323 OFFCURVE",
"370 1298 CURVE SMOOTH",
"384 1160 OFFCURVE",
"508 1071 OFFCURVE",
"715 1071 CURVE SMOOTH",
"922 1071 OFFCURVE",
"1067 1160 OFFCURVE",
"1124 1298 CURVE SMOOTH",
"1134 1322 OFFCURVE",
"1116 1342 OFFCURVE",
"1091 1352 CURVE SMOOTH"
);
},
{
closed = 1;
nodes = (
"305 946 OFFCURVE",
"143 625 OFFCURVE",
"143 366 CURVE SMOOTH",
"143 127 OFFCURVE",
"293 -22 OFFCURVE",
"502 -22 CURVE SMOOTH",
"653 -22 OFFCURVE",
"770 50 OFFCURVE",
"864 184 CURVE",
"859 196 LINE",
"859 69 OFFCURVE",
"933 0 OFFCURVE",
"1042 0 CURVE SMOOTH",
"1053 0 LINE SMOOTH",
"1098 0 OFFCURVE",
"1119 20 OFFCURVE",
"1129 72 CURVE SMOOTH",
"1138 124 OFFCURVE",
"1123 144 OFFCURVE",
"1078 144 CURVE SMOOTH",
"1073 144 LINE SMOOTH",
"1012 144 OFFCURVE",
"975 188 OFFCURVE",
"991 279 CURVE SMOOTH",
"1095 869 LINE SMOOTH",
"1103 915 OFFCURVE",
"1088 934 OFFCURVE",
"1035 934 CURVE SMOOTH",
"1033 934 LINE SMOOTH",
"980 934 OFFCURVE",
"963 915 OFFCURVE",
"955 869 CURVE SMOOTH",
"936 766 LINE",
"877 874 OFFCURVE",
"779 946 OFFCURVE",
"651 946 CURVE SMOOTH"
);
},
{
closed = 1;
nodes = (
"787 798 OFFCURVE",
"880 705 OFFCURVE",
"880 541 CURVE SMOOTH",
"880 339 OFFCURVE",
"731 126 OFFCURVE",
"524 126 CURVE SMOOTH",
"378 126 OFFCURVE",
"296 226 OFFCURVE",
"296 375 CURVE SMOOTH",
"296 581 OFFCURVE",
"426 798 OFFCURVE",
"645 798 CURVE SMOOTH"
);
}
);
width = 1228;
}
);
unicode = 0103;
},
{
glyphname = acircumflex;
lastChange = "2015-01-14 05:27:15 +0000";
layers = (
{
layerId = UUID0;
name = "Regular Italic";
paths = (
{
closed = 1;
nodes = (
"305 946 OFFCURVE",
"143 625 OFFCURVE",
"143 366 CURVE SMOOTH",
"143 127 OFFCURVE",
"293 -22 OFFCURVE",
"502 -22 CURVE SMOOTH",
"653 -22 OFFCURVE",
"770 50 OFFCURVE",
"864 184 CURVE",
"859 196 LINE",
"859 69 OFFCURVE",
"933 0 OFFCURVE",
"1042 0 CURVE SMOOTH",
"1053 0 LINE SMOOTH",
"1098 0 OFFCURVE",
"1119 20 OFFCURVE",
"1129 72 CURVE SMOOTH",
"1138 124 OFFCURVE",
"1123 144 OFFCURVE",
"1078 144 CURVE SMOOTH",
"1073 144 LINE SMOOTH",
"1012 144 OFFCURVE",
"975 188 OFFCURVE",
"991 279 CURVE SMOOTH",
"1095 869 LINE SMOOTH",
"1103 915 OFFCURVE",
"1088 934 OFFCURVE",
"1035 934 CURVE SMOOTH",
"1033 934 LINE SMOOTH",
"980 934 OFFCURVE",
"963 915 OFFCURVE",
"955 869 CURVE SMOOTH",
"936 766 LINE",
"877 874 OFFCURVE",
"779 946 OFFCURVE",
"651 946 CURVE SMOOTH"
);
},
{
closed = 1;
nodes = (
"787 798 OFFCURVE",
"880 705 OFFCURVE",
"880 541 CURVE SMOOTH",
"880 339 OFFCURVE",
"731 126 OFFCURVE",
"524 126 CURVE SMOOTH",
"378 126 OFFCURVE",
"296 226 OFFCURVE",
"296 375 CURVE SMOOTH",
"296 581 OFFCURVE",
"426 798 OFFCURVE",
"645 798 CURVE SMOOTH"
);
},
{
closed = 1;
nodes = (
"743 1198 LINE",
"995 1039 LINE SMOOTH",
"1016 1025 OFFCURVE",
"1040 1039 OFFCURVE",
"1054 1060 CURVE SMOOTH",
"1067 1081 OFFCURVE",
"1071 1109 OFFCURVE",
"1054 1126 CURVE SMOOTH",
"808 1358 LINE SMOOTH",
"795 1370 OFFCURVE",
"777 1376 OFFCURVE",
"756 1376 CURVE SMOOTH",
"735 1376 OFFCURVE",
"715 1370 OFFCURVE",
"698 1358 CURVE SMOOTH",
"390 1126 LINE SMOOTH",
"367 1109 OFFCURVE",
"365 1082 OFFCURVE",
"376 1061 CURVE SMOOTH",
"387 1040 OFFCURVE",
"411 1026 OFFCURVE",
"437 1039 CURVE SMOOTH"
);
}
);
width = 1228;
}
);
unicode = 00E2;
},
{
glyphname = adieresis;
lastChange = "2015-01-14 05:27:15 +0000";
layers = (
{
layerId = UUID0;
name = "Regular Italic";
paths = (
{
closed = 1;
nodes = (
"305 946 OFFCURVE",
"143 625 OFFCURVE",
"143 366 CURVE SMOOTH",
"143 127 OFFCURVE",
"293 -22 OFFCURVE",
"502 -22 CURVE SMOOTH",
"653 -22 OFFCURVE",
"770 50 OFFCURVE",
"864 184 CURVE",
"859 196 LINE",
"859 69 OFFCURVE",
"933 0 OFFCURVE",
"1042 0 CURVE SMOOTH",
"1053 0 LINE SMOOTH",
"1098 0 OFFCURVE",
"1119 20 OFFCURVE",
"1129 72 CURVE SMOOTH",
"1138 124 OFFCURVE",
"1123 144 OFFCURVE",
"1078 144 CURVE SMOOTH",
"1073 144 LINE SMOOTH",
"1012 144 OFFCURVE",
"975 188 OFFCURVE",
"991 279 CURVE SMOOTH",
"1095 869 LINE SMOOTH",
"1103 915 OFFCURVE",
"1088 934 OFFCURVE",
"1035 934 CURVE SMOOTH",
"1033 934 LINE SMOOTH",
"980 934 OFFCURVE",
"963 915 OFFCURVE",
"955 869 CURVE SMOOTH",
"936 766 LINE",
"877 874 OFFCURVE",
"779 946 OFFCURVE",
"651 946 CURVE SMOOTH"
);
},
{
closed = 1;
nodes = (
"787 798 OFFCURVE",
"880 705 OFFCURVE",
"880 541 CURVE SMOOTH",
"880 339 OFFCURVE",
"731 126 OFFCURVE",
"524 126 CURVE SMOOTH",
"378 126 OFFCURVE",
"296 226 OFFCURVE",
"296 375 CURVE SMOOTH",
"296 581 OFFCURVE",
"426 798 OFFCURVE",
"645 798 CURVE SMOOTH"
);
},
{
closed = 1;
nodes = (
"560 1070 OFFCURVE",
"630 1133 OFFCURVE",
"630 1213 CURVE SMOOTH",
"630 1272 OFFCURVE",
"586 1320 OFFCURVE",
"523 1320 CURVE SMOOTH",
"449 1320 OFFCURVE",
"378 1255 OFFCURVE",
"378 1178 CURVE SMOOTH",
"378 1118 OFFCURVE",
"422 1070 OFFCURVE",
"486 1070 CURVE SMOOTH"
);
},
{
closed = 1;
nodes = (
"1000 1070 OFFCURVE",
"1070 1133 OFFCURVE",
"1070 1213 CURVE SMOOTH",
"1070 1272 OFFCURVE",
"1026 1320 OFFCURVE",
"963 1320 CURVE SMOOTH",
"889 1320 OFFCURVE",
"818 1255 OFFCURVE",
"818 1178 CURVE SMOOTH",
"818 1118 OFFCURVE",
"862 1070 OFFCURVE",
"926 1070 CURVE SMOOTH"
);
}
);
width = 1228;
}
);
unicode = 00E4;
},
{
glyphname = agrave;
lastChange = "2015-01-14 05:27:16 +0000";
layers = (
{
layerId = UUID0;
name = "Regular Italic";
paths = (
{
closed = 1;
nodes = (
"305 946 OFFCURVE",
"143 625 OFFCURVE",
"143 366 CURVE SMOOTH",
"143 127 OFFCURVE",
"293 -22 OFFCURVE",
"502 -22 CURVE SMOOTH",
"653 -22 OFFCURVE",
"770 50 OFFCURVE",
"864 184 CURVE",
"859 196 LINE",
"859 69 OFFCURVE",
"933 0 OFFCURVE",
"1042 0 CURVE SMOOTH",
"1053 0 LINE SMOOTH",
"1098 0 OFFCURVE",
"1119 20 OFFCURVE",
"1129 72 CURVE SMOOTH",
"1138 124 OFFCURVE",
"1123 144 OFFCURVE",
"1078 144 CURVE SMOOTH",
"1073 144 LINE SMOOTH",
"1012 144 OFFCURVE",
"975 188 OFFCURVE",
"991 279 CURVE SMOOTH",
"1095 869 LINE SMOOTH",
"1103 915 OFFCURVE",
"1088 934 OFFCURVE",
"1035 934 CURVE SMOOTH",
"1033 934 LINE SMOOTH",
"980 934 OFFCURVE",
"963 915 OFFCURVE",
"955 869 CURVE SMOOTH",
"936 766 LINE",
"877 874 OFFCURVE",
"779 946 OFFCURVE",
"651 946 CURVE SMOOTH"
);
},
{
closed = 1;
nodes = (
"787 798 OFFCURVE",
"880 705 OFFCURVE",
"880 541 CURVE SMOOTH",
"880 339 OFFCURVE",
"731 126 OFFCURVE",
"524 126 CURVE SMOOTH",
"378 126 OFFCURVE",
"296 226 OFFCURVE",
"296 375 CURVE SMOOTH",
"296 581 OFFCURVE",
"426 798 OFFCURVE",
"645 798 CURVE SMOOTH"
);
},
{
closed = 1;
nodes = (
"538 1363 LINE SMOOTH",
"504 1382 OFFCURVE",
"479 1384 OFFCURVE",
"437 1309 CURVE SMOOTH",
"398 1238 OFFCURVE",
"410 1211 OFFCURVE",
"437 1202 CURVE SMOOTH",
"918 1039 LINE SMOOTH",
"943 1031 OFFCURVE",
"964 1048 OFFCURVE",
"973 1071 CURVE SMOOTH",
"982 1094 OFFCURVE",
"977 1120 OFFCURVE",
"954 1133 CURVE SMOOTH"
);
}
);
width = 1228;
}
);
unicode = 00E0;
},
{
glyphname = amacron;
lastChange = "2015-01-14 05:27:16 +0000";
layers = (
{
layerId = UUID0;
name = "Regular Italic";
paths = (
{
closed = 1;
nodes = (
"305 946 OFFCURVE",
"143 625 OFFCURVE",
"143 366 CURVE SMOOTH",
"143 127 OFFCURVE",
"293 -22 OFFCURVE",
"502 -22 CURVE SMOOTH",
"653 -22 OFFCURVE",
"770 50 OFFCURVE",
"864 184 CURVE",
"859 196 LINE",
"859 69 OFFCURVE",
"933 0 OFFCURVE",
"1042 0 CURVE SMOOTH",
"1053 0 LINE SMOOTH",
"1098 0 OFFCURVE",
"1119 20 OFFCURVE",
"1129 72 CURVE SMOOTH",
"1138 124 OFFCURVE",
"1123 144 OFFCURVE",
"1078 144 CURVE SMOOTH",
"1073 144 LINE SMOOTH",
"1012 144 OFFCURVE",
"975 188 OFFCURVE",
"991 279 CURVE SMOOTH",
"1095 869 LINE SMOOTH",
"1103 915 OFFCURVE",
"1088 934 OFFCURVE",
"1035 934 CURVE SMOOTH",
"1033 934 LINE SMOOTH",
"980 934 OFFCURVE",
"963 915 OFFCURVE",
"955 869 CURVE SMOOTH",
"936 766 LINE",
"877 874 OFFCURVE",
"779 946 OFFCURVE",
"651 946 CURVE SMOOTH"
);
},
{
closed = 1;
nodes = (
"787 798 OFFCURVE",
"880 705 OFFCURVE",
"880 541 CURVE SMOOTH",
"880 339 OFFCURVE",
"731 126 OFFCURVE",
"524 126 CURVE SMOOTH",
"378 126 OFFCURVE",
"296 226 OFFCURVE",
"296 375 CURVE SMOOTH",
"296 581 OFFCURVE",
"426 798 OFFCURVE",
"645 798 CURVE SMOOTH"
);
},
{
closed = 1;
nodes = (
"460 1250 LINE SMOOTH",
"415 1250 OFFCURVE",
"393 1230 OFFCURVE",
"384 1178 CURVE SMOOTH",
"375 1126 OFFCURVE",
"390 1106 OFFCURVE",
"435 1106 CURVE SMOOTH",
"997 1106 LINE SMOOTH",
"1042 1106 OFFCURVE",
"1063 1126 OFFCURVE",
"1072 1178 CURVE SMOOTH",
"1081 1230 OFFCURVE",
"1067 1250 OFFCURVE",
"1022 1250 CURVE SMOOTH"
);
}
);
width = 1228;
}
);
unicode = 0101;
},
{
color = 3;
glyphname = aogonek;
lastChange = "2015-01-14 05:27:15 +0000";
layers = (
{
layerId = UUID0;
name = "Regular Italic";
paths = (
{
closed = 1;
nodes = (
"305 946 OFFCURVE",
"143 625 OFFCURVE",
"143 366 CURVE SMOOTH",
"143 127 OFFCURVE",
"293 -22 OFFCURVE",
"502 -22 CURVE SMOOTH",
"653 -22 OFFCURVE",
"770 50 OFFCURVE",
"864 184 CURVE",
"859 196 LINE",
"859 69 OFFCURVE",
"933 0 OFFCURVE",
"1042 0 CURVE SMOOTH",
"1053 0 LINE SMOOTH",
"1098 0 OFFCURVE",
"1119 20 OFFCURVE",
"1129 72 CURVE SMOOTH",
"1138 124 OFFCURVE",
"1123 144 OFFCURVE",
"1078 144 CURVE SMOOTH",
"1073 144 LINE SMOOTH",
"1012 144 OFFCURVE",
"975 188 OFFCURVE",
"991 279 CURVE SMOOTH",
"1095 869 LINE SMOOTH",
"1103 915 OFFCURVE",
"1088 934 OFFCURVE",
"1035 934 CURVE SMOOTH",
"1033 934 LINE SMOOTH",
"980 934 OFFCURVE",
"963 915 OFFCURVE",
"955 869 CURVE SMOOTH",
"936 766 LINE",
"877 874 OFFCURVE",
"779 946 OFFCURVE",
"651 946 CURVE SMOOTH"
);
},
{
closed = 1;
nodes = (
"787 798 OFFCURVE",
"880 705 OFFCURVE",
"880 541 CURVE SMOOTH",
"880 339 OFFCURVE",
"731 126 OFFCURVE",
"524 126 CURVE SMOOTH",
"378 126 OFFCURVE",
"296 226 OFFCURVE",
"296 375 CURVE SMOOTH",
"296 581 OFFCURVE",
"426 798 OFFCURVE",
"645 798 CURVE SMOOTH"
);
},
{
closed = 1;
nodes = (
"939 28 LINE",
"788 -82 OFFCURVE",
"701 -190 OFFCURVE",
"701 -310 CURVE SMOOTH",
"701 -406 OFFCURVE",
"759 -472 OFFCURVE",
"866 -472 CURVE SMOOTH",
"930 -472 OFFCURVE",
"995 -460 OFFCURVE",
"1044 -443 CURVE SMOOTH",
"1075 -432 OFFCURVE",
"1085 -411 OFFCURVE",
"1080 -374 CURVE SMOOTH",
"1075 -337 OFFCURVE",
"1060 -322 OFFCURVE",
"1033 -326 CURVE SMOOTH",
"997 -332 OFFCURVE",
"961 -336 OFFCURVE",
"922 -336 CURVE SMOOTH",
"882 -336 OFFCURVE",
"857 -316 OFFCURVE",
"857 -277 CURVE SMOOTH",
"857 -200 OFFCURVE",
"936 -104 OFFCURVE",
"1109 28 CURVE"
);
}
);
width = 1228;
}
);
unicode = 0105;
},
{
glyphname = aring;
lastChange = "2015-01-14 05:27:15 +0000";
layers = (
{
layerId = UUID0;
name = "Regular Italic";
paths = (
{
closed = 1;
nodes = (
"305 946 OFFCURVE",
"143 625 OFFCURVE",
"143 366 CURVE SMOOTH",
"143 127 OFFCURVE",
"293 -22 OFFCURVE",
"502 -22 CURVE SMOOTH",
"653 -22 OFFCURVE",
"770 50 OFFCURVE",
"864 184 CURVE",
"859 196 LINE",
"859 69 OFFCURVE",
"933 0 OFFCURVE",
"1042 0 CURVE SMOOTH",
"1053 0 LINE SMOOTH",
"1098 0 OFFCURVE",
"1119 20 OFFCURVE",
"1129 72 CURVE SMOOTH",
"1138 124 OFFCURVE",
"1123 144 OFFCURVE",
"1078 144 CURVE SMOOTH",
"1073 144 LINE SMOOTH",
"1012 144 OFFCURVE",
"975 188 OFFCURVE",
"991 279 CURVE SMOOTH",
"1095 869 LINE SMOOTH",
"1103 915 OFFCURVE",
"1088 934 OFFCURVE",
"1035 934 CURVE SMOOTH",
"1033 934 LINE SMOOTH",
"980 934 OFFCURVE",
"963 915 OFFCURVE",
"955 869 CURVE SMOOTH",
"936 766 LINE",
"877 874 OFFCURVE",
"779 946 OFFCURVE",
"651 946 CURVE SMOOTH"
);
},
{
closed = 1;
nodes = (
"787 798 OFFCURVE",
"880 705 OFFCURVE",
"880 541 CURVE SMOOTH",
"880 339 OFFCURVE",
"731 126 OFFCURVE",
"524 126 CURVE SMOOTH",
"378 126 OFFCURVE",
"296 226 OFFCURVE",
"296 375 CURVE SMOOTH",
"296 581 OFFCURVE",
"426 798 OFFCURVE",
"645 798 CURVE SMOOTH"
);
},
{
closed = 1;
nodes = (
"884 1036 OFFCURVE",
"997 1177 OFFCURVE",
"997 1313 CURVE SMOOTH",
"997 1431 OFFCURVE",
"905 1528 OFFCURVE",
"783 1528 CURVE SMOOTH",
"615 1528 OFFCURVE",
"502 1384 OFFCURVE",
"502 1251 CURVE SMOOTH",
"502 1133 OFFCURVE",
"594 1036 OFFCURVE",
"716 1036 CURVE SMOOTH"
);
},
{
closed = 1;
nodes = (
"665 1156 OFFCURVE",
"622 1200 OFFCURVE",
"622 1259 CURVE SMOOTH",
"622 1339 OFFCURVE",
"694 1408 OFFCURVE",
"772 1408 CURVE SMOOTH",
"834 1408 OFFCURVE",
"878 1363 OFFCURVE",
"878 1304 CURVE SMOOTH",
"878 1224 OFFCURVE",
"803 1156 OFFCURVE",
"727 1156 CURVE SMOOTH"
);
}
);
width = 1228;
}
);
unicode = 00E5;
},
{
glyphname = atilde;
lastChange = "2015-01-14 05:27:16 +0000";
layers = (
{
layerId = UUID0;
name = "Regular Italic";
paths = (
{
closed = 1;
nodes = (
"305 946 OFFCURVE",
"143 625 OFFCURVE",
"143 366 CURVE SMOOTH",
"143 127 OFFCURVE",
"293 -22 OFFCURVE",
"502 -22 CURVE SMOOTH",
"653 -22 OFFCURVE",
"770 50 OFFCURVE",
"864 184 CURVE",
"859 196 LINE",
"859 69 OFFCURVE",
"933 0 OFFCURVE",
"1042 0 CURVE SMOOTH",
"1053 0 LINE SMOOTH",
"1098 0 OFFCURVE",
"1119 20 OFFCURVE",
"1129 72 CURVE SMOOTH",
"1138 124 OFFCURVE",
"1123 144 OFFCURVE",
"1078 144 CURVE SMOOTH",
"1073 144 LINE SMOOTH",
"1012 144 OFFCURVE",
"975 188 OFFCURVE",
"991 279 CURVE SMOOTH",
"1095 869 LINE SMOOTH",
"1103 915 OFFCURVE",
"1088 934 OFFCURVE",
"1035 934 CURVE SMOOTH",
"1033 934 LINE SMOOTH",
"980 934 OFFCURVE",
"963 915 OFFCURVE",
"955 869 CURVE SMOOTH",
"936 766 LINE",
"877 874 OFFCURVE",
"779 946 OFFCURVE",
"651 946 CURVE SMOOTH"
);
},
{
closed = 1;
nodes = (
"787 798 OFFCURVE",
"880 705 OFFCURVE",
"880 541 CURVE SMOOTH",
"880 339 OFFCURVE",
"731 126 OFFCURVE",
"524 126 CURVE SMOOTH",
"378 126 OFFCURVE",
"296 226 OFFCURVE",
"296 375 CURVE SMOOTH",
"296 581 OFFCURVE",
"426 798 OFFCURVE",
"645 798 CURVE SMOOTH"
);
},
{
closed = 1;
nodes = (
"536 1297 OFFCURVE",
"472 1272 OFFCURVE",
"393 1206 CURVE SMOOTH",
"372 1189 OFFCURVE",
"370 1161 OFFCURVE",
"387 1132 CURVE SMOOTH",
"404 1103 OFFCURVE",
"427 1094 OFFCURVE",
"449 1107 CURVE SMOOTH",
"496 1135 OFFCURVE",
"544 1149 OFFCURVE",
"584 1149 CURVE SMOOTH",
"674 1149 OFFCURVE",
"754 1086 OFFCURVE",
"853 1086 CURVE SMOOTH",
"910 1086 OFFCURVE",
"974 1111 OFFCURVE",
"1053 1177 CURVE SMOOTH",
"1074 1194 OFFCURVE",
"1076 1222 OFFCURVE",
"1059 1251 CURVE SMOOTH",
"1042 1280 OFFCURVE",
"1019 1289 OFFCURVE",
"997 1276 CURVE SMOOTH",
"950 1248 OFFCURVE",
"902 1234 OFFCURVE",
"862 1234 CURVE SMOOTH",
"772 1234 OFFCURVE",
"692 1297 OFFCURVE",
"593 1297 CURVE SMOOTH"
);
}
);
width = 1228;
}
);
unicode = 00E3;
},
{
glyphname = ae;
lastChange = "2015-01-12 05:49:59 +0000";
layers = (
{
background = {
paths = (
{
closed = 1;
nodes = (
"1001 801 OFFCURVE",
"1031 745 OFFCURVE",
"1031 649 CURVE SMOOTH",
"1031 628 OFFCURVE",
"1029 605 OFFCURVE",
"1026 580 CURVE",
"726 580 LINE",
"770 739 OFFCURVE",
"834 801 OFFCURVE",
"926 801 CURVE SMOOTH"
);
}
);
};
layerId = UUID0;
name = "Regular Italic";
paths = (
{
closed = 1;
nodes = (
"845 946 OFFCURVE",
"761 907 OFFCURVE",
"695 830 CURVE",
"665 903 OFFCURVE",
"601 946 OFFCURVE",
"494 946 CURVE SMOOTH",
"400 946 OFFCURVE",
"308 917 OFFCURVE",
"211 844 CURVE SMOOTH",
"176 818 OFFCURVE",
"171 784 OFFCURVE",
"196 748 CURVE SMOOTH",
"220 713 OFFCURVE",
"253 707 OFFCURVE",
"286 729 CURVE SMOOTH",
"355 776 OFFCURVE",
"418 801 OFFCURVE",
"479 801 CURVE SMOOTH",
"557 801 OFFCURVE",
"584 760 OFFCURVE",
"584 689 CURVE SMOOTH",
"584 664 OFFCURVE",
"581 635 OFFCURVE",
"575 602 CURVE SMOOTH",
"571 580 LINE",
"437 580 OFFCURVE",
"323 556 OFFCURVE",
"236 510 CURVE SMOOTH",
"114 445 OFFCURVE",
"44 325 OFFCURVE",
"44 195 CURVE SMOOTH",
"44 65 OFFCURVE",
"133 -22 OFFCURVE",
"271 -22 CURVE SMOOTH",
"379 -22 OFFCURVE",
"490 33 OFFCURVE",
"570 122 CURVE",
"608 24 OFFCURVE",
"684 -22 OFFCURVE",
"789 -22 CURVE SMOOTH",
"884 -22 OFFCURVE",
"970 14 OFFCURVE",
"1056 84 CURVE SMOOTH",
"1094 114 OFFCURVE",
"1105 149 OFFCURVE",
"1080 187 CURVE SMOOTH",
"1056 225 OFFCURVE",
"1017 226 OFFCURVE",
"988 201 CURVE SMOOTH",
"922 147 OFFCURVE",
"868 123 OFFCURVE",
"804 123 CURVE SMOOTH",
"734 123 OFFCURVE",
"684 170 OFFCURVE",
"684 308 CURVE SMOOTH",
"684 345 OFFCURVE",
"688 389 OFFCURVE",
"696 440 CURVE",
"1095 440 LINE",
"1140 440 OFFCURVE",
"1162 457 OFFCURVE",
"1169 502 CURVE SMOOTH",
"1177 554 OFFCURVE",
"1181 602 OFFCURVE",
"1181 647 CURVE SMOOTH",
"1181 831 OFFCURVE",
"1110 946 OFFCURVE",
"939 946 CURVE SMOOTH"
);
},
{
closed = 1;
nodes = (
"528 340 LINE SMOOTH",
"506 211 OFFCURVE",
"402 119 OFFCURVE",
"289 119 CURVE SMOOTH",
"232 119 OFFCURVE",
"197 151 OFFCURVE",
"197 209 CURVE SMOOTH",
"197 288 OFFCURVE",
"239 359 OFFCURVE",
"316 398 CURVE SMOOTH",
"373 427 OFFCURVE",
"451 440 OFFCURVE",
"546 440 CURVE"
);
},
{
closed = 1;
nodes = (
"1001 801 OFFCURVE",
"1031 745 OFFCURVE",
"1031 649 CURVE SMOOTH",
"1031 628 OFFCURVE",
"1029 605 OFFCURVE",
"1026 580 CURVE",
"726 580 LINE",
"770 739 OFFCURVE",
"834 801 OFFCURVE",
"926 801 CURVE SMOOTH"
);
}
);
width = 1228;
}
);
unicode = 00E6;
},
{
glyphname = b;
lastChange = "2015-01-12 05:49:59 +0000";
layers = (
{
layerId = UUID0;
name = "Regular Italic";
paths = (
{
closed = 1;
nodes = (
"428 1322 LINE SMOOTH",
"375 1322 OFFCURVE",
"351 1303 OFFCURVE",
"343 1257 CURVE SMOOTH",
"131 55 LINE SMOOTH",
"123 9 OFFCURVE",
"138 -10 OFFCURVE",
"191 -10 CURVE SMOOTH",
"193 -10 LINE SMOOTH",
"246 -10 OFFCURVE",
"263 9 OFFCURVE",
"271 55 CURVE SMOOTH",
"290 158 LINE",
"354 44 OFFCURVE",
"458 -22 OFFCURVE",
"595 -22 CURVE SMOOTH",
"948 -22 OFFCURVE",
"1107 299 OFFCURVE",
"1107 558 CURVE SMOOTH",
"1107 797 OFFCURVE",
"960 946 OFFCURVE",
"745 946 CURVE SMOOTH",
"617 946 OFFCURVE",
"505 893 OFFCURVE",
"413 802 CURVE",
"493 1257 LINE SMOOTH",
"501 1303 OFFCURVE",
"486 1322 OFFCURVE",
"430 1322 CURVE SMOOTH"
);
},
{
closed = 1;
nodes = (
"872 798 OFFCURVE",
"954 698 OFFCURVE",
"954 549 CURVE SMOOTH",
"954 343 OFFCURVE",
"826 126 OFFCURVE",
"601 126 CURVE SMOOTH",
"447 126 OFFCURVE",
"346 219 OFFCURVE",
"346 383 CURVE SMOOTH",
"346 589 OFFCURVE",
"482 798 OFFCURVE",
"719 798 CURVE SMOOTH"
);
}
);
width = 1228;
}
);
unicode = 0062;
},
{
glyphname = c;
lastChange = "2015-01-12 05:49:59 +0000";
layers = (
{
layerId = UUID0;
name = "Regular Italic";
paths = (
{
closed = 1;
nodes = (
"379 946 OFFCURVE",
"154 673 OFFCURVE",
"154 380 CURVE SMOOTH",
"154 150 OFFCURVE",
"308 -22 OFFCURVE",
"565 -22 CURVE SMOOTH",
"711 -22 OFFCURVE",
"870 18 OFFCURVE",
"983 81 CURVE SMOOTH",
"1026 105 OFFCURVE",
"1034 139 OFFCURVE",
"1012 183 CURVE SMOOTH",
"988 231 OFFCURVE",
"954 236 OFFCURVE",
"920 216 CURVE SMOOTH",
"822 159 OFFCURVE",
"698 126 OFFCURVE",
"581 126 CURVE SMOOTH",
"411 126 OFFCURVE",
"309 234 OFFCURVE",
"309 391 CURVE SMOOTH",
"309 607 OFFCURVE",
"480 798 OFFCURVE",
"709 798 CURVE SMOOTH",
"813 798 OFFCURVE",
"921 765 OFFCURVE",
"1008 702 CURVE SMOOTH",
"1038 680 OFFCURVE",
"1075 683 OFFCURVE",
"1101 729 CURVE SMOOTH",
"1126 773 OFFCURVE",
"1115 807 OFFCURVE",
"1076 835 CURVE SMOOTH",
"975 907 OFFCURVE",
"845 946 OFFCURVE",
"720 946 CURVE SMOOTH"
);
}
);
width = 1228;
}
);
unicode = 0063;
},
{
glyphname = cacute;
lastChange = "2015-01-14 05:27:15 +0000";
layers = (
{
layerId = UUID0;
name = "Regular Italic";
paths = (
{
closed = 1;
nodes = (
"544 1133 LINE SMOOTH",
"521 1120 OFFCURVE",
"516 1094 OFFCURVE",
"525 1071 CURVE SMOOTH",
"534 1048 OFFCURVE",
"555 1031 OFFCURVE",
"580 1039 CURVE SMOOTH",
"1061 1202 LINE SMOOTH",
"1088 1211 OFFCURVE",
"1100 1238 OFFCURVE",
"1061 1309 CURVE SMOOTH",
"1019 1384 OFFCURVE",
"994 1382 OFFCURVE",
"960 1363 CURVE SMOOTH"
);
},
{
closed = 1;
nodes = (
"379 946 OFFCURVE",
"154 673 OFFCURVE",
"154 380 CURVE SMOOTH",
"154 150 OFFCURVE",
"308 -22 OFFCURVE",
"565 -22 CURVE SMOOTH",
"711 -22 OFFCURVE",
"870 18 OFFCURVE",
"983 81 CURVE SMOOTH",
"1026 105 OFFCURVE",
"1034 139 OFFCURVE",
"1012 183 CURVE SMOOTH",
"988 231 OFFCURVE",
"954 236 OFFCURVE",
"920 216 CURVE SMOOTH",
"822 159 OFFCURVE",
"698 126 OFFCURVE",
"581 126 CURVE SMOOTH",
"411 126 OFFCURVE",
"309 234 OFFCURVE",
"309 391 CURVE SMOOTH",
"309 607 OFFCURVE",
"480 798 OFFCURVE",
"709 798 CURVE SMOOTH",
"813 798 OFFCURVE",
"921 765 OFFCURVE",
"1008 702 CURVE SMOOTH",
"1038 680 OFFCURVE",
"1075 683 OFFCURVE",
"1101 729 CURVE SMOOTH",
"1126 773 OFFCURVE",
"1115 807 OFFCURVE",
"1076 835 CURVE SMOOTH",
"975 907 OFFCURVE",
"845 946 OFFCURVE",
"720 946 CURVE SMOOTH"
);
}
);
width = 1228;
}
);
unicode = 0107;
},
{
glyphname = ccaron;
lastChange = "2015-01-14 05:27:16 +0000";
layers = (
{
layerId = UUID0;
name = "Regular Italic";
paths = (
{
closed = 1;
nodes = (
"749 1225 LINE",
"497 1384 LINE SMOOTH",
"476 1398 OFFCURVE",
"452 1384 OFFCURVE",
"438 1363 CURVE SMOOTH",
"425 1342 OFFCURVE",
"421 1314 OFFCURVE",
"438 1297 CURVE SMOOTH",
"684 1065 LINE SMOOTH",
"697 1053 OFFCURVE",
"715 1047 OFFCURVE",
"736 1047 CURVE SMOOTH",
"757 1047 OFFCURVE",
"777 1053 OFFCURVE",
"794 1065 CURVE SMOOTH",
"1102 1297 LINE SMOOTH",
"1125 1314 OFFCURVE",
"1127 1341 OFFCURVE",
"1116 1362 CURVE SMOOTH",
"1105 1383 OFFCURVE",
"1081 1397 OFFCURVE",
"1055 1384 CURVE SMOOTH"
);
},
{
closed = 1;
nodes = (
"379 946 OFFCURVE",
"154 673 OFFCURVE",
"154 380 CURVE SMOOTH",
"154 150 OFFCURVE",
"308 -22 OFFCURVE",
"565 -22 CURVE SMOOTH",
"711 -22 OFFCURVE",
"870 18 OFFCURVE",
"983 81 CURVE SMOOTH",
"1026 105 OFFCURVE",
"1034 139 OFFCURVE",
"1012 183 CURVE SMOOTH",
"988 231 OFFCURVE",
"954 236 OFFCURVE",
"920 216 CURVE SMOOTH",
"822 159 OFFCURVE",
"698 126 OFFCURVE",
"581 126 CURVE SMOOTH",
"411 126 OFFCURVE",
"309 234 OFFCURVE",
"309 391 CURVE SMOOTH",
"309 607 OFFCURVE",
"480 798 OFFCURVE",
"709 798 CURVE SMOOTH",
"813 798 OFFCURVE",
"921 765 OFFCURVE",
"1008 702 CURVE SMOOTH",
"1038 680 OFFCURVE",
"1075 683 OFFCURVE",
"1101 729 CURVE SMOOTH",
"1126 773 OFFCURVE",
"1115 807 OFFCURVE",
"1076 835 CURVE SMOOTH",
"975 907 OFFCURVE",
"845 946 OFFCURVE",
"720 946 CURVE SMOOTH"
);
}
);
width = 1228;
}
);
unicode = 010D;
},
